<?xml version="1.0" encoding="utf-8"?>
<!-- Generator: Adobe Illustrator 18.1.1, SVG Export Plug-In . SVG Version: 6.00 Build 0)  -->
<svg version="1.1" id="Layer_1" xmlns="http://www.w3.org/2000/svg" xmlns:xlink="http://www.w3.org/1999/xlink" x="0px" y="0px"
	 viewBox="204.4 157.5 260.3 106" enable-background="new 204.4 157.5 260.3 106" xml:space="preserve">
<g>
	<g>
		<path fill="none" stroke="#FFFFFF" stroke-width="4" stroke-miterlimit="10" d="M278.1,186.6c0,0,35.1-53.9,90-9.9"/>
		<g>
			<polygon fill="#FFFFFF" points="356.6,179.2 365.6,174.8 368.7,165.4 379,186.6 			"/>
		</g>
	</g>
</g>
<g>
	<path fill="#FFFFFF" d="M246.5,171.1h-36.1c-3.3,0-6,2.7-6,6v76.5c0,3.3,2.7,6,6,6h36.1c3.3,0,6-2.7,6-6v-76.5
		C252.5,173.7,249.8,171.1,246.5,171.1z M228.5,256.4c-2.1,0-3.8-1.7-3.8-3.8s1.7-3.8,3.8-3.8s3.8,1.7,3.8,3.8
		C232.2,254.7,230.5,256.4,228.5,256.4z M246.7,244.9h-36.4v-67.7h36.4V244.9z"/>
</g>
<g>
	<path fill="#FFFFFF" d="M464.7,257.4v-36.1c0-3.3-2.7-6-6-6h-76.5c-3.3,0-6,2.7-6,6v36.1c0,3.3,2.7,6,6,6h76.5
		C462.1,263.4,464.7,260.8,464.7,257.4z M379.4,239.4c0-2.1,1.7-3.8,3.8-3.8c2.1,0,3.8,1.7,3.8,3.8s-1.7,3.8-3.8,3.8
		S379.4,241.5,379.4,239.4z M390.9,257.7v-36.4h67.7v36.4H390.9z"/>
</g>
</svg>
