<?xml version="1.0" encoding="utf-8"?>
<!-- Generator: Adobe Illustrator 18.1.1, SVG Export Plug-In . SVG Version: 6.00 Build 0)  -->
<svg version="1.1" id="Layer_1" xmlns="http://www.w3.org/2000/svg" xmlns:xlink="http://www.w3.org/1999/xlink" x="0px" y="0px"
	 viewBox="0 0 1280 800" enable-background="new 0 0 1280 800" xml:space="preserve">
<g>
	<path fill="#FFFFFF" d="M557,211.4c-1.4,0.6-3,1.1-4.6,1.3c1.7-1,2.9-2.6,3.5-4.4c-1.6,0.9-3.3,1.6-5.1,1.9
		c-1.5-1.6-3.6-2.5-5.9-2.5c-4.4,0-3.5,5.7-8,8c-0.6,0.3,0.1,1.2,0.2,1.8c-6.7-0.3-12.6-3.5-16.5-8.4c-0.7,1.2-1.1,2.6-1.1,4
		c0,2.8,1.4,5.2,3.6,6.7c-1.3,0-2.6-0.4-3.6-1c0,0,0,0.1,0,0.1c0,3.9,2.8,7.1,6.4,7.9c-0.7,0.2-1.4,0.3-2.1,0.3
		c-0.5,0-1-0.1-1.5-0.1c1,3.2,4,5.5,7.5,5.6c-2.7,2.2-6.2,3.4-10,3.4c-0.6,0-1.3,0-1.9-0.1c3.6,2.3,7.8,3.6,12.3,3.6
		c14.8,0,22.8-12.2,22.8-22.8c0-0.3,0-0.7,0-1C554.6,214.4,555.9,213,557,211.4L557,211.4z"/>
</g>
<g id="AtBf5a.tif_3_">
	<g>
		<path fill="#80604B" d="M556.2,221.3c-0.8-0.3-1.2-0.2-1.1,0.7c0,0.3-0.1,0.5-0.4,0.4c-0.1,0-0.3-0.3-0.3-0.4
			c-0.1-0.7-0.2-1.3-0.8-1.8c-0.3-0.3-0.3-0.6,0.1-0.8c1.1-0.6,0.6-1.2-0.1-1.6c-0.7-0.4-1-1-1.5-1.5c-0.3-0.2-0.4-0.4-0.2-0.8
			c0.4-0.9-0.3-2-1.4-2c-0.8,0-1.1-0.1-0.9-0.9c0.3-0.9-0.5-1.2-1.3-1.6c0.9-0.3,1.8-0.3,2.5-0.7c-0.3-0.6-0.9-0.6-1.4-0.8
			c-0.9-0.2-1.9-0.2-2.3-1.5c-0.3-0.8-1.5-0.7-2.3-0.9c-1-0.2-2-0.4-3.1-0.5c-0.4-0.1-0.7-0.3-0.9-0.7c-1.4,1.8-1.8,4-2.2,6.2
			c-0.2,1.1-0.4,2.3-1.2,3c-1.2,0.9-0.7,10.5-1.1,11.5c-0.2,0.4,0.1,0.9,0.6,1.2c0.5,0.2,0.7-0.1,0.9-0.4c0.3-0.5,0.3-8.2,0.8-8.2
			c3,0,0.5,7.9,1.6,8.2c1.1,0.3,0.9-5.7,2.2-5.4c0.2,0,0.4,0.1,0.6,0.2c-0.1,3-0.1,6.7-0.4,7.3c-0.2,0.4,0.1,0.9,0.6,1.2
			c0.5,0.2,0.7-0.1,0.9-0.4c0.3-0.4,0.3-5.2,0.6-7.3c0.1,0,0.1,0.1,0.2,0.1c0.2,0.2,0.5,0.4,0.8,0.5c0,1.8-0.1,3.2-0.2,3.6
			c-0.2,0.4,0.1,0.9,0.6,1.2c0.5,0.2,0.7-0.1,0.9-0.4c0.1-0.1,0.1-0.6,0.2-1.4c0,0,0,0,0,0c0.7,0.8,1.6,1.5,1.9,2.7
			c0.4-0.3,0.6-0.7,1.1-0.9c2-0.8,4-1.7,6.1-2.5c0.6-0.2,1.1-0.5,1-1.2c-0.6-0.2-1.4-0.1-1.9-0.5c-0.3-0.2-0.6-0.4-0.5-0.8
			c0.1-0.3,0.5-0.2,0.7-0.2c0.5,0,0.9-0.1,1.4-0.1c0.3-0.6,1.1-0.9,1.2-1.7C557.6,221.5,556.8,221.5,556.2,221.3z"/>
		<path fill="#C5C3A3" d="M558.3,221.6c-0.7-0.1-1.4-0.1-2.1-0.3c-0.8-0.3-1.2-0.2-1.1,0.7c0,0.3-0.1,0.5-0.4,0.4
			c-0.1,0-0.3-0.3-0.3-0.4c-0.1-0.7-0.2-1.3-0.8-1.8c-0.3-0.3-0.3-0.6,0.1-0.8c1.1-0.6,0.6-1.2-0.1-1.6c-0.7-0.4-1-1-1.5-1.5
			c-0.3-0.2-0.4-0.4-0.2-0.8c0.4-0.9-0.3-2-1.4-2c-0.8,0-1.1-0.1-0.9-0.9c0.3-0.9-0.5-1.2-1.3-1.6c0.9-0.3,1.8-0.3,2.5-0.7
			c-0.3-0.6-0.9-0.6-1.4-0.8c-0.9-0.2-1.9-0.2-2.3-1.5c-0.3-0.8-1.5-0.7-2.3-0.9c-1-0.2-2-0.4-3.1-0.5c-0.4-0.1-0.7-0.3-0.9-0.7
			c5.9-4.8,16.1-3.8,19.3,3.5c-0.2,0.7-1.4,2.6-1.1,2.7c0.6,0.5,0.6,1.1,0.1,1.4c-1.1,0.7-0.7,1.5-0.4,2.3c0.3,0.9,1,1.7,0.8,2.8
			c-0.5,0-0.9-0.2-1.4-0.3c-0.9-0.3-1.2,0.4-1.5,1c-0.3,0.6,0.4,0.7,0.8,0.8c0.3,0.1,0.6,0.3,0.8,0.5
			C558.3,221,558.8,221.3,558.3,221.6z M553.6,213.7c-0.4,0-0.8-0.1-0.9,0.4c-0.1,0.7,0.4,1,1,1c0.8,0.1,1.6-0.1,2.4,0.1
			c0.4,0.1,0.9,0.6,1.2-0.1c0.1-0.4,0.6-0.8,0.2-1.3c-0.4-0.6-1-0.6-1.5-0.4C555.1,213.7,554.4,214.2,553.6,213.7z"/>
		<path fill="#80604B" d="M558.2,220.7c-0.3-0.2-0.5-0.4-0.8-0.5c-0.4-0.2-1.1-0.2-0.8-0.8c0.2-0.6,0.6-1.3,1.5-1
			c0.4,0.2,0.9,0.3,1.4,0.3c0.1,0.5,0.1,0.8-0.5,1C558.4,219.8,558.2,220.2,558.2,220.7z"/>
		<path fill="#C5C3A3" d="M557.3,224.9c-0.6-0.2-1.4-0.1-1.9-0.5c-0.3-0.2-0.6-0.4-0.5-0.8c0.1-0.3,0.5-0.2,0.7-0.2
			c0.5,0,0.9-0.1,1.4-0.1C557,223.9,557.5,224.4,557.3,224.9z"/>
		<path fill="#242723" d="M539.1,213.8c-0.1-1.2,0.3-2,1.1-2.6c0.3-0.2,0.7-0.5,1,0c0.2,0.3,0.2,0.7-0.2,0.9
			C540.3,212.5,540.1,213.4,539.1,213.8z"/>
		<path fill="#C5C3A3" d="M545.8,213c-0.8,0.5-1.3,0.2-2.2-0.1C544.5,212.6,545.1,212.6,545.8,213z"/>
		<path fill="#80604B" d="M553.6,213.7c0.8,0.4,1.6,0,2.4-0.3c0.6-0.2,1.1-0.2,1.5,0.4c0.4,0.5-0.1,0.9-0.2,1.3
			c-0.3,0.7-0.8,0.3-1.2,0.1c-0.8-0.2-1.6,0-2.4-0.1c-0.6-0.1-1-0.4-1-1C552.7,213.7,553.2,213.8,553.6,213.7z"/>
	</g>
</g>
<g id="S00gTc.tif_3_">
	<g>
		<path fill="#FEFEFE" d="M553.1,210c0.1,0,0.2,0,0.2-0.1c1.1-0.3,2.3,0,3.4-0.2c1.9,0.2,3.8,0.6,5.8,0.3c1.3-0.2,1.1-0.8,0.5-1.4
			c-1.2-1.1-2.4-2.3-3.7-3.2c-3.7-2.4-7.8-3.3-12.2-3.2c-2,0-3.6,0.7-4.9,2.2c-2.1,1.7-3.1,4.1-3.7,6.7c-0.1,0.4,0,0.9-0.3,1.4
			c-0.7,1.4-1.4,2.8-1.9,4.2c-0.7,1.7-0.1,2.5,1.7,2.5c0.2,0,0.4,0.2,0.6,0.2c1.6,0.4,2.5-0.3,2.7-1.9c0.1-0.5,0-1,0-1.4
			c0.1-2,1.4-3,3.4-2.6c0.9,0.2,1.9,0.3,2.8,0.6c1.5,0.5,2.6,0.2,3.6-0.9C552.3,212.6,552,210.8,553.1,210L553.1,210z"/>
		<path fill="#A38136" d="M550.9,213.1c-1,1.1-2.1,1.5-3.6,0.9c-0.9-0.3-1.9-0.4-2.8-0.6c-1.9-0.4-3.2,0.6-3.4,2.6c0,0.5,0,1,0,1.4
			c-0.2,1.7-1.1,2.3-2.7,1.9c-0.2,0-0.4-0.2-0.6-0.2c-1.8,0-2.4-0.8-1.7-2.5c0.6-1.4,1.2-2.8,1.9-4.2c0.2-0.5,0.1-0.9,0.3-1.4
			c0.6-2.6,1.6-5,3.7-6.7c0.5,0.2,1,0,1.5,0.4c1.4,1.1,3.5,1.5,4.8,1.3c3.4-0.6,5.6,1.1,7.9,2.8c0.3,0.2,0.5,0.4,0.3,0.7
			c-1.1,0.1-2.3-0.1-3.4,0.2c-0.1-0.1-0.2-0.1-0.2,0.1l-0.1,0c-2.2-0.1-2.8,0.6-2.4,2.5C550.8,212.8,550.8,212.9,550.9,213.1z"/>
		<path fill="#EFD93C" d="M556.7,209.7c0.1-0.4,0-0.5-0.3-0.7c-2.4-1.7-4.5-3.4-7.9-2.8c-1.3,0.2-3.4-0.2-4.8-1.3
			c-0.5-0.4-1-0.2-1.5-0.4c1.3-1.4,2.9-2.1,4.9-2.2c4.4-0.1,8.5,0.8,12.2,3.2c1.4,0.9,2.6,2,3.7,3.2c0.6,0.6,0.8,1.2-0.5,1.4
			C560.5,210.3,558.6,209.9,556.7,209.7z"/>
		<path fill="#DCD48F" d="M550.9,213.1c-0.1-0.2-0.2-0.4-0.2-0.6c-0.5-1.9,0.2-2.6,2.4-2.5C552,210.8,552.3,212.6,550.9,213.1z"/>
		<path fill="#DCD48F" d="M553.1,210c0-0.2,0.1-0.2,0.2-0.1C553.3,210,553.2,210,553.1,210z"/>
	</g>
</g>
</svg>
