<?xml version="1.0" encoding="utf-8"?>
<!-- Generator: Adobe Illustrator 18.1.1, SVG Export Plug-In . SVG Version: 6.00 Build 0)  -->
<svg version="1.1" id="Layer_1" xmlns="http://www.w3.org/2000/svg" xmlns:xlink="http://www.w3.org/1999/xlink" x="0px" y="0px"
	 viewBox="324.3 182.1 20.6 25.6" enable-background="new 324.3 182.1 20.6 25.6" xml:space="preserve">
<path fill="#3B5998" d="M340.4,206.9h-13.2c-1.6,0-2.9-1.3-2.9-2.9v-13.2c0-1.6,1.3-2.9,2.9-2.9h13.2c1.6,0,2.9,1.3,2.9,2.9V204
	C343.4,205.6,342,206.9,340.4,206.9z"/>
<path fill="#FFFFFF" d="M334.1,207.7v-7h-2.5v-3.3h2.5c0,0,0-1.9,0-2.8c0-0.9,0.8-1.6,1.3-2.2c0.5-0.6,0.6-0.9,1.7-0.9s2.9,0,2.9,0
	l-0.4,2.4c0,0-0.6,0.5-1.4,0.5c-1.1,0-1.2,1.1-1.2,1.1v1.7h3.1l-0.6,3.2H337l0.1,7.2H334.1z"/>
<g>
	<g id="AtBf5a.tif_2_">
		<g>
			<path fill="#80604B" d="M334.4,188.9c0.4,0.1,0.5,0.3,0.2,0.6c-0.1,0.1-0.1,0.2,0,0.3c0.1,0.1,0.2,0,0.2-0.1
				c0.2-0.2,0.5-0.4,0.9-0.4c0.2,0,0.3-0.1,0.2-0.3c-0.2-0.6,0.2-0.6,0.6-0.6c0.4,0.1,0.7-0.1,1-0.1c0.2,0,0.2,0,0.3-0.2
				c0.1-0.5,0.7-0.6,1.1-0.3c0.2,0.2,0.4,0.3,0.6-0.1c0.2-0.4,0.6-0.2,0.9-0.2c-0.2-0.4-0.6-0.6-0.7-1.1c0.3-0.1,0.5,0.1,0.7,0.2
				c0.4,0.2,0.7,0.5,1.3,0.2c0.3-0.2,0.7,0.2,1.1,0.4c0.4,0.2,0.9,0.5,1.2,0.7c0.2,0.1,0.3,0.1,0.5,0.1c-0.1,1.1-0.6,2-1.2,2.9
				c-0.3,0.5-0.6,1-0.5,1.4c0.1,0.7-3.4,1.8-3.5,1.7c-1.1-0.9-3.6-0.5-3.6-0.5c-0.5,0.1-1.1,0.1-1.6,0.4c-0.1-0.2,0.1-0.4-0.1-0.7
				c-0.5-0.9-0.9-1.9-1.4-2.8c-0.1-0.2-0.2-0.5,0-0.7c0.3,0.1,0.5,0.4,0.8,0.4c0.1,0,0.3,0,0.4-0.1c0.1-0.2-0.1-0.2-0.2-0.3
				c-0.2-0.2-0.3-0.3-0.5-0.5c0.1-0.3-0.1-0.7,0.1-0.9C333.8,188.6,334.1,188.8,334.4,188.9z"/>
			<path fill="#C5C3A3" d="M333.5,188.4c0.3,0.2,0.6,0.4,0.9,0.6c0.4,0.1,0.5,0.3,0.2,0.6c-0.1,0.1-0.1,0.2,0,0.3
				c0.1,0.1,0.2,0,0.2-0.1c0.2-0.2,0.5-0.4,0.9-0.4c0.2,0,0.3-0.1,0.2-0.3c-0.2-0.6,0.2-0.6,0.6-0.6c0.4,0.1,0.7-0.1,1-0.1
				c0.2,0,0.2,0,0.3-0.2c0.1-0.5,0.7-0.6,1.1-0.3c0.2,0.2,0.4,0.3,0.6-0.1c0.2-0.4,0.6-0.2,0.9-0.2c-0.2-0.4-0.6-0.6-0.7-1.1
				c0.3-0.1,0.5,0.1,0.7,0.2c0.4,0.2,0.7,0.5,1.3,0.2c0.3-0.2,0.7,0.2,1.1,0.4c0.4,0.2,0.9,0.5,1.2,0.7c0.2,0.1,0.3,0.1,0.5,0.1
				c-0.6-3.6-4.5-6.4-7.9-4.7c-0.1,0.3-0.4,1.4-0.4,1.3c-0.4-0.1-0.6,0.2-0.5,0.5c0.2,0.6-0.2,0.7-0.6,1c-0.4,0.2-0.9,0.3-1.2,0.8
				c0.2,0.2,0.4,0.2,0.6,0.3c0.4,0.2,0.3,0.6,0.2,0.8c-0.1,0.3-0.4,0.1-0.6,0.1c-0.1-0.1-0.3-0.1-0.4-0.1
				C333.7,188.1,333.4,188.1,333.5,188.4z M337.7,187c0.1,0.1,0.3,0.2,0.2,0.4c-0.2,0.2-0.4,0.2-0.7,0.1c-0.3-0.2-0.6-0.6-0.9-0.7
				c-0.2-0.1-0.5-0.1-0.4-0.4c0.1-0.2,0.1-0.4,0.4-0.6c0.3-0.1,0.5,0.1,0.7,0.3C337.2,186.5,337.3,186.9,337.7,187z"/>
			<path fill="#80604B" d="M333.9,188.1c0.1,0,0.3,0,0.4,0.1c0.2,0.1,0.4,0.2,0.6-0.1c0.1-0.2,0.2-0.6-0.2-0.8
				c-0.2-0.1-0.4-0.1-0.6-0.3c-0.2,0.1-0.3,0.3-0.1,0.5C334.1,187.7,334,187.9,333.9,188.1z"/>
			<path fill="#C5C3A3" d="M332.8,189.9c0.3,0.1,0.5,0.4,0.8,0.4c0.1,0,0.3,0,0.4-0.1c0.1-0.2-0.1-0.2-0.2-0.3
				c-0.2-0.2-0.3-0.3-0.5-0.5C333.3,189.6,332.9,189.6,332.8,189.9z"/>
			<path fill="#242723" d="M342.8,191.5c0.4-0.4,0.5-0.8,0.4-1.3c0-0.2-0.1-0.4-0.3-0.3c-0.2,0.1-0.3,0.2-0.2,0.4
				C342.8,190.7,342.5,191,342.8,191.5z"/>
			<path fill="#C5C3A3" d="M340.6,189.1c0.1,0.4,0.4,0.5,0.8,0.7C341.2,189.4,341.1,189.2,340.6,189.1z"/>
			<path fill="#80604B" d="M337.7,187c-0.4-0.1-0.6-0.5-0.7-0.9c-0.1-0.2-0.3-0.4-0.7-0.3c-0.3,0.1-0.2,0.4-0.4,0.6
				c-0.1,0.3,0.2,0.4,0.4,0.4c0.4,0.2,0.6,0.5,0.9,0.7c0.2,0.1,0.5,0.2,0.7-0.1C338,187.3,337.8,187.1,337.7,187z"/>
		</g>
	</g>
	<g id="S00gTc.tif_2_">
		<g>
			<path fill="#FEFEFE" d="M339,185.8c-0.1,0-0.1-0.1-0.1-0.1c-0.3-0.4-0.8-0.7-1.1-1.1c-0.7-0.6-1.5-1-2.2-1.7
				c-0.4-0.5-0.1-0.6,0.2-0.7c0.7-0.1,1.5-0.1,2.3,0c2,0.2,3.8,1.2,5.3,2.6c0.7,0.6,1.1,1.4,1.1,2.3c0.2,1.3-0.2,2.5-0.8,3.6
				c-0.1,0.2-0.3,0.3-0.4,0.6c-0.2,0.7-0.4,1.4-0.7,2.1c-0.3,0.8-0.7,0.9-1.4,0.4c-0.1-0.1-0.2-0.1-0.2-0.1
				c-0.7-0.4-0.8-0.9-0.4-1.5c0.1-0.2,0.3-0.4,0.4-0.5c0.6-0.7,0.4-1.5-0.4-2c-0.4-0.2-0.7-0.5-1.2-0.7c-0.7-0.2-0.9-0.7-0.9-1.4
				C338.5,187,339.2,186.5,339,185.8L339,185.8z"/>
			<path fill="#A38136" d="M338.8,187.6c0,0.7,0.2,1.2,0.9,1.4c0.4,0.2,0.8,0.4,1.2,0.7c0.8,0.4,0.9,1.2,0.4,2
				c-0.1,0.2-0.3,0.3-0.4,0.5c-0.4,0.7-0.3,1.2,0.4,1.5c0.1,0.1,0.2,0.1,0.2,0.1c0.6,0.6,1.1,0.4,1.4-0.4c0.2-0.7,0.4-1.4,0.7-2.1
				c0.1-0.2,0.2-0.4,0.4-0.6c0.6-1.1,1.1-2.3,0.8-3.6c-0.2-0.1-0.4-0.3-0.7-0.3c-0.9-0.1-1.7-0.6-2.1-1c-1-1.2-2.3-1.3-3.7-1.4
				c-0.2,0-0.3,0-0.4,0.2c0.4,0.4,0.9,0.7,1.1,1.1c0.1,0,0.1,0,0.1,0.1v0.1c0.8,0.6,0.8,1.1,0,1.6
				C339,187.5,338.9,187.6,338.8,187.6z"/>
			<path fill="#EFD93C" d="M337.8,184.6c0.1-0.2,0.2-0.2,0.4-0.2c1.4,0.1,2.7,0.2,3.7,1.4c0.4,0.5,1.2,1,2.1,1
				c0.3,0,0.4,0.2,0.7,0.3c0-0.9-0.4-1.7-1.1-2.3c-1.5-1.4-3.2-2.4-5.3-2.6c-0.7-0.1-1.5-0.1-2.3,0c-0.4,0-0.7,0.2-0.2,0.7
				C336.4,183.6,337.2,184,337.8,184.6z"/>
			<path fill="#DCD48F" d="M338.8,187.6c0.1-0.1,0.2-0.1,0.2-0.1c0.8-0.6,0.7-1,0-1.6C339.2,186.5,338.5,187,338.8,187.6z"/>
			<path fill="#DCD48F" d="M339,185.8c0.1-0.1,0.1-0.1-0.1-0.1C339,185.7,339,185.8,339,185.8z"/>
		</g>
	</g>
</g>
</svg>
