<?xml version="1.0" encoding="utf-8"?>
<!-- Generator: Adobe Illustrator 18.1.1, SVG Export Plug-In . SVG Version: 6.00 Build 0)  -->
<svg version="1.1" id="Layer_1" xmlns="http://www.w3.org/2000/svg" xmlns:xlink="http://www.w3.org/1999/xlink" x="0px" y="0px"
	 viewBox="0 0 1280 800" enable-background="new 0 0 1280 800" xml:space="preserve">
<polygon fill="#FFFFFF" points="595,294.6 600.8,329.2 569.6,313.1 538.5,329.3 544.2,294.7 519.2,270.1 553.8,264.8 569.5,233.4 
	585.2,264.8 619.9,269.9 "/>
<polygon fill="#FFFFFF" points="576.5,27 581.8,58.6 553.3,43.9 524.9,58.7 530.1,27.1 507.3,4.7 538.9,-0.2 553.2,-28.8 
	567.6,-0.2 599.2,4.5 "/>
<polygon fill="#FFFFFF" points="718.6,445.5 722.3,467.6 702.4,457.3 682.6,467.7 686.2,445.6 670.3,429.9 692.4,426.6 702.3,406.6 
	712.4,426.5 734.5,429.8 "/>
<polygon fill="#FFFFFF" points="523,133.2 526.7,155.2 506.8,145 487,155.3 490.6,133.2 474.7,117.6 496.7,114.2 506.7,94.2 
	516.7,114.2 538.8,117.5 "/>
<polygon fill="#FFFFFF" points="673.4,555 677.1,577 657.2,566.8 637.4,577.1 641,555.1 625.1,539.4 647.2,536 657.1,516 667.2,536 
	689.3,539.3 "/>
<polygon fill="#FFFFFF" points="381.7,20.8 384.2,36 370.5,28.9 356.8,36 359.3,20.8 348.3,10 363.6,7.7 370.4,-6.2 377.4,7.6 
	392.6,9.9 "/>
<polygon fill="#FFFFFF" points="677.1,241.1 679.9,257.7 664.9,250 649.9,257.8 652.6,241.1 640.6,229.3 657.3,226.7 664.8,211.6 
	672.4,226.7 689.1,229.2 "/>
<polygon fill="#FFFFFF" points="569.1,627.1 571.9,643.8 556.9,636 542,643.8 544.7,627.2 532.6,615.4 549.3,612.8 556.8,597.7 
	564.4,612.8 581.1,615.3 "/>
</svg>
