<?xml version="1.0" encoding="utf-8"?>
<!-- Generator: Adobe Illustrator 18.1.1, SVG Export Plug-In . SVG Version: 6.00 Build 0)  -->
<svg version="1.1" id="Layer_1" xmlns="http://www.w3.org/2000/svg" xmlns:xlink="http://www.w3.org/1999/xlink" x="0px" y="0px"
	 viewBox="215.5 40.7 239 416.2" enable-background="new 215.5 40.7 239 416.2" xml:space="preserve">
<polygon fill="#FFFFFF" points="368.2,240.8 371.7,262.2 352.4,252.2 333.2,262.3 336.7,240.8 321.3,225.6 342.7,222.3 352.4,202.9 
	362.1,222.3 383.6,225.5 "/>
<polygon fill="#FFFFFF" points="356.7,75.2 360,94.8 342.4,85.7 324.8,94.8 328,75.3 313.9,61.4 333.4,58.4 342.3,40.7 351.2,58.4 
	370.8,61.3 "/>
<polygon fill="#FFFFFF" points="444.6,334.2 446.9,347.8 434.6,341.5 422.4,347.9 424.6,334.2 414.7,324.5 428.4,322.5 434.5,310.1 
	440.8,322.4 454.5,324.4 "/>
<polygon fill="#FFFFFF" points="323.6,140.9 325.9,154.5 313.6,148.2 301.3,154.6 303.6,140.9 293.7,131.3 307.3,129.2 313.5,116.8 
	319.7,129.2 333.4,131.2 "/>
<polygon fill="#FFFFFF" points="416.7,401.9 419,415.5 406.6,409.2 394.4,415.6 396.6,402 386.8,392.3 400.5,390.1 406.6,377.8 
	412.8,390.1 426.5,392.2 "/>
<polygon fill="#FFFFFF" points="236.2,71.4 237.7,80.8 229.2,76.4 220.8,80.8 222.3,71.4 215.5,64.7 225,63.3 229.2,54.7 
	233.5,63.2 242.9,64.6 "/>
<polygon fill="#FFFFFF" points="419,207.7 420.7,218 411.4,213.2 402.1,218 403.8,207.7 396.4,200.4 406.7,198.8 411.3,189.4 
	416,198.8 426.4,200.3 "/>
<polygon fill="#FFFFFF" points="352.1,446.5 353.9,456.9 344.6,452 335.4,456.9 337,446.6 329.5,439.3 339.9,437.7 344.5,428.3 
	349.2,437.7 359.6,439.2 "/>
</svg>
