<?xml version="1.0" encoding="utf-8"?>
<!-- Generator: Adobe Illustrator 18.1.1, SVG Export Plug-In . SVG Version: 6.00 Build 0)  -->
<svg version="1.1" id="Layer_1" xmlns="http://www.w3.org/2000/svg" xmlns:xlink="http://www.w3.org/1999/xlink" x="0px" y="0px"
	 viewBox="0 0 1280 800" enable-background="new 0 0 1280 800" xml:space="preserve">
<g>
	<g>
		<path fill="none" d="M612.8,352c-0.4,0.1-0.3,0.3-0.4,0.5c-0.1,0.2,0.1,0.3,0.3,0.4c0.6,0.1,2.3-1,2.6-1.6
			C614.6,351.7,613.7,351.8,612.8,352z"/>
		<path fill="none" d="M617.1,351.1c0.2-0.2,0.4-0.4,0-0.5c-0.4-0.2-1.5,0.3-1.7,0.7C616,351.3,616.6,351.6,617.1,351.1z"/>
		<path fill="none" d="M610.8,349.5c-0.3,0.1-0.6,0.3-0.8,0.6c-0.3,0.6-0.7,1.2-1,1.7c-0.1,0.2-0.2,0.5,0.1,0.7
			c0.3,0.2,0.4,0.2,0.7,0c0.5-0.3,0.7-0.8,0.8-1.3c0.3-0.9,1-1.3,1.8-1.6c0.2-0.1,0.8-0.2,0.7,0.3c-0.1,0.5,0.2,0.9,0.1,1.3
			c0.8-0.1,1-0.7,1.2-1.2c0.5,0.4,0.5,0.4,0.6,0.3c0.2-0.1,0.3-0.3,0.3-0.5c0-0.3-0.1-0.5-0.4-0.6c-0.1,0-0.2-0.1-0.3-0.1
			C613.3,349.1,612,349,610.8,349.5z"/>
		<polygon fill="none" points="629,387.5 629,387.5 629,387.5 		"/>
		<path fill="none" d="M622.7,379.3C622.6,379.3,622.6,379.3,622.7,379.3C622.6,379.3,622.6,379.3,622.7,379.3z"/>
		<path fill="none" d="M601.1,334.4c0.5,0.2,3-0.4,3-0.8c-0.2,0-0.5,0.2-0.7,0c0.1-0.1,0.2-0.3,0.3-0.4c-0.9,0-1.7,0.3-2.7,0.4
			c0.3,0.2,0.5,0.3,0.8,0.4C601.5,334.1,601.2,334.1,601.1,334.4z"/>
		<path fill="none" d="M629.3,329.4c-0.2,0-0.4-0.1-0.4,0.2c0,0.3,0.4,0.3,0.6,0.4c0.3,0.1,0.2-0.2,0.3-0.3
			C629.9,329.2,629.5,329.5,629.3,329.4z"/>
		<path fill="none" d="M610.2,348.4c0.1-0.1,0.3-0.1,0.3-0.1c0.5,0.8,1.2,0.1,1.8,0.4c0.4,0.2,0.8-0.3,0.7-0.7
			c-0.1-0.5-1-1.1-1.4-0.9c-0.6,0.3-1.2,0.2-1.8,0.5c-0.6,0.3-1.3,0.5-1.6,1.2c0,0,0.1,0.1,0.1,0.1
			C609,348.9,609.6,348.8,610.2,348.4z M611,347.9C611,347.9,611,347.9,611,347.9c0,0.1,0,0.1-0.1,0.1c0,0,0,0-0.1-0.1
			C610.9,347.9,610.9,347.9,611,347.9z"/>
		<path fill="none" d="M602.6,335.7c0,0-0.2,0-0.2,0.1c-0.3,0.6-0.9,0.6-1.3,0.9c1.7,0.3,3.2-1,4.9-1.1c-0.3,0-0.6,0-1,0
			C604.2,335.8,603.4,336.4,602.6,335.7z"/>
		<path fill="none" d="M602.1,339.4c0.7,0.1,1.2-0.4,1.9-0.4C603.3,338.9,602.7,338.8,602.1,339.4z"/>
		<path fill="none" d="M605.9,344.4c0.2,0.3,0.3,0.6,0.2,0.9l0.1,0.1c0.6-0.3,0.2-0.8,0.3-1.2c0.1-0.2,0-0.5-0.3-0.6
			c-0.1,0-0.2,0-0.3,0.1C605.7,343.9,605.7,344.2,605.9,344.4z"/>
		<path fill="none" d="M630.6,333.3c-0.5,0-0.3,0.5-0.4,0.7c0.2-0.2,0.8,0.1,0.8-0.5C631,333.5,630.8,333.3,630.6,333.3z"/>
		<path fill="#FFFFFF" d="M686.6,354C686.6,354,686.6,354,686.6,354c-0.1,0.2,0,0.3,0.1,0.3C686.6,354.3,686.6,354.1,686.6,354z"/>
		<path fill="#FFFFFF" d="M686.8,355.3c0-0.1,0-0.1,0-0.2c-0.1,0-0.1,0-0.2,0.1C686.7,355.3,686.8,355.3,686.8,355.3z"/>
		<polygon fill="#FFFFFF" points="676.9,341.2 676.9,341.2 676.9,341.2 		"/>
		<path fill="#FFFFFF" d="M670.6,345.3c-0.2,0.1-0.4,0-0.4,0.2c-0.2,0.6-0.7,0.8-1.1,1.1c-0.6,0.4-0.9-0.2-1.4-0.3
			c0.1,0.9,0.1,0.9-0.9,0.9c-0.3,0-0.5,0-0.6,0.2c-0.1,0.3,0.2,0.3,0.4,0.4c1.4,0.7,1.6,1.3,1.2,2.9c-0.1,0.4-0.2,0.6-0.7,0.6
			c-1.1,0-2.2-0.1-3.3-0.3c-0.9-0.1-1.2,0.2-1,1c0.1,0.3,0.2,0.5,0.1,0.8c-0.1,1-0.8,1.8-0.4,3c0.2,0.6,0.5,0.7,0.7,0.6
			c0.6-0.3,1,0.1,1.3,0.5c0.2,0.3,0.4,0.4,0.7,0.1c0.3-0.4,0.8-0.3,1.3-0.3c1.1,0.1,1.5-1,2.3-1.4c0,0,0-0.2,0-0.2
			c-0.4-0.4,0-0.7,0.1-0.9c0.3-0.7,0.9-0.9,1.5-1.2c0.3-0.2,0.8-0.3,0.5-0.9c-0.2-0.6,0.4-0.8,0.7-0.7c1.2,0.5,2-0.1,2.8-0.7
			c0.5-0.3,1-0.3,1.2,0.2c0.5,1.2,1.6,1.8,2.7,2.3c1.2,0.6,1.5,1.1,1.2,2.4c0.4-0.3,1-0.5,0.7-1.2c-0.1-0.2-0.3-0.4,0-0.6
			c0.2-0.2,0.4,0,0.7,0.1c0.2,0.1,0.2,0.4,0.5,0.3c0.1-0.2,0.1-0.4-0.1-0.5c-0.6-0.4-1.2-0.8-1.9-1.1c-1-0.5-1.4-1.5-2.2-2.1
			c-0.3-0.2-0.2-0.6,0.2-0.9c0.4-0.2,0.6-0.1,0.7,0.3c0,0.2,0.1,0.5,0.4,0.3c0.4-0.3,0.7,0.2,0.7,0.3c0,0.5,0.4,0.5,0.7,0.7
			c0.8,0.5,2,0.5,2.2,1.7c0.1,0.9,0.2,1.7,1.1,2.2c0.5,0.3,0.5,0.8,0.7,1.3c0.1,0.3,0.3,0.5,0.7,0.4c0.6-0.1,0.1-0.4,0.2-0.6
			c0.2-0.5-0.5-0.3-0.5-0.7c0.3,0.1,0.5,0.1,0.7,0.2c0.2,0.1,0.3,0.3,0.5-0.1c0.1-0.3,0.1-0.6-0.2-0.6c-1.2,0.1-0.5-0.9-0.9-1.1
			c0.4-0.3,0.5,0.4,0.8,0c0.4-0.6,0.8-0.9,1.5-0.4c0,0,0.1,0,0.1,0.1c-0.8-4.5-2.2-8.7-4.2-12.7c-0.1,0.1-0.1,0.3,0,0.5
			c0.1,0.7-0.7,1.8-1.3,1.5c-0.9-0.5-1.6,0.1-2.3,0.3c-0.2,0.1-0.4,0.2-0.6,0c-0.5-0.6-1-0.3-1.5-0.1c-0.5,0.2-0.7-0.3-0.9-0.6
			c-0.2-0.2-0.5-0.7-0.2-0.9c0.6-0.4,0.3-0.9,0.4-1.3c-1.3,0.8-1.3,0.8-1.1,2.3c0.1,0.7-0.3,1-0.9,0.9c-0.6,0-1.2,0.1-1.5,0.6
			C671.9,344.7,671.2,345,670.6,345.3z"/>
		<path fill="#FFFFFF" d="M674.4,336.3c-1.4,0.5-1.6,0.6-1.5,2c0.1,1.3,1,1.9,2,1.2c0.9-0.6,1.2-0.2,1.6,0.5
			c0.2,0.4,0.4,0.8,0.4,1.2c0.2,0.2,0.2,0.7,0.7,0.5c0.6-0.3,1.4-0.4,1.6-1.2c0.2-0.6,0.4-1.1,1-1.5c0.5-0.3,0.6-0.6,0-0.9
			c-0.5-0.2-1-0.7-0.5-1.2c0.1-0.1,0.3-0.3,0.4-0.4c-0.7-1.1-1.4-2.2-2.1-3.2c-0.3,0.3-0.5,0.7-0.8,1
			C676.4,335.2,675.4,335.9,674.4,336.3z"/>
		<path fill="#FFFFFF" d="M586,363.6c-0.3,0.1-0.1,0.2-0.1,0.3c0.2,0.3,0.4,0.6,0.7,0.8c0.3,0.1,0.7,0.4,0.5,0.8
			c-0.3,0.8,0.3,1.1,0.7,1.5l0.1-0.1c0-0.2,0-0.4-0.1-0.6c-0.2-1.5-0.8-2.9-1.4-4.3c-0.2-0.6-0.2-1.1,0.4-1.2
			c0.5-0.1,0.8,0.2,0.9,0.8c0.3,1.8,1.2,3.3,2.3,4.8c0.7,1,1.6,2,1,3.4c-0.2,0.4,0.1,0.5,0.3,0.7c1,1.2,2.4,1.7,3.7,2.2
			c0.9,0.3,1.9,1.8,2.9,0.1c0,0,0,0,0.1,0c0.6,0.3,1.5,0.5,1.8,1c0.4,0.9,1.1,1.1,1.8,1.4c0.9,0.4,2.1,0.2,2.5,1.5
			c0.1,0.3,0.6,0.5,0.4,1c0,0.1,0.1,0.4,0.2,0.5c1,0.7,1.9,1.5,3.1,1.9c0.3,0.1,0.6,0.3,0.6-0.3c0-0.6,0.6-0.6,1-0.6
			c0.3,0,0.8,0.2,0.7,0.4c-0.2,0.6,0.2,1,0.3,1.5c0.3,1.2,0.2,2.3-0.7,3.3c-0.7,0.8-1.4,1.7-1.8,2.7c-0.2,0.4-0.3,0.8,0.1,1
			c1.1,0.4,0.2,0.8,0,1.2c-0.3,0.6-0.5,1,0,1.7c0.5,0.7,1.2,1.3,1.5,2.1c0.2,0.6,0.3,1.2,0.7,1.7c0.7,1,1,2.4,2.6,2.5
			c-0.2,0.2-0.7-0.1-0.9,0.3c0.3,0.7,0.7,1.2,1.4,1.5c0.5,0.2,1,0.8,1.4,0.7c0.7-0.1,0.6,0.4,0.9,0.7c1.6,1.4,1.9,3.1,1.5,5
			c0,0.2-0.2,0.5-0.1,0.7c0.4,0.6,0.3,1.2,0.2,1.9c-0.1,0.5,0,1,0.1,1.5c0,0.2,0,0.4,0.1,0.5c4.3,1.7,8.8,2.9,13.6,3.4
			c1-1.5,1.8-3,2.4-4.7c0.2-0.5,0.2-0.9,0-1.4c-0.2-0.4-0.1-0.7,0.2-0.9c0.3-0.2,0.6-0.6,0.9-0.7c0.8-0.2,1.4-1.1,2.1-0.9
			c1,0.2,1.5-0.3,1.8-1c0.8-1.9,1.5-3.9,1.1-6.1c-0.1-0.4-0.1-0.8,0.2-1.1c0.9-0.8,1.1-1.9,1.9-2.7c0.6-0.5,0.7-1.2,0.8-1.8
			c0.2-0.8-0.3-1.5-1.1-1.7c-0.7-0.2-1.5-0.5-1.9-1.1c-0.4-0.5-0.9-0.8-1.5-0.8c-1,0-2-0.7-2.9,0.2c-0.1-1.3-1.1-2-2.3-1.6
			c-0.2,0.1-0.5,0.2-0.5,0c-0.2-1.1-1-0.9-2-0.7c1.1-1.2,0.2-2.1,0-3c-0.3-1-2-2-2.8-1.8c-1.1,0.3-2-0.2-2.6-1
			c-0.8-1.1-1.8-1.8-2.9-2.3c-0.6-0.3-0.6-0.5,0.1-0.8c-1.1,0.3-2.1,0.7-3-0.1c-1.3,0.7-1.6-0.9-2.7-0.8c0,0,0.1,0.4-0.2,0.5
			c-0.5,0.2-0.9,0.4-0.3,1c0.2,0.2,0,0.5-0.2,0.7c-0.1,0.1-0.2,0.3-0.4,0.1c-0.1-0.1-0.3-0.5-0.3-0.5c0.5-0.6,0-1.4,0.6-1.9
			c-0.4-0.2-0.7,0-0.9,0.3c-0.2,0.2-0.3,0.5-0.5,0.5c-1.1,0-1.5,0.8-2,1.6c-0.3,0.5-0.8,1-1.5,0.3c-0.6-0.6-1.2-0.4-1.9-0.2
			c-1.2,0.4-2.6-0.6-2.4-1.9c0.1-0.9,0.3-1.7,0.4-2.6c0.1-0.5-0.1-0.7-0.6-1c-0.8-0.4-1.5,0.3-2.3,0.1c-0.8-0.2-0.8-0.3-0.5-1
			c0.5-1,0.9-2,1.3-3c0.2-0.4,0.1-0.6-0.3-0.7c-0.7-0.2-1.9,0.3-2,1c-0.2,1-1.4,1-1.7,1.8c-0.1,0.1-0.1-0.1-0.1-0.2
			c-0.4-0.3-1.7,0-1.9,0.4c-0.1-0.6-0.1-0.6-0.3-0.8c-1.1-1.5-1.5-3.1-0.7-4.9c0.3-0.6,0.4-1.2,0.5-1.8c0.1-0.5,0.4-1,1-1.2
			c0.4-0.1,0.7-0.3,1-0.5c1-0.8,1.9-1.2,3.1-0.4c0.4,0.3,1,0.4,1.4-0.4c0.2-0.5,0.9-0.7,1.6-0.5c0.6,0.2,1.2,0.7,2,0.4
			c0.4-0.1,1.1,0.8,0.9,1.3c-0.3,0.8,0.2,1.5,0.4,2.2c0.2,0.4,0.5,0.4,0.7,0c0.5-0.9,0.1-1.7,0-2.6c-0.1-0.8-0.1-1.5,0.4-2.1
			c0.8-0.9,1.7-1.5,2.7-2c1.1-0.6,2.1-1.1,2-2.6c0-0.3-0.1-0.7,0.3-1c-0.1,0.4-0.2,0.6,0,0.9l0.1,0.1c0.6-0.2,0.7-0.7,0.7-1.2
			c0.8,0.7,1.2-0.2,1.3-0.5c0.2-0.9,1-0.9,1.7-1.1c-0.2-0.1-0.4-0.1-0.6-0.2c0.5-0.1,1-0.3,1.5-0.3c0.2,0,0.6,0,0.4-0.3
			c-0.3-0.6,0.1-1,0.4-1.2c1.5-0.7,2.8-1.6,4.5-1.8c0.3,0,0.4,0.1,0.6,0.3c-0.6,0-1.1,0-1.5,0.4c-0.2,0.2-0.6,0.5-0.3,0.8
			c0.3,0.3,0.6,0.3,0.9,0c0.9-0.9,2.1-1,3.2-1.5c0.6-0.3,0.8-0.4,0.4-0.9l-0.1-0.1c-0.4,0.1-0.6,0.4-0.9,0.6
			c-0.7,0.5-1.8,0.2-1.9-0.6c0-0.2-0.6-1.2,0.5-0.9c0.3,0.1,0.6-0.1,0.7-0.4c0-0.3-0.3-0.4-0.6-0.4c-0.8-0.1-1.4,0.1-2.1,0.5
			c-0.4,0.2-1,0.7-1.2,0.4c-0.3-0.6,0.6-0.6,1-0.8c1.2-0.6,2.4-1.3,3.8-1.1c1.9,0.3,3.6-0.5,5.2-1.4c0.4-0.2,0.7-0.6,0.5-1.1
			c-0.3-0.5-0.7-0.8-1.3-0.4c-0.3,0.2-0.6,0.5-1.1,0.2c0.5-0.3,1.1-0.2,1.4-0.7c-0.7-0.4-1.4-0.8-1.3-1.6c0.1-0.7-0.2-1.3-0.1-1.9
			c0-0.4-0.3-0.5-0.6-0.2c-0.5,0.4-1,0.7-1.5,1c-0.3,0.2-0.6,0.3-0.9-0.1c-0.3-0.3-0.5-0.6-0.2-1c0.3-0.4,0.1-0.7-0.3-1
			c-0.3-0.2-0.6-0.4-1-0.6c-1.6-0.7-2.4-0.4-3.2,1.1c-0.2,0.3-0.4,0.6-0.7,0.8c-0.4,0.2-0.6,0.5-0.4,1c0.2,0.4,0,0.7-0.2,1
			c-0.4,0.7-1.1,1-1.7,1.3c-0.6,0.3-1.3,0.5-1.2,1.4c0,0.3-0.2,0.6-0.3,0.8c-0.3,0.4-0.7,0.7-1.2,0.6c-0.5,0-0.6-0.6-0.7-1
			c-0.1-0.5,0.2-1,0.6-1.3c0.3-0.2,0.3-0.5-0.1-0.6c-1.4-0.1-2.4-1.3-3.8-1.4c-0.9-0.1-0.9-1-1.3-1.5c-0.2-0.2,0.3-0.9,0.8-1.2
			c0.9-0.5,1.6-1.1,2.6-1.5c0.4-0.1,1.1-0.1,1-0.9c0-0.1,0.2-0.2,0.4-0.2c0.9,0.2,1.7-0.3,2.6-0.4c0-0.4-0.7-0.6-0.4-0.9
			c0.3-0.3,0.7,0.1,0.9,0.4c0.2,0.3,0.4,0,0.6-0.1c0.6-0.2,1.1-0.7,1.8-0.7c0.9,0.1,1.6-0.2,2.1-1c0.2-0.3,0.9-0.5,0.4-0.9
			c-0.4-0.4-1-0.4-1.6,0c-0.1,0.1-0.2,0.2-0.3,0.3c-0.3,0.4-0.8,0.7-1.3,0.9c-0.2,0.1-0.4,0.3-0.6,0.1c-0.3-0.3,0-0.5,0.1-0.6
			c0.3-0.4,0.2-0.6-0.2-0.6c-0.9,0.1-0.9-0.4-0.7-1c0.1-0.2,0.2-0.4,0-0.6c-0.2-0.2-0.4-0.1-0.6,0c-0.5,0.3-1,0.5-1.5,0.8
			c0.2,0.3,0.7,0.3,0.5,0.8c-0.1,0.4-0.5,0.6-0.9,0.7c-0.3,0-0.5,0.1-0.7,0.3c-0.5,0.4-1.1,0.7-1.6,0.1c-0.2-0.2-0.5-0.2-0.7-0.1
			c-0.8,0.3-1.4,0-2.2-0.2c-1-0.2-2-0.1-2.7,0.8c-0.3,0.3-0.5,0.4-0.7-0.1c-0.2-0.6-0.6-0.8-1.2-0.5c-0.3,0.1-0.6,0.1-0.9,0
			c-0.3,0-0.6,0.1-0.8-0.1c-0.3-0.4,0.5-0.3,0.2-0.7c-1.5,0.1-2.8-1-4.4-0.4c-0.1,0-0.2,0-0.3-0.1c-0.9-0.6-1.9-0.2-2.9-0.1
			c-1.3,0.2-2.6,0.7-4,0.5c-3.1,4.1-5.6,8.7-7.4,13.7c0.2,0.2,0.4,0.5,0.6,0.7c0.2,0.2,0.1,0.7-0.2,1c-0.3,0.3-0.5-0.1-0.7-0.1
			c-0.1,0-0.2,0-0.2-0.1c-1.3,4-2.1,8.1-2.3,12.5c0,0.2,0.1,0.4,0,0.5c0,0.1,0,0.2-0.1,0.3c0,0.2,0,0.4,0,0.6
			c0.1,0.6,0.4,1.1,0.7,1.7C586.3,363.2,586.5,363.5,586,363.6z M631.6,387.8c-0.3,0.2-0.6,0.1-0.9,0
			C631,387.6,631.3,387.7,631.6,387.8z M629.7,386.7c0.1,0,0.2,0,0.1,0.2c0,0-0.1,0.1-0.2,0.1c0-0.1-0.1-0.1-0.1-0.2
			C629.6,386.7,629.7,386.7,629.7,386.7z M629,387.5c0.1,0,0.1,0.1,0,0.2C629.1,387.6,629,387.6,629,387.5L629,387.5L629,387.5
			L629,387.5c-0.1,0-0.1,0-0.2,0C629,387.3,629,387.4,629,387.5z M622.6,379.3C622.6,379.3,622.6,379.3,622.6,379.3
			C622.7,379.3,622.7,379.4,622.6,379.3c0,0.1,0,0.1-0.1,0.1c0,0,0,0-0.1-0.1C622.5,379.3,622.6,379.3,622.6,379.3z M612.8,352.8
			c-0.2,0-0.5-0.1-0.3-0.4c0.1-0.1,0-0.4,0.4-0.5c0.9-0.2,1.8-0.3,2.6-0.8C615.1,351.9,613.4,352.9,612.8,352.8z M612.5,350.8
			C612.5,350.7,612.5,350.7,612.5,350.8c0.1,0,0.2,0,0.2,0c0,0,0,0-0.1,0.1C612.6,350.8,612.5,350.8,612.5,350.8z M617.1,350.5
			c0.4,0.2,0.2,0.4,0,0.5c-0.5,0.5-1.1,0.2-1.6,0.1C615.6,350.8,616.7,350.4,617.1,350.5z M614.6,349.2c0.1,0,0.2,0,0.3,0.1
			c0.3,0.1,0.4,0.4,0.4,0.6c0,0.2-0.1,0.4-0.3,0.5c-0.2,0.1-0.2,0.1-0.6-0.3c-0.3,0.5-0.5,1.1-1.2,1.2c0-0.4-0.2-0.8-0.1-1.3
			c0.1-0.6-0.4-0.4-0.7-0.3c-0.8,0.3-1.5,0.7-1.8,1.6c-0.2,0.5-0.3,1-0.8,1.3c-0.3,0.2-0.4,0.2-0.7,0c-0.2-0.2-0.2-0.4-0.1-0.7
			c0.3-0.6,0.7-1.2,1-1.7c0.2-0.3,0.4-0.5,0.8-0.6C612,349,613.3,349.1,614.6,349.2z M608.2,348.7L608.2,348.7
			c0.3-0.7,1-0.9,1.6-1.2c0.6-0.3,1.2-0.2,1.8-0.5c0.4-0.2,1.3,0.4,1.4,0.9c0.1,0.5-0.3,0.9-0.7,0.7c-0.6-0.3-1.4,0.4-1.8-0.4
			c0,0-0.2,0-0.3,0.1C609.6,348.8,609,348.9,608.2,348.7c0,0.2-0.2,0.2-0.3,0.2c0,0,0,0-0.1-0.1C608,348.8,608.1,348.7,608.2,348.7z
			 M602.1,339.4c0.6-0.6,1.2-0.5,1.9-0.4C603.3,339,602.8,339.5,602.1,339.4z M606.5,344.2c-0.1,0.4,0.3,0.9-0.3,1.2
			c0,0.1,0,0.3-0.2,0.2c-0.1,0-0.1-0.1,0-0.1c0,0,0.1-0.1,0.1-0.1l0,0c0-0.3,0-0.6-0.2-0.9c-0.2-0.2-0.2-0.5,0-0.7
			c0.1-0.1,0.2-0.1,0.3-0.1C606.5,343.7,606.5,344,606.5,344.2z M606,335.7c-1.7,0.1-3.1,1.3-4.9,1.1c0.4-0.3,1.1-0.4,1.3-0.9
			c0-0.1,0.2-0.1,0.2-0.1c0.8,0.6,1.6,0,2.4-0.1C605.3,335.6,605.6,335.7,606,335.7z M603.7,333.2c-0.1,0.2-0.2,0.3-0.3,0.4
			c0.2,0.2,0.5,0.1,0.7,0c0,0.4-2.5,1-3,0.8c0.1-0.3,0.4-0.3,0.7-0.4c-0.3-0.1-0.5-0.2-0.8-0.4C602,333.5,602.8,333.1,603.7,333.2z
			 M588,348c0,0,0.1,0,0.1,0.1c0,0,0,0-0.1,0.1C588.1,348.1,588,348.1,588,348C588,348.1,588,348,588,348z"/>
		<path fill="#FFFFFF" d="M687.3,361c-1-0.2-2.1-0.6-3-1.1c-1-0.5-1.6-0.1-1.5,1c0,0.5-0.7,1.1-1.1,0.9c-0.9-0.5-2.2-0.3-2.7-1.6
			c-0.1-0.1-0.4-0.2-0.5-0.2c-0.5-0.1-1-0.2-1.5-0.4c-0.8-0.2-1-0.8-0.7-1.5c0.1-0.2,0.1-0.4,0-0.5c-0.5-0.3-0.2-0.7,0-1l-0.1-0.1
			c-0.5-0.4-1.1-0.4-1.7,0c-0.2,0.1-0.4,0.2-0.6,0.2c-0.9-0.3-1,0.1-1,0.9c-0.3-0.3-0.1-1-0.3-0.9c-0.7,0.2-1.3-0.2-2,0
			c-1,0.3-2,0.6-2.8,1.2c-0.9,0.6-1.9,0.5-2.6-0.3c-0.4-0.4-0.6,0-0.7,0.1c-0.4,0.9-1.2,1.3-1.9,1.9c-0.7,0.5-1.2,1.2-1.1,2.2
			c0,0.3-0.1,0.4-0.2,0.5c-0.6,0.6-1.1,1.3-2,1.5c-0.2,0-0.3,0.2-0.4,0.4c-0.9,1.2-1.4,2.6-2.4,3.8c-0.4,0.6-0.5,1.2-0.2,2
			c0.6,1.2,0.5,2.5-0.3,3.5c-0.5,0.6-0.2,0.9,0,1.4c0.2,0.5-0.4,1,0.1,1.5c0.1,0.1,0.2,0.3,0.3,0.3c1.1,0.4,1.5,1.4,1.9,2.2
			c0.4,0.9,1,1.6,1.7,2.3c1.1,1.1,2.3,1.8,3.9,1.1c0.7-0.3,1.4-0.6,2.2,0c0.2,0.1,0.5-0.1,0.8-0.1c1.2-0.3,2.2-0.9,3.4-1.1
			c0.8-0.1,1.9,0.3,2.1,1.1c0.1,0.6,0.3,0.6,0.8,0.5c1.2-0.3,2.2,0.5,2.3,1.8c0,0.7-0.1,1.3-0.3,1.9c-0.3,1-0.1,1.8,0.7,2.4
			c1.4,1,1.3,2.7,2.2,4c6-8.4,9.6-18.6,9.6-29.7C687.4,362.2,687.4,361.6,687.3,361z M672.1,359.2c0.7,0.3,1.4-0.1,2.1,0.2
			C673.5,359.4,672.8,359.6,672.1,359.2z"/>
		<polygon fill="#FFFFFF" points="642.8,331.6 642.8,331.6 642.8,331.6 		"/>
		<path fill="#FFFFFF" d="M640.6,336.4c0.3,0.9,1.1,1.1,1.8,1.5c0.8,0.4,1.4,0.1,1.9-0.5c0.3-0.3,0.5-0.7,0.7-1.1
			c0.8-1.2,1.8-2.1,3.3-2.2c0.9-0.1,1.8-0.4,2.6-1.1c0.5-0.4,1.2-1,1.9-0.8c1.6,0.3,2.9-0.5,4.4-0.6c-0.3-0.7-0.8-0.4-1.5-0.4
			c0.3-0.2,0.5-0.3,0.5-0.4c0.1-0.7,0.4-0.7,0.9-0.2c0.3,0.3,0.7,0.2,1.1,0c-0.3-0.6-1-0.7-1.5-1.1c-0.1-0.1-0.3-0.2-0.3-0.4
			c0-0.2,0.2-0.2,0.4-0.2c2,0,3.2-0.9,3.7-3c0-0.1,0.1-0.2,0.2-0.3c0.5-0.4,0.9-0.8,1.6-0.9c0.7-0.1,1.5-0.1,2-0.6
			c-0.8-0.3-1.6-0.3-2.5,0c-0.2,0.1-0.3,0.2-0.4-0.1c-0.1-0.3-0.1-0.5,0.4-0.6c-1.8-0.2-3.4-0.4-5-0.4c-1.7,0-3.3,0-5,0
			c-0.9,0-1.8,0.2-2.7,0.5c-0.1,0-0.1,0.2-0.3,0.1c-1.3-0.5-2.7,0-4-0.4c-1.8-0.5-3.5,0.6-5.3,1.3c0.5,0.1,0.7,0.1,0.9,0.1
			c-0.2,0.6-0.7,0.8-1.3,0.8c-0.9,0.1-1.7,0.3-2.6,0.3c-0.4,0-0.3,0.2-0.4,0.5c-0.1,0.3,0,0.5,0.3,0.5c0.5,0.1,1.1,0.4,1.6,0.2
			c1.8-0.4,2.8,0.1,3.5,1.8c0.1,0.3,0.1,0.5,0,0.8c-0.1,0.2-0.6,0.4-0.4,0.7c0.2,0.3,0.7,0.2,0.9-0.2c0.1-0.2,0.3-0.1,0.3,0
			c0,0.4,0.5,0.8,0.1,1.2c0,0,0,0,0,0c-0.1,0.6-0.5,0.9-1.1,0.9c-0.6,0-0.9,0.3-1.1,1c-0.2,0.7,0.5,1.2,0.1,1.8
			C640.4,335.6,640.5,336,640.6,336.4z"/>
		<path fill="#FFFFFF" d="M634.6,334c0.3-0.7-0.3-0.7-0.6-0.9c-0.5-0.2-0.9-0.6-0.8-1.1c0.2-0.7-0.2-0.9-0.7-0.9
			c-0.8-0.1-1.3-0.5-1.7-1.1c-0.2-0.3-0.3-0.9-0.8-0.8c-1.4,0.1-3-0.4-4.2,1c-0.1,0.1-0.2,0.3-0.4,0.1c-0.2-0.2,0-0.3,0.1-0.5
			c0.2-0.2,0.5-0.4,0.6-0.8c-1.1-0.1-1.9,0.6-2.6,1.3c-0.3,0.3-0.3,0.6,0.2,0.9c0.3,0.1,0.7,0.3,1,0.1c0.4-0.2,0.8-0.1,1.3,0
			c0.6,0.2,1.3,0.3,1.9-0.1c0.6-0.4,0.9,0.3,1.3,0.5c0.4,0.2-0.4,0.3-0.1,0.6c0.6-0.4,0.6,0.2,0.9,0.4c0.3,0.3,0.2,0.7,0,0.8
			c-0.8,0.4-1.4,1.3-2.5,1.3c-0.6,0-1.3-0.2-1.9,0.4c0.3,0.4,0.7,0.2,1,0.1c0.9-0.3,1.5-0.2,2,0.7c0.5,0.9,1.8,1.3,2.6,0.9
			c-0.1-0.1-0.3-0.2-0.4-0.3c-0.1-0.2-0.6-0.2-0.4-0.5c0.2-0.3,0.5-0.2,0.8,0c0.1,0.1,0.2,0.1,0.3,0.2c0.7,0.4,0.8-0.1,0.8-0.5
			c0-0.2-0.2-0.4-0.2-0.6c-0.1-0.2-0.3-0.4,0-0.6c0.2-0.1,0.4-0.3,0.7-0.1c0.2,0.1,0.4,0.2,0.6,0.3
			C633.8,334.7,634.2,334.6,634.6,334z M629.7,329.7c0,0.1,0.1,0.4-0.3,0.3c-0.2-0.1-0.6-0.1-0.6-0.4c0-0.2,0.2-0.2,0.4-0.2
			C629.5,329.5,629.9,329.2,629.7,329.7z M630.2,334c0.1-0.3-0.1-0.8,0.4-0.7c0.1,0,0.4,0.2,0.4,0.3
			C631,334.1,630.5,333.8,630.2,334z"/>
		<path fill="#FFFFFF" d="M630.3,324.2c-0.5,0-0.1,0.3-0.2,0.5c0.5,0,1.1,0.1,1.6,0.1c-0.4,0.1-0.8,0.3-1.2,0.5
			c-0.4,0.2-0.5-0.1-0.4-0.5c-1.3-0.7-2.5-0.3-3.7,0.4c0.6,1,1.3,1.3,2,0.8c0.7-0.5,1.1,0.1,1.6,0.4c-0.5,0.5-0.7-0.4-1-0.1
			c-0.6,0.5-1.3,0.2-1.9,0.3c-0.2,0-0.5-0.1-0.7,0.2c1.5,0.3,3.1,0,4.6,0.6c0.1,0,0.3,0.1,0.3,0c1-0.9,2.4-0.8,3.4-1.6
			c0.5-0.3,1-0.4,1.6-0.5c1.9-0.2,3.7-0.9,5.4-1.9c-2.8-0.2-5.6-0.5-8.4,0.3C632.3,323.9,631.3,324.3,630.3,324.2z M631,325.8
			c0,0-0.1,0-0.1-0.1c0,0,0-0.1,0.1-0.1C631,325.7,631,325.7,631,325.8C631,325.8,631,325.8,631,325.8z"/>
		<path fill="#FFFFFF" d="M626.3,326.7C626.3,326.7,626.3,326.7,626.3,326.7C626.3,326.7,626.3,326.7,626.3,326.7L626.3,326.7z"/>
		<path fill="#FFFFFF" d="M607.8,331.4c-0.1,0-0.3,0-0.4,0.2c0,0.2,0.1,0.3,0.2,0.3c1.1,0.5,2.2,0.7,3.4,0.4c0.7-0.2,1.2-0.7,2-0.3
			c1,0.5,1.8-0.1,2.6-0.6c-0.2-0.5-1.3-0.3-0.6-1.2c0.2-0.2,0.5-0.5,0.2-0.8c-0.3-0.3-0.6,0.1-0.9,0.3c-0.1,0.1-0.2,0.2-0.3,0.3
			c-0.3,0.3-0.5,0.3-0.6-0.2c0-0.2-0.2-0.5-0.5-0.2c-0.5,0.4-1,0.2-1.5,0c-0.4-0.1-0.8-0.3-1.3-0.3c0,0-0.1,0-0.1-0.1
			c0.1-0.2,0.5,0,0.6-0.2c-2.3-1.3-4,0-5.9,1.2c0.2,0.2,0.4,0.4,0.6,0.4c0.9,0,1.6-0.7,2.6-0.8c-0.7,1.2,0.4,0.5,0.7,0.7
			c-0.2,0.4-0.7,0.1-1,0.5c0.4,0.2,0.7,0.1,1.1,0.1c0.4,0,0.8-0.1,1.1,0.4C609.2,331.4,608.5,331.4,607.8,331.4z"/>
		<path fill="#FFFFFF" d="M669.3,345.5c0.2,0,0.5-0.1,0.5-0.1c-0.7-0.6,0.3-0.7,0.3-1c0-0.3-0.2-0.4-0.5-0.4c-0.2,0-0.5,0.2-0.5-0.1
			c0.1-1.1-1-1.5-1.5-2.2c-0.2-0.2-0.4-0.3-0.1-0.6c0.7-0.5-0.8-0.4-0.3-0.9c-0.2-0.2-0.5-0.1-0.7,0c-0.7,0.3-0.9,0.8-0.6,1.6
			c0.1,0.2,0,0.3,0,0.4c-0.1,0.3,0.2,0.4,0.3,0.3c0.6-0.3,0.6,0.3,0.9,0.5c0.4,0.4,0.2,0.7-0.3,0.8c-0.4,0-0.6,0-0.4,0.5
			c0.1,0.2-0.3,0.3-0.3,0.5c0.4,0.2,0.8,0.1,1,0.5c-0.6,0.1-1,0.3-1.6,0.8C667,345.7,668.1,345.2,669.3,345.5z"/>
		<path fill="#FFFFFF" d="M657.4,335.4c0.5-0.1,0.8,0.6,1.3,0.6c0.6,0,2.3-0.7,2.8-1c0.5-0.3,0.3-0.4,0.1-0.7
			c-0.4-0.4-0.7-0.6-1.2-0.2c-0.2,0.2-0.5,0.3-0.9,0.1c-0.3-0.1-0.8-0.1-1.1,0.1c-0.3,0.2-0.6,0.2-0.7-0.3c0-0.2-0.2-0.4-0.3-0.3
			c-0.2,0-0.3,0.2-0.5,0.3c0.1,0.2,0.4,0.3,0,0.5C657.4,334.4,656.6,335.5,657.4,335.4z"/>
		<path fill="#FFFFFF" d="M633.4,348.7c0.5,0.3,0.6,0,0.7-0.3c0.3-0.6-0.1-1.4-0.6-1.7c-0.7-0.3-0.7-0.3-0.7-0.9
			c-0.1,0.1-0.2,0.2-0.2,0.1c-0.1-0.1,0.1-0.1,0.2-0.2c0-0.4,0.6-0.5,0.5-1.2c-1.2,1-2,2.2-3.2,3.1c0.4,0,0.6,0,0.8,0
			c0.5,0.3,1.3-0.1,1.7,0.5l0,0c0,0,0,0,0,0C632.9,348.3,633.2,348.6,633.4,348.7z M633.2,347.9C633.2,347.9,633.3,348,633.2,347.9
			c0,0.1,0,0.2,0,0.2c0,0-0.1,0-0.1-0.1C633.1,348,633.2,348,633.2,347.9z"/>
		<path fill="#FFFFFF" d="M613.8,369.8c-1.8-0.6-3.1-2.1-5.1-2.1c-0.9,0-1.9-0.1-2.3,1c0.2,0.1,0.3,0,0.4-0.1
			c0.9-0.6,1.7-0.5,2.7-0.2c0.5,0.2,0.7,0.7,1.1,0.8c0.8,0,0.6,0.4,0.3,0.9C611.9,369.6,612.9,370.5,613.8,369.8z"/>
		<path fill="#FFFFFF" d="M624,326.7c0.2,0.1,0.2,0.2,0.3,0.2c0.5,0.1,1.2,0,0.3,0.7c-0.1,0.1-0.3,0.3-0.1,0.5
			c0.1,0.2,0.3,0.1,0.5,0.1c1.1,0,2.2,0.1,3.3,0.2c0.8,0.1,1.4-0.1,2.1-0.5c-0.9-0.4-1.8-0.4-2.6-0.2c-0.9,0.2-1.5-0.3-2.2-0.6
			c0.2-0.2,0.6-0.1,0.7-0.3C625.6,326.9,624.8,326.3,624,326.7z"/>
		<path fill="#FFFFFF" d="M626.3,326.7L626.3,326.7C626.3,326.7,626.3,326.7,626.3,326.7C626.3,326.7,626.3,326.7,626.3,326.7z"/>
		<path fill="#FFFFFF" d="M617.1,328.1c0.1-0.4-0.3-0.2-0.5-0.3c-0.1,0-0.2-0.1-0.2-0.1c-0.5-0.5-0.5-0.5-0.9,0
			c-0.4,0.4-0.8,0.5-1.2,0c-0.2-0.2-0.4-0.2-0.6-0.4c0.2-0.3,0.6-0.2,0.9-0.4c-1.2-0.1-2.2,0.1-3.2,0.4c0.4,0.2,0.8,0.3,1.2,0.3
			c0.1-0.2,0.2-0.2,0.4-0.1c0,0,0,0,0.1,0.1c-0.1,0-0.3,0.1-0.4,0.1c0,0.3-0.3,0.4-0.4,0.6c0.7,0.4,1.4,0.3,2.2,0.1
			c0.7-0.2,1.4,0.2,2.1,0.2C616.8,328.5,617.1,328.3,617.1,328.1z"/>
		<path fill="#FFFFFF" d="M664.8,342.1c-0.7-0.1-1.1,0.7-1.7,0.8c0.4,0.6-0.3,1.1-0.2,1.7c0.1,0.3,0.2,0.4,0.5,0.2
			c0.7-0.4,1.9-0.3,1.8-1.7c0-0.1,0.1-0.2,0.1-0.2C665.9,342.2,665.5,342.1,664.8,342.1z"/>
		<path fill="#FFFFFF" d="M615.6,371.7c0.3,0.3,1.4-0.3,2.1-0.5c-0.9-1.3-2.2-0.7-3.3-1c0.1,0.3,0.5,0.5,0.3,0.8
			c-0.3,0.5-0.9,0.1-1.4,0.3C614,372,614.9,371,615.6,371.7z"/>
		<path fill="#FFFFFF" d="M622.3,327.4c0.3-0.3,0.2-0.4-0.2-0.5c-0.6-0.3-1.1,0.6-1.7,0c-0.1,0.6-0.3,0.5-0.7,0.1
			c-0.1-0.1-0.3,0-0.4,0.1c-0.1,0.2,0,0.4,0.1,0.4c0.5,0.2,1,0.4,1.4,0.6C621.4,328.2,622.1,327.7,622.3,327.4z"/>
		<path fill="#FFFFFF" d="M623.1,335.8c0.2-0.3,0-0.5-0.2-0.7c-0.6-0.4-1.3-0.8-2-0.1c-0.2,0.3-0.6,0.2-1,0.5
			c0.5,0.3,0.8,0.5,1.3,0.2c0.3-0.2,0.8-0.3,1.2,0C622.7,335.9,622.9,336.1,623.1,335.8z"/>
		<path fill="#FFFFFF" d="M619,330.2c0.6-0.3,1.2-0.6,1.3-1.4c-1.1-0.3-1.8,1.2-3,0.7C617.9,329.6,618.1,330.6,619,330.2z"/>
		<path fill="#FFFFFF" d="M588.4,346.8c0-0.2,0-0.5-0.2-0.7c-0.1,0.3-0.2,0.7-0.3,1C588.1,347.1,588.4,347.2,588.4,346.8z"/>
		<path fill="#FFFFFF" d="M623.4,329c-1.2-0.6-2.4-0.1-2.6,1.2C621.3,329,622.7,329.8,623.4,329z"/>
		<path fill="#FFFFFF" d="M623,325.4c-0.6-0.1-1.3-0.3-1.7,0.5c0.5,0,1,0,1.5,0.3c0.2,0.1,0.6,0.2,0.7-0.2
			C623.5,325.6,623.3,325.4,623,325.4z"/>
		<path fill="#FFFFFF" d="M674.7,354.7c0.6,0,0.4-0.6,0.4-1c0-0.3-0.1-0.6-0.4-0.5c-0.4,0.1-0.5,0.4-0.2,0.9
			C674.6,354.2,674.1,354.7,674.7,354.7z"/>
		<path fill="#FFFFFF" d="M679,355.7c-0.5,0.1-1.1-0.3-1.7,0.1c0.6,0.3,1,0.5,1.6,0.8C678.8,356.2,679.1,355.6,679,355.7z"/>
		<path fill="#FFFFFF" d="M626,326.3c-0.3-0.1-0.2-0.5-0.4-0.7c-0.2-0.2-0.5-0.3-0.8-0.1c-0.2,0.1-0.3,0.2-0.2,0.4
			C624.9,326.7,625.5,326.3,626,326.3z"/>
		<path fill="#FFFFFF" d="M684.9,357.8c1,0.5,1.2,0.5,2,0.2C686.1,357.6,685.7,357.5,684.9,357.8z"/>
		<path fill="#FFFFFF" d="M618.2,331.9c-0.7-0.6-1.1-0.2-1.7,0.2C617.3,332.9,617.6,331.9,618.2,331.9z"/>
		<path fill="#FFFFFF" d="M628,346.7c0.2,0.2,0.5,0.4,0.8,0.4c0.1,0,0.1-0.1,0.1-0.2c-0.1-0.3-0.4-0.4-0.6-0.6
			c-0.3-0.1-0.5-0.4-0.8-0.2C627.6,346.4,627.8,346.5,628,346.7z"/>
		<path fill="#FFFFFF" d="M629.2,332.8c0.1-0.2-0.1-0.3-0.3-0.3c-0.3,0.1-0.7,0.2-0.8,0.6c-0.1,0.3,0.2,0.3,0.4,0.3
			C628.8,333.3,629.1,333.1,629.2,332.8z"/>
		<path fill="#FFFFFF" d="M640.7,331.7c0,0.1,0.1,0.2,0.1,0.3c0.2,0.2,0.4,0.2,0.6,0.1c0.3-0.1,0.5-0.3,0.3-0.7c-0.2,0-0.3,0-0.5,0
			C640.9,331.4,640.7,331.5,640.7,331.7z"/>
		<polygon fill="#FFFFFF" points="641.7,331.4 641.7,331.4 641.7,331.4 		"/>
		<path fill="#FFFFFF" d="M622.7,327.9c0,0.3,0.3,0.2,0.6,0.2c0.3,0,0.5-0.1,0.5-0.4c0-0.2-0.2-0.3-0.4-0.3
			C623.2,327.7,622.7,327.5,622.7,327.9z"/>
		<path fill="#FFFFFF" d="M626.4,348.2c-0.2,0.2-0.1,0.5,0.2,0.6c0.4,0.2,0.8,0.4,1-0.2c-0.3,0-0.6-0.1-0.8-0.1
			C626.6,348.4,626.7,347.9,626.4,348.2z"/>
		<path fill="#FFFFFF" d="M620.7,336.7c0.6,0.1,1-0.1,1.5-0.3C621.6,336.2,621.1,336,620.7,336.7z"/>
		<path fill="#FFFFFF" d="M676.2,341.9c0,0.1-0.2,0.2,0.1,0.2c0.6,0,0.6-0.4,0.6-0.8c0,0,0-0.1,0-0.1
			C676.4,341.2,676.1,341.2,676.2,341.9z"/>
		<polygon fill="#FFFFFF" points="676.9,341.2 676.9,341.2 676.9,341.2 		"/>
		<path fill="#FFFFFF" d="M618.6,371.4c0,0,0,0.2,0,0.2c0.4,0.3,0.8,0.2,1.2-0.1C619.4,371.2,619,371.1,618.6,371.4z"/>
		<path fill="#FFFFFF" d="M610.4,371.4c0.4,0.4,0.9,0.5,1.5,0.3C611.4,371.3,611,371.1,610.4,371.4z"/>
		<polygon fill="#FFFFFF" points="642.8,331.6 642.8,331.6 642.8,331.6 642.8,331.6 642.8,331.6 		"/>
		<path fill="#FFFFFF" d="M641.6,331.1c-0.3,0.1,0.1,0.2,0.1,0.3c0.4,0.1,0.7,0.1,1.1,0.2C642.6,330.9,642,331,641.6,331.1z"/>
		<polygon fill="#FFFFFF" points="641.7,331.4 641.7,331.4 641.7,331.4 		"/>
		<path fill="#FFFFFF" d="M588.3,367.4c0,0,0.1-0.1,0.1-0.1c0-0.3-0.2-0.3-0.5-0.4c0,0-0.1,0.1-0.1,0.1
			C587.9,367.2,588,367.4,588.3,367.4z"/>
		<path fill="#FFFFFF" d="M632.2,348.6c0,0,0.1,0.1,0.1,0.1c0.2,0,0.3-0.1,0.3-0.3c0,0,0,0,0,0c0,0,0,0,0,0
			C632.4,348.4,632.2,348.4,632.2,348.6z"/>
		<path fill="#FFFFFF" d="M628.9,348.3c-0.1-0.1-0.1,0.1-0.2,0.2l0.1,0.1C628.9,348.5,629,348.4,628.9,348.3z"/>
		<path fill="#FFFFFF" d="M615.5,356.3c0.1,0.1,0.1-0.1,0.2-0.2l-0.1-0.1C615.5,356.1,615.4,356.2,615.5,356.3z"/>
		<path fill="#FFFFFF" d="M676.2,356.5c-0.1-0.1-0.2,0-0.2,0.1c0,0,0.1,0.1,0.1,0.1C676.1,356.6,676.3,356.6,676.2,356.5z"/>
		<path fill="#FFFFFF" d="M611,347.9C611,347.9,611,347.9,611,347.9c-0.1,0-0.1,0-0.2,0C610.9,347.9,610.9,347.9,611,347.9
			C611,347.9,611,347.9,611,347.9z"/>
		<path fill="#FFFFFF" d="M631.6,387.8c-0.3-0.1-0.6-0.1-0.9,0C631,387.9,631.3,387.9,631.6,387.8z"/>
		<path fill="#FFFFFF" d="M629.9,386.9c0-0.1,0-0.2-0.1-0.2c0,0-0.1,0-0.1,0.1c0,0.1,0,0.1,0.1,0.2
			C629.7,386.9,629.8,386.9,629.9,386.9z"/>
		<path fill="#FFFFFF" d="M608.3,348.7C608.3,348.7,608.2,348.7,608.3,348.7L608.3,348.7c-0.2,0-0.3,0-0.4,0.1c0,0,0,0.1,0.1,0.1
			C608.1,348.9,608.2,348.9,608.3,348.7z"/>
		<path fill="#FFFFFF" d="M612.7,350.8c0,0-0.1,0-0.1-0.1c0,0,0,0-0.1,0.1C612.5,350.8,612.6,350.8,612.7,350.8
			C612.6,350.8,612.6,350.8,612.7,350.8z"/>
		<path fill="#FFFFFF" d="M588.2,348.1c0,0-0.1,0-0.1-0.1c0,0,0,0-0.1,0.1C588,348.1,588.1,348.1,588.2,348.1
			C588.1,348.1,588.2,348.1,588.2,348.1z"/>
		<path fill="#FFFFFF" d="M606.1,345.3c-0.1,0-0.1,0.1-0.1,0.1c0,0,0,0.1,0,0.1C606.1,345.6,606.1,345.4,606.1,345.3L606.1,345.3
			L606.1,345.3z"/>
		<path fill="#FFFFFF" d="M622.5,379.4c0,0,0.1,0,0.1-0.1c0,0,0,0,0,0c0,0,0,0,0,0C622.6,379.3,622.5,379.3,622.5,379.4
			C622.5,379.4,622.5,379.4,622.5,379.4z"/>
		<path fill="#FFFFFF" d="M629,387.5L629,387.5c0-0.1,0-0.2-0.1-0.1C628.9,387.5,629,387.5,629,387.5L629,387.5z"/>
		<path fill="#FFFFFF" d="M629,387.5c0,0,0.1,0.1,0.1,0.1C629.2,387.5,629.1,387.5,629,387.5C629,387.5,629,387.5,629,387.5
			L629,387.5z"/>
		<path fill="#FFFFFF" d="M672.1,359.2c0.7,0.4,1.4,0.2,2.1,0.2C673.6,359.1,672.8,359.5,672.1,359.2z"/>
		<path fill="#FFFFFF" d="M630.5,325.3c0.4-0.2,0.8-0.3,1.2-0.5c-0.5,0-1.1-0.1-1.6-0.1l-0.1,0.1C630,325.2,630.1,325.5,630.5,325.3
			z"/>
		<path fill="#FFFFFF" d="M630.9,325.7c0,0,0.1,0.1,0.1,0.1c0,0,0,0,0.1-0.1C631,325.7,631,325.7,630.9,325.7
			C630.9,325.7,630.9,325.7,630.9,325.7z"/>
		<path fill="#FFFFFF" d="M633.2,348.1c0,0,0.1-0.1,0.1-0.1c0,0,0,0-0.1-0.1C633.2,348,633.1,348,633.2,348.1
			C633.1,348.1,633.2,348.1,633.2,348.1z"/>
		<path fill="#FFFFFF" d="M632.5,346c0.1,0.1,0.2,0,0.2-0.1c0,0-0.1-0.1-0.1-0.1C632.6,345.8,632.5,345.8,632.5,346z"/>
		<path fill="#FFFFFF" d="M612.9,327.5c-0.2,0-0.3,0-0.4,0.1c0,0,0.1,0.1,0.1,0.1C612.7,327.6,612.9,327.6,612.9,327.5
			C613,327.5,612.9,327.5,612.9,327.5z"/>
		<path fill="#FFFFFF" d="M610.9,348c0.1,0,0.1,0,0.1-0.1c0,0,0,0-0.1-0.1C610.9,347.9,610.9,347.9,610.9,348
			C610.9,348,610.9,348,610.9,348z"/>
	</g>
	<path fill="#FEFEFE" d="M636.4,415.2c-28.8,0-52.3-23.5-52.3-52.3s23.5-52.3,52.3-52.3s52.3,23.5,52.3,52.3
		S665.2,415.2,636.4,415.2z M636.4,312.5c-27.7,0-50.3,22.6-50.3,50.3c0,27.7,22.6,50.3,50.3,50.3s50.3-22.6,50.3-50.3
		C686.7,335.1,664.1,312.5,636.4,312.5z"/>
</g>
<g>
	<polygon fill="#FFFFFF" points="736.3,363 733.4,380.1 748.8,372.1 764.2,380.1 761.4,363 773.8,350.8 756.6,348.2 748.9,332.7 
		741.1,348.2 723.9,350.7 	"/>
	<polygon fill="#FFFFFF" points="811.7,361.8 809.3,375.8 821.9,369.3 834.5,375.8 832.2,361.8 842.4,351.9 828.3,349.7 822,337 
		815.6,349.7 801.6,351.8 	"/>
	<polygon fill="#FFFFFF" points="887.1,360.6 885.3,371.4 895.1,366.4 904.8,371.5 903.1,360.6 910.9,352.9 900,351.2 895.1,341.3 
		890.2,351.2 879.2,352.8 	"/>
	<polygon fill="#FFFFFF" points="962.5,359.4 961.2,367.1 968.2,363.5 975.2,367.2 973.9,359.4 979.5,353.9 971.7,352.7 
		968.2,345.7 964.7,352.7 956.9,353.8 	"/>
</g>
<g>
	<polygon fill="#FFFFFF" points="543.7,363 546.6,380.1 531.2,372.1 515.8,380.1 518.6,363 506.2,350.8 523.4,348.2 531.1,332.7 
		538.9,348.2 556.1,350.7 	"/>
	<polygon fill="#FFFFFF" points="468.3,361.8 470.7,375.8 458.1,369.3 445.5,375.8 447.8,361.8 437.6,351.9 451.7,349.7 458,337 
		464.4,349.7 478.4,351.8 	"/>
	<polygon fill="#FFFFFF" points="392.9,360.6 394.7,371.4 384.9,366.4 375.2,371.5 376.9,360.6 369.1,352.9 380,351.2 384.9,341.3 
		389.8,351.2 400.8,352.8 	"/>
	<polygon fill="#FFFFFF" points="317.5,359.4 318.8,367.1 311.8,363.5 304.8,367.2 306.1,359.4 300.5,353.9 308.3,352.7 
		311.8,345.7 315.3,352.7 323.1,353.8 	"/>
</g>
</svg>
