<?xml version="1.0" encoding="utf-8"?>
<!-- Generator: Adobe Illustrator 18.1.1, SVG Export Plug-In . SVG Version: 6.00 Build 0)  -->
<svg version="1.1" id="Layer_1" xmlns="http://www.w3.org/2000/svg" xmlns:xlink="http://www.w3.org/1999/xlink" x="0px" y="0px"
	 viewBox="0 0 420.1 65.2" enable-background="new 0 0 420.1 65.2" xml:space="preserve">
<g>
	<path fill="#FEFEFE" d="M207.8,65.2c-17.8,0-32.4-14.5-32.4-32.4S190,0.5,207.8,0.5s32.4,14.5,32.4,32.4S225.7,65.2,207.8,65.2z
		 M207.8,1.6c-17.1,0-31.1,14-31.1,31.1c0,17.1,14,31.1,31.1,31.1s31.1-14,31.1-31.1S225,1.6,207.8,1.6z"/>
</g>
<g>
	<polygon fill="#FFFFFF" points="269.7,32.9 267.9,43.5 277.4,38.5 286.9,43.5 285.2,32.9 292.9,25.3 282.2,23.7 277.4,14.1 
		272.6,23.7 262,25.3 	"/>
	<polygon fill="#FFFFFF" points="316.3,32.1 314.8,40.8 322.6,36.8 330.4,40.8 329,32.1 335.3,26 326.6,24.7 322.7,16.8 318.7,24.7 
		310.1,26 	"/>
	<polygon fill="#FFFFFF" points="363,31.4 361.8,38.1 367.9,35 373.9,38.2 372.9,31.4 377.7,26.6 370.9,25.6 367.9,19.5 364.9,25.6 
		358.1,26.6 	"/>
	<polygon fill="#FFFFFF" points="409.6,30.7 408.8,35.4 413.1,33.2 417.5,35.5 416.7,30.7 420.1,27.3 415.3,26.5 413.1,22.2 
		411,26.5 406.1,27.2 	"/>
</g>
<g>
	<polygon fill="#FFFFFF" points="150.5,32.9 152.3,43.5 142.7,38.5 133.2,43.5 134.9,32.9 127.3,25.3 137.9,23.7 142.7,14.1 
		147.5,23.7 158.2,25.3 	"/>
	<polygon fill="#FFFFFF" points="103.8,32.1 105.3,40.8 97.5,36.8 89.7,40.8 91.1,32.1 84.8,26 93.6,24.7 97.5,16.8 101.4,24.7 
		110.1,26 	"/>
	<polygon fill="#FFFFFF" points="57.2,31.4 58.3,38.1 52.2,35 46.2,38.2 47.3,31.4 42.4,26.6 49.2,25.6 52.2,19.5 55.3,25.6 
		62.1,26.6 	"/>
	<polygon fill="#FFFFFF" points="10.5,30.7 11.3,35.4 7,33.2 2.7,35.5 3.5,30.7 0,27.3 4.8,26.5 7,22.2 9.2,26.5 14,27.2 	"/>
</g>
<g>
	<path fill="#FEFEFE" d="M199.9,13c0.1,0.1,0.2,0.2,0.3,0.3c-0.3,0.3-0.6,0.9-1.1,1c-2,0.5-3.8,1.5-5.5,2.6c-0.8,0.5-2,1.1-0.4,2.1
		c0.5,0.3,1.2,0.5,1.9,0.6c0.6,0.1,1,0.2,0.5,0.9c-0.1,0.2,0.2,0.6,0.3,0.9c0.3-0.1,0.7-0.2,0.8-0.4c1-1.5,1.9-3,2.8-4.5
		c0.4-0.6,1-0.6,1.5-0.4c0.5,0.2,1.2,0.2,1,1.2c0,0.1,0.2,0.3,0.3,0.5c2.3-1.8,1.6,1.4,2.7,1.6c0.5,0.1,1,0.3,0.4,1
		c-0.1,0.1-0.2,0.3-0.4,0.2c-1.5,1.3-3.8,0.5-5.3,1.8c-0.1,0.1-0.3,0.3-0.4,0.4c0.2,0,0.4-0.1,0.5-0.1c0.5-0.1,1.3-0.6,1.5-0.4
		c0.5,0.5-0.5,0.2-0.5,0.6c0,0.2,0.2,0.6,0.3,0.7c0.3,0.1,0.7,0,1.1-0.1c0.2,0,0.4-0.1,0.5-0.1c-0.1,0.2-0.2,0.4-0.3,0.5
		c-0.6,0.4-1.3,0.7-1.9,1.1c-0.1,0.1-0.3,0-0.5,0c0-0.2,0-0.4,0.1-0.5c0.2-0.2,0.4-0.3,0.6-0.4c-0.3,0.1-0.7,0.1-0.9,0.2
		c-1.9,0.8-3.1,2.5-4.7,3.9c-0.9,0.8-1.2,2-2.4,2.6c-1,0.5-1.3,1.5-0.9,2.6c0.1,0.4,0.3,0.9-0.2,1.2c-0.2-0.4-0.4-0.7-0.6-1.1
		c-0.2-0.3-0.4-1-0.5-1c-0.8,0.2-1.5-0.6-2.5,0.1c-0.8,0.7-2.3-0.1-3.2,1c-0.9,1-1,2.1-1,3.3c0,0.7,0.5,1.8,1,1.9
		c0.9,0.2,1.9-0.2,2.3-1.3c0.1-0.2,0.7-0.3,1.1-0.4c0,0.3,0.1,0.6,0,0.9c-0.2,0.9-1.5,2.4,1,1.8c0.9-0.2,0.6,0.9,0.6,1.5
		c-0.1,1.3,0.2,2.1,1.8,1.7c0,0,0.1,0,0.1,0c0,0-0.1,0-0.1,0c-1.5,1.3-2.1-0.1-2.9-0.9c-1.3-1.2-2.7-2.1-4.7-2.2
		c-1.4-0.1-3.3-0.2-4-2.4c-0.5-1.7-1.7-3.2-2.7-4.8c0-0.1-0.3-0.1-0.4,0c-0.1,0.1-0.2,0.3-0.2,0.4c0.1,0.3,0.2,0.5,0.3,0.8
		c0.3,0.7,0.5,1.5,0.8,2.2c-0.2-0.1-0.4-0.2-0.5-0.4c-0.3-0.5-0.4-1.1-0.7-1.7c-1.5-3-0.6-6,0.1-9c0.6-2.6,1.3-5.2,2.6-7.6
		c1.7-3.2,5.3-4.8,8.8-3.6c2.5,0.9,4.9,0.1,7.3-0.2c0.7-0.1,0.3-0.8,0.5-1.1c0.9-1.2,1.2,0.3,1.4,0.6c1,1.5,1.2-0.4,1.8-0.3
		C199.6,12.9,199.7,13,199.9,13z"/>
	<path fill="#FEFEFE" d="M191.9,43C191.9,43,191.9,43,191.9,43c1.7,0.6,2.3-1.1,3.4-1.7c0.1,0,0.2-0.1,0.3-0.1c0,0.3,0,0.6,0,0.9
		c0,0.2,0.1,0.3,0.1,0.5c0.1,0,0.2,0,0.3-0.1c2-2.2,4-0.8,5.3,0.5c1.3,1.2,3.7,0,4.1,2.2c0.5,2.4,2.5,2.2,4,2.3
		c3,0.3,4.3,1.9,2.8,4.4c-0.9,1.5,0,3.2-0.7,4.7c-0.3,0.6-0.6,1.1-1.4,1.3c-0.8,0.2-1.7,0.6-1.8,2c-0.1,1.7-0.3,4-3.2,3.3
		c-1.5-0.3-3-0.7-4.5-0.8c-2.5-0.2-2.6-1.9-2.5-3.7c0.1-1.6-0.7-2.5-2-3.4c-2.2-1.5-3.6-3.6-4.3-6.4c-0.5-2.2,2.5-3.4,0.8-5.4
		C192.3,43.3,192.1,43.2,191.9,43z"/>
	<path fill="#FEFEFE" d="M240.3,31.5c0.2,5.6-1.3,11.3-4.5,16.6c-0.1,0.1-0.2,0.3-0.3,0.4c-0.1-0.1-0.3-0.3-0.4-0.4
		c-0.7-1.5-1.9-2.6-1.8-4.6c0-1.1-2.1-1.9-3.7-1.5c-2.1,0.5-4.2,1.9-6.3-0.1c-3.3-3-3.1-8.3,0-10.9c0.5-0.4,0.5-1.4,0.9-1.9
		c1.7-2,4.2-1.7,6.4-2.5c2.9-1,3.1,3.1,5.6,2.6c0.3-0.1,0.6,0,0.8-0.2c0.3-0.3,0-1.3,0.8-1c0.9,0.3,2.4,0.2,2.4,1.8
		C240.2,30.1,240.2,30.5,240.3,31.5z"/>
	<path fill="#FEFEFE" d="M216.8,12.5c-0.9,0.9-3.2,0.7-4.3,2.5c-0.3,0.5-0.5,1.3-1.4,1.2c-0.7-0.1-1.3-0.4-1.5-1.2
		c-0.2-0.9-0.5-1.9,0.2-2.7c0.3-0.4,1.5-0.5,0-0.9c0.4-1.2-0.3-1.7-1.3-1.9c-0.6-0.1-1.7,0.6-1.8-0.2c-0.1-0.7,1.1-0.3,1.7-0.6
		c0.2-0.1,0.4-0.3,0.6-0.4c-0.2,0-0.5,0-0.7,0c-2.1,0.2-3.7,2.2-6.1,1.8c-0.4-0.1-0.9-0.1-1.3-0.1c0.4-0.1,0.7-0.2,1.1-0.3
		c0.2,0,0.3-0.1,0.5-0.2c-0.2,0-0.5-0.1-0.7,0c-0.5,0.2-0.9,0.2-1.1-0.3c0-0.1,0.4-0.5,0.7-0.6c4.4-11.9,11.7-9.7,15.9-3.2
		c2.3-0.1,3-1.1,3.8,1c0.3,0.8,1.7,0.2,2.5,0.3c0.1,0,0.1,0.1,0.2,0.1c-0.1,0.1-0.2,0.2-0.3,0.2c-2.2-0.1-1.8,3.2-4,3.1
		c0.1,0.1,0.2,0.3,0.3,0.4c0.2,0.2,0.4,0.3,0.6,0.5c-0.2,0-0.5-0.1-0.7,0c-1.3,0.1,0.5,0.6-0.1,0.8
		C218.9,11.9,218.2,12.1,216.8,12.5z"/>
	<path fill="#FEFEFE" d="M232.1,16.9c-0.4,1.5,0.7,0.9,1.3,0.8c1-0.1,2.2,0.4,2.8-1c0.1,0.1,0.3,0.1,0.3,0.2
		c0.9,2.1,1.8,4.3,2.6,6.4c0.1,0.3,0.1,0.5-0.3,0.5c-1.1,0.2-0.3,1.3-0.4,1.4c-1.3,1.5-1.7-0.6-1.8-0.8c-0.4-1.7-2.2-1.6-3.1-2.5
		c0,0-0.3,0.1-0.3,0.2c0,0.1,0,0.3,0.1,0.4c0.5,0.4,1,0.9,1.6,1.2c0.3,0.3,0.7,0.4,1.1,0.7c-0.2,0.1-0.6,0.1-0.7,0.3
		c-0.6,1.4-0.5-0.2-0.6-0.2c-1.6-1-3.1-2.2-5.1-1.1c-0.7,0.4-1.2,1.3-1.5,2.1c-0.4,1.3-1.5,1.5-2.4,1.5c-0.8,0-1.7-0.3-1.6-1.9
		c0.1-1.8,0.9-1.9,2.2-1.7c0.9,0.1,1.3-0.7,0.9-1.1c-2.2-2.5,1.3-1.6,1.7-2.7c0.3-1.1,2.8-0.8,2.6-2.8c0-0.1,0.3-0.2,0.4-0.3
		C232,16.6,232,16.8,232.1,16.9L232.1,16.9z"/>
	<path fill="#FEFEFE" d="M199.9,13c-0.1,0-0.3,0-0.4,0c-0.2-0.2-0.4-0.4-0.7-0.6c0.4-0.3,0.8-0.9,1.3-1c0.6-0.1-0.1,0.4,0,0.6
		c0,0,0.2,0,0.3,0c1.6-1,5,0.1,5.5,1.9c0,0.1-0.1,0.4-0.1,0.4c-1.1-0.2-1.7,0.9-2,1.4c-1.4,1.5-2-1.6-3.1-0.3
		c-0.1-0.1-0.1-0.1-0.2-0.2c0.3-0.1,0.6-0.2,0.9-0.3c0.8-0.1,1.4-0.5,1.6-1.2c0.1-0.3-0.6-1-1-1.1C201.3,12.6,200.6,12.9,199.9,13z"
		/>
	<path fill="#FEFEFE" d="M232.1,16.9c0.4-0.2,0.5-0.4,0.2-0.8c-0.3-0.4-0.5-0.7-1-0.4c-0.5,0.3-0.9,0.4-1.2-0.2
		c-0.3-0.6-0.4-1.1,0.3-1.6c0.8-0.5,1.5-1.2,2.2-1.8c0.1-0.1,0.3-0.2,0.3-0.2c0.4,0.6,1,1.1,1.3,1.8c0.5,1.7-0.1,3-1.9,3.5
		C232.2,17.3,232.1,17,232.1,16.9C232.1,16.9,232.1,16.9,232.1,16.9z"/>
	<path fill="#FEFEFE" d="M189.1,13.4c0-0.1,0.1-0.3,0-0.4c-0.2-0.5-0.6-0.1-0.9-0.1c-0.3,0.1-0.6,0.1-0.9,0.1
		c0.2-0.2,0.4-0.4,0.6-0.6c1.6-1.5,3.2,0.1,4.8,0.1c0.4,0,0.7-0.9,1-0.2c0.1,0.3,0.5,1.7-0.6,1.4c-1.4-0.3-2.8,1.3-4-0.1
		C189,13.5,189.2,13.5,189.1,13.4z"/>
	<path fill="#FDFDFD" d="M226.1,20c0.1-0.1,0.2-0.3,0.2-0.4c-0.4-0.2-0.4-0.5-0.1-0.7c0.8-0.6,0.1-0.6-0.2-0.9
		c-0.2-0.2-0.4-0.6-0.4-0.9c0-0.2,0.3-0.4,0.5-0.6c0.2,0.2,0.3,0.4,0.5,0.6c0.4,0.5,0.7,1.1,1.2,1.5c0.8,0.5,0.5,0.8-0.1,1
		C227.3,19.9,226.7,19.9,226.1,20z"/>
	<path fill="#FDFDFD" d="M205.2,20.7c0.1-0.1,0.2-0.2,0.4-0.2c-0.3,0.7-0.4,1.3,0.4,1.8c0.1,0.1,0.1,0.6,0.1,0.9
		c-0.7-0.2-1.4-0.4-2.1-0.5c0.1-0.2,0.1-0.4,0.2-0.5C204.5,21.6,204.9,21.2,205.2,20.7z"/>
	<path fill="#FCFCFC" d="M221.2,14.4c-0.5-0.4-1.2-0.2-1.3-0.9c0-0.2,0.1-0.3,0.2-0.5c0.8,0.8,1.9-0.6,2.7,0.3
		C222.3,13.7,221.7,14,221.2,14.4z"/>
	<path fill="#FBFBFB" d="M190.6,36c1.5-0.2,2.4,0.5,3.4,0.9c0,0,0,0.2,0,0.3c-0.4,0-1,0-1.3-0.2c-0.6-0.4-1.2-0.8-2-0.7
		c-0.3,0-0.6,0.1-0.9,0.2C190.2,36.3,190.6,36.1,190.6,36z"/>
	<path fill="#FAFAFA" d="M194.3,11.5c-1-0.3-2.1,0.6-2.8-0.6c0.3-0.1,0.9-0.4,0.9-0.4c0.6,1,1.7-0.1,2.2,0.6
		C194.7,11.2,194.4,11.4,194.3,11.5z"/>
	<path fill="#FCFCFC" d="M201.6,11c-0.8-0.1-1.5-0.2-2.3-0.4c0.6-0.1-0.4-1,0.2-0.7c1.1,0.6,2.2,0.2,3.2,0.6
		C202.4,10.7,202,10.8,201.6,11z"/>
	<path fill="#FDFDFD" d="M225.1,17.8c0.1,0,0.3,0.2,0.3,0.2c0,0.8-0.4,1.3-1.2,1.5c-0.1,0-0.3-0.2-0.3-0.2
		C224.1,18.6,224.2,18,225.1,17.8z"/>
	<path fill="#FCFCFC" d="M195.5,37.1c0.5,0.2,0.9,0.4,1.3,0.5c-0.3,0.2-0.6,0.4-0.9,0.5c-0.4,0.1-0.9,0-1.3-0.1
		C194.8,37.8,195.1,37.5,195.5,37.1z"/>
	<path fill="#F9F9F9" d="M197.2,11.1c-0.4-0.2-0.7-0.4-1.1-0.6c0.5-0.1,0.9-0.3,1.4-0.3c0.1,0,0.3,0.1,0.4,0.2
		C197.7,10.6,197.5,10.9,197.2,11.1z"/>
	<path fill="#FBFBFB" d="M198,14.9c0.3,0.2,0.6,0.4,0.8,0.6c-0.1,0.1-0.2,0.2-0.3,0.2c-0.5,0-1-0.1-1.5-0.1
		C197.3,15.4,197.6,15.1,198,14.9z"/>
	<path fill="#F9F9F9" d="M195.9,12.6c-0.3-0.2-0.4-0.3-0.6-0.4c0.4-0.2,0.7-0.5,1.1-0.7c0,0,0.2,0.1,0.3,0.2
		C196.4,12,196.2,12.2,195.9,12.6z"/>
	<path fill="#F8F8F8" d="M198.8,9.4c-0.3,0.2-0.4,0.4-0.5,0.3c-0.3-0.1-0.6-0.2-0.9-0.3c0.1-0.1,0.2-0.3,0.3-0.3
		C198.1,9.2,198.3,9.3,198.8,9.4z"/>
	<path fill="#F1F1F1" d="M197.7,11.9c-0.1-0.1-0.2-0.1-0.3-0.2c0.2-0.1,0.4-0.3,0.7-0.4c0.1,0,0.3,0.1,0.4,0.2
		C198.2,11.6,198,11.8,197.7,11.9z"/>
	<path fill="#F2F2F2" d="M231.7,24.1c0.1,0.4,0.2,0.5,0.2,0.7c0,0.1-0.2,0.2-0.2,0.3c-0.1-0.2-0.2-0.3-0.2-0.5
		C231.5,24.5,231.6,24.4,231.7,24.1z"/>
	<path fill="#EFEFEF" d="M234.7,25.9c-0.3,0.1-0.5,0.2-0.5,0.2c-0.2-0.1-0.3-0.2-0.5-0.3c0.1,0,0.2-0.1,0.3-0.1
		C234.2,25.6,234.3,25.7,234.7,25.9z"/>
	<path fill="#FCFCFC" d="M199.7,9.1c0.2,0.2,0.3,0.3,0.4,0.4c0,0-0.2,0.3-0.3,0.2c-0.1,0-0.3-0.2-0.4-0.3
		C199.4,9.4,199.5,9.2,199.7,9.1z"/>
	<path fill="#F2F2F2" d="M195.1,13.3c0.1,0.1,0.2,0.1,0.3,0.2c-0.1,0.1-0.3,0.2-0.5,0.3c0,0-0.2-0.1-0.2-0.2
		C194.8,13.5,195,13.4,195.1,13.3z"/>
	<path fill="#EDEDED" d="M202.7,22.4c-0.2-0.2-0.4-0.3-0.5-0.4c0-0.1,0.1-0.2,0.1-0.2c0.2,0.1,0.4,0.2,0.5,0.3
		C202.8,22.2,202.7,22.3,202.7,22.4z"/>
	<path fill="#A7A7A7" d="M189.1,13.4c0.3,0,0.6,0,0.9,0.1c-0.3,0.1-0.7,0.1-1,0.2C189,13.5,189,13.5,189.1,13.4z"/>
	<path fill="#EDEDED" d="M239.4,26.7c-0.3,0.1-0.4,0.2-0.5,0.2c-0.1,0-0.2-0.1-0.4-0.2c0.1,0,0.2-0.1,0.3-0.1
		C238.9,26.6,239.1,26.6,239.4,26.7z"/>
	<path fill="#EAEAEA" d="M198.7,10.5c0.1,0.1,0.1,0.1,0.2,0.2c-0.1,0.1-0.2,0.2-0.3,0.2c-0.1,0-0.2-0.1-0.2-0.2
		C198.4,10.6,198.5,10.6,198.7,10.5z"/>
	<path fill="#F7F7F7" d="M202.5,13.6c-0.2,0.1-0.3,0.2-0.4,0.3c0,0-0.1-0.1-0.2-0.1c0.1-0.1,0.2-0.2,0.3-0.3
		C202.2,13.4,202.4,13.5,202.5,13.6z"/>
	<path fill="#ECECEC" d="M202.1,23.5c-0.2,0.1-0.3,0.1-0.3,0.1c-0.1-0.1-0.2-0.2-0.4-0.2c0.1,0,0.1-0.1,0.2-0.1
		C201.7,23.3,201.9,23.4,202.1,23.5z"/>
	<path fill="#E0E0E0" d="M197.8,15.9c0.1,0.1,0.2,0.1,0.2,0.2c-0.1,0.1-0.2,0.2-0.3,0.2c-0.1,0-0.1-0.1-0.2-0.1
		C197.6,16.1,197.7,16,197.8,15.9z"/>
</g>
</svg>
