<?xml version="1.0" encoding="utf-8"?>
<!-- Generator: Adobe Illustrator 18.1.1, SVG Export Plug-In . SVG Version: 6.00 Build 0)  -->
<svg version="1.1" id="Layer_1" xmlns="http://www.w3.org/2000/svg" xmlns:xlink="http://www.w3.org/1999/xlink" x="0px" y="0px"
	 viewBox="0 0 1080 1990" enable-background="new 0 0 1080 1990" xml:space="preserve">
<g>
	<path fill="#FCBE8B" d="M1961.4,1219.2l-6.4,20.9c-0.8,2.5-3.4,3.9-5.9,3.1v0c-2.5-0.8-3.9-3.4-3.1-5.9l6.4-20.9
		c0.8-2.5,3.4-3.9,5.9-3.1l0,0C1960.8,1214.1,1962.2,1216.7,1961.4,1219.2z"/>
	<path fill="#FCBE8B" d="M1974,1212.5l-11.4,25c-1.1,2.4-3.9,3.4-6.2,2.3l0,0c-2.4-1.1-3.4-3.9-2.3-6.2l11.4-25
		c1.1-2.4,3.9-3.4,6.2-2.3l0,0C1974.1,1207.3,1975.1,1210.1,1974,1212.5z"/>
	<path fill="#FCBE8B" d="M1984.9,1223.4l-19.4,19.4c-1.8,1.8-4.8,1.8-6.6,0l0,0c-1.8-1.8-1.8-4.8,0-6.6l19.4-19.4
		c1.8-1.8,4.8-1.8,6.6,0l0,0C1986.7,1218.6,1986.7,1221.5,1984.9,1223.4z"/>
	<path fill="#FCBE8B" d="M1990.8,1236.4l-23.9,13.5c-2.3,1.3-5.1,0.5-6.4-1.8l0,0c-1.3-2.3-0.5-5.1,1.8-6.4l23.9-13.5
		c2.3-1.3,5.1-0.5,6.4,1.8l0,0C1993.9,1232.3,1993.1,1235.1,1990.8,1236.4z"/>
	<path fill="#FCBE8B" d="M1979.7,1253.3l-21.2,0.5c-2.6,0.1-4.7-2-4.8-4.6l0,0c-0.1-2.6,2-4.7,4.6-4.8l21.2-0.5
		c2.6-0.1,4.7,2,4.8,4.6l0,0C1984.3,1251.1,1982.3,1253.3,1979.7,1253.3z"/>
	<path fill="#FCBE8B" d="M1970.9,1249.8l5.2-5.2c5.4-5.4,5.4-14.3,0-19.7l-1.2-1.2c-5.4-5.4-14.3-5.4-19.7,0l-5.2,5.2
		c-5.4,5.4-5.4,14.3,0,19.7l1.2,1.2C1956.6,1255.3,1965.5,1255.3,1970.9,1249.8z"/>
</g>
<g>
	<path fill="#FCBE8B" d="M887.4,1500l-23.2-15.1c-2.8-1.8-6.5-1-8.3,1.8h0c-1.8,2.8-1,6.5,1.8,8.3l23.2,15.1c2.8,1.8,6.5,1,8.3-1.8
		l0,0C891,1505.4,890.2,1501.8,887.4,1500z"/>
	<path fill="#FCBE8B" d="M904.7,1479.2l-34.8-3c-3.3-0.3-6.2,2.1-6.5,5.4l0,0c-0.3,3.3,2.1,6.2,5.4,6.5l34.8,3
		c3.3,0.3,6.2-2.1,6.5-5.4l0,0C910.4,1482.4,908,1479.5,904.7,1479.2z"/>
	<path fill="#FCBE8B" d="M897.8,1489.2l-34.8-3c-3.3-0.3-6.2,2.1-6.5,5.4l0,0c-0.3,3.3,2.1,6.2,5.4,6.5l34.8,3
		c3.3,0.3,6.2-2.1,6.5-5.4l0,0C903.5,1492.4,901.1,1489.5,897.8,1489.2z"/>
	<path fill="#FCBE8B" d="M897.8,1466.5l-34.8-3c-3.3-0.3-6.2,2.1-6.5,5.4l0,0c-0.3,3.3,2.1,6.2,5.4,6.5l34.8,3
		c3.3,0.3,6.2-2.1,6.5-5.4l0,0C903.5,1469.7,901.1,1466.8,897.8,1466.5z"/>
	<path fill="#FCBE8B" d="M875.2,1450.3l-21,16.9c-2.6,2.1-3,5.8-0.9,8.4h0c2.1,2.6,5.8,3,8.4,0.9l21-16.9c2.6-2.1,3-5.8,0.9-8.4h0
		C881.5,1448.7,877.8,1448.3,875.2,1450.3z"/>
	<path fill="#FCBE8B" d="M862.9,1464.4l22.5,1.9c6.1,0.5,10.7,5.9,10.1,12.1l-1.3,15.2c-0.5,6.1-5.9,10.7-12.1,10.1l-22.5-1.9
		c-6.1-0.5-10.7-5.9-10.1-12.1l1.3-15.2C851.4,1468.4,856.8,1463.8,862.9,1464.4z"/>
</g>
<g>
	<path fill="#FCBE8B" d="M144.1,1500l23.2-15.1c2.8-1.8,6.5-1,8.3,1.8l0,0c1.8,2.8,1,6.5-1.8,8.3l-23.2,15.1c-2.8,1.8-6.5,1-8.3-1.8
		h0C140.6,1505.4,141.4,1501.8,144.1,1500z"/>
	<path fill="#FCBE8B" d="M126.9,1479.2l34.8-3c3.3-0.3,6.2,2.1,6.5,5.4h0c0.3,3.3-2.1,6.2-5.4,6.5l-34.8,3c-3.3,0.3-6.2-2.1-6.5-5.4
		h0C121.1,1482.4,123.6,1479.5,126.9,1479.2z"/>
	<path fill="#FCBE8B" d="M133.8,1489.2l34.8-3c3.3-0.3,6.2,2.1,6.5,5.4l0,0c0.3,3.3-2.1,6.2-5.4,6.5l-34.8,3
		c-3.3,0.3-6.2-2.1-6.5-5.4l0,0C128,1492.4,130.5,1489.5,133.8,1489.2z"/>
	<path fill="#FCBE8B" d="M133.8,1466.5l34.8-3c3.3-0.3,6.2,2.1,6.5,5.4l0,0c0.3,3.3-2.1,6.2-5.4,6.5l-34.8,3
		c-3.3,0.3-6.2-2.1-6.5-5.4l0,0C128,1469.7,130.5,1466.8,133.8,1466.5z"/>
	<path fill="#FCBE8B" d="M156.4,1450.3l21,16.9c2.6,2.1,3,5.8,0.9,8.4h0c-2.1,2.6-5.8,3-8.4,0.9l-21-16.9c-2.6-2.1-3-5.8-0.9-8.4h0
		C150,1448.7,153.8,1448.3,156.4,1450.3z"/>
	<path fill="#FCBE8B" d="M169.2,1464.3l-23.7,2c-5.8,0.5-10.1,5.6-9.6,11.4l1.4,16.4c0.5,5.8,5.6,10.1,11.4,9.6l23.7-2
		c5.8-0.5,10.1-5.6,9.6-11.4l-1.4-16.4C180.1,1468.1,175,1463.8,169.2,1464.3z"/>
</g>
<rect x="347" y="1465.3" fill="#1B1464" width="176.9" height="219.3"/>
<rect x="519" y="1465.3" fill="#1B1464" width="176.9" height="219.3"/>
<g>
	<path fill="#F2B486" d="M675,1506.2l-151,14.9l-163-22.8c-25.3,0-60-69.8-60-95.1l-8.2-398c0-25.3,20.5-45.9,45.9-45.9h350.8
		c25.3,0,45.9,20.5,45.9,45.9v398C735.2,1428.6,682.5,1471.9,675,1506.2z"/>
</g>
<polygon fill="#CCCCCC" points="519,1684.5 554.8,1684.5 608.3,1506.2 519,1521.2 "/>
<polygon fill="#CCCCCC" points="523.9,1684.5 488.1,1684.5 434.7,1506.2 523.9,1521.2 "/>
<polygon fill="#E6E6E6" points="738.6,1421.5 528.3,1514.4 613.4,1552.6 "/>
<path fill="#0D0C3D" d="M736.3,1424.8c0,0-180.9,118.6-181.4,161.8c-0.5,43.2,0,34.6,0,98c48.6-153.4,159-156.2,159-156.2V1487
	l36-15.8L736.3,1424.8z"/>
<path fill="#E6E6E6" d="M155.6,1509.7l30.2-45.5l38.1,25.4c2.9,1.9,3.7,5.9,1.8,8.8l-24.1,36.2c-1.5,2.2-4.4,2.8-6.6,1.3
	L155.6,1509.7z"/>
<polygon fill="#E6E6E6" points="304.4,1421.5 514.7,1514.4 429.5,1552.6 "/>
<path fill="#1B1464" d="M184.6,1528.2l23.7-48.2c0,0,48.3,40.6,55.7,38.5s4.3-61.2,4.3-61.2c4.1-20.7,15.7-30.5,32.6-33.9h0
	c12.6-2.5,25,5.6,27.5,18.3c0,0-9.8,142-41.5,148.9S184.6,1528.2,184.6,1528.2z"/>
<path fill="#E6E6E6" d="M871.6,1509.7l-30.2-45.5l-38.1,25.4c-2.9,1.9-3.7,5.9-1.8,8.8l24.1,36.2c1.5,2.2,4.4,2.8,6.6,1.3
	L871.6,1509.7z"/>
<path fill="#1B1464" d="M842.6,1528.2l-23.7-48.2c0,0-48.3,40.6-55.7,38.5c-7.4-2.1-4.3-61.2-4.3-61.2
	c-4.1-20.7-15.7-30.5-32.6-33.9h0c-12.6-2.5-25,5.6-27.5,18.3c0,0,9.8,142,41.5,148.9S842.6,1528.2,842.6,1528.2z"/>
<path fill="#FCC292" d="M764.4,1095.6c0.2-3.2,0.3-6.4,0.3-9.7c0-32.1-11.2-58.6-25.6-62.6c-0.3-47.8,0.5-89.9,0.5-89.9
	c0-25.3-20.5-45.9-45.9-45.9H342.9c-25.3,0-45.9,20.5-45.9,45.9c0,0,0.5,42.3,0.1,90.1c-1.5-0.5-3-0.7-4.5-0.7
	c-16.3,0-29.5,28.3-29.5,63.2c0,6.6,0.5,13,1.4,19.1c-11.2,9-19.1,32.1-19.1,59.2c0,34.9,13.2,63.2,29.5,63.2c4,0,7.9-1.7,11.4-4.9
	c2.1,33.8,6.9,68.6,10.8,75.4c-17.2,16.2-17.2,35.6-17.2,56.5c0,24.1,8.5,46.3,22.6,63.8c4.8,9,12.6,16.3,22,20.4
	c16.8,11.6,37.2,18.4,59.2,18.4c19.4,0,40.7,2.9,56.2-6.3h5c20.4,18.3,44,21.1,73.4,21.1c29.4,0,59.4-2.9,79.9-21.1h3.7
	c15.5,9.1,30.4,6.3,49.8,6.3c21.3,0,41.1-6.4,57.6-17.3c12.2-4.4,22.1-13.9,26.9-25.9c12.1-16.8,19.3-37.3,19.3-59.4
	c0-20,2.9-26.5-15.9-54.5c4.8-8.1,11.4-45.9,13.9-80.9c0.7,0.1,1.5,0.2,2.2,0.2c16.3,0,29.5-28.3,29.5-63.2
	C785.2,1127.6,776.4,1103.6,764.4,1095.6z"/>
<g>
	<path fill="#D89191" stroke="#4D4D4D" stroke-linecap="round" stroke-miterlimit="10" d="M440.6,1355.4"/>
	<g>
		<path fill="#D89191" d="M412,1267.6c0,0,24.5,26.9,34.4,29.2c5,1.2,10.1,2.7,13.9,4.9c11.6,6.4,3,5.4,18.6,5.4
			c13.2,0,17.9-4.7,38.2-1.2c27.5,4.7,27.9-0.7,43.6-4.2s59.2-2.7,59.2-2.7s-57.2-10.4-75.3-6.9c-18.1,3.5-27.5,7.8-27.5,7.8
			s-15.1-8.5-25.8-8.5c-10.7,0-28.1,12.6-44.6,2.8C430.2,1284.2,412,1267.6,412,1267.6z"/>
		<path fill="#D89191" d="M412,1267.6c0,0,33,22.2,46.7,20c16.1-2.5,28.5-3.3,34.3-3.4c17.2-0.3,23.8,3.6,23.8,3.6
			s56.3-16.3,67.6-1.1c2.8,3.8,17.2,6.1,23.3,7.7c11.5,3,15.9,3.1,15.9,3.1s-8.4,1.5-20.6-0.9c-4.2-0.8-16.7-2.1-18.7-4.1
			c-13-12.9-66.7,2-66.7,2s-18-7.6-27-6.7c-3.2,0.3-15.4,5.3-31.4,6.7C444.9,1295.9,412,1267.6,412,1267.6z"/>
	</g>
</g>
<path fill="#F9EC8F" d="M262.4,1106.9c113.7-67.5,74.2-213.3,92-251c17.8-37.7-69.6,121.1-83.4,61.2L262.4,1106.9z"/>
<path fill="#F9EC8F" d="M705.7,1007.9c7.5,63.9,18.3,106.9,101.6,124.9c-73.6-38.8-50.6-214.7-50.6-214.7l-103.4,11.1
	C653.4,929.2,698.3,943.9,705.7,1007.9z"/>
<path fill="#FFF597" d="M263.3,1012.1c48.1,0,116.3-58.3,116.3-58.3s42.6,44.5,89.2,39.8c46.6-4.6,119.9,2.9,163.5-29.6
	C676,931.6,817,941,843.5,953.8c-78.3-33.9-111.9-52.6-135.8-77.1c-23.9-24.5-77.8-60.9-101.1-65.5s-163.8-46.7-204.9-39.7
	c-41.1,7-29.4,66.4-73,91.8c-45,26.2-127.1,0.1-63,76.1C284.9,962.1,215.2,1012.1,263.3,1012.1z"/>
<ellipse fill="#C1916C" cx="506.7" cy="1205.6" rx="17" ry="19.9"/>
<ellipse fill="#C1916C" cx="540.6" cy="1200.4" rx="17" ry="19.9"/>
<path fill="#FFF597" d="M536.7,1045.8c-5.1-1.3,89.3-8.1,102.7-38.2c13.4-30,72.5-8,56,23.7c-16.5,31.7,9.3,29.7,9.3,29.7
	s-34.8,2.7-35.5-32.3C668.6,993.8,613.3,1065.3,536.7,1045.8z"/>
<path fill="#FFF597" d="M495,1070.5c5.2,0.7-79.5-41.5-80.4-74.4c-0.9-32.9-63.9-35-60.8,0.6c3.2,35.6-20,23.9-20,23.9
	s31.2,15.8,45.1-16.3C392.9,972.1,416.8,1059.3,495,1070.5z"/>
<path fill="#F2F2F2" d="M677.2,1092.3c0,2.3-23.6,4.2-52.8,4.2c-29.1,0-52.8-1.9-52.8-4.2s23.6-11.6,52.8-11.6
	C653.6,1080.8,677.2,1090,677.2,1092.3z"/>
<path fill="#F2F2F2" d="M374.4,1092.3c0,2.3,22.2,4.2,49.6,4.2c27.4,0,49.6-1.9,49.6-4.2s-22.2-11.6-49.6-11.6
	C396.6,1080.8,374.4,1090,374.4,1092.3z"/>
<g>
	<defs>
		<path id="SVGID_1_" d="M677.2,1092.3c0,2.3-23.6,4.2-52.8,4.2c-29.1,0-52.8-1.9-52.8-4.2s23.6-11.6,52.8-11.6
			C653.6,1080.8,677.2,1090,677.2,1092.3z"/>
	</defs>
	<clipPath id="SVGID_2_">
		<use xlink:href="#SVGID_1_"  overflow="visible"/>
	</clipPath>
	<ellipse clip-path="url(#SVGID_2_)" fill="#21A9ED" cx="614.5" cy="1086.4" rx="13.1" ry="9.8"/>
</g>
<g>
	<defs>
		<path id="SVGID_3_" d="M374.4,1092.3c0,2.3,22.2,4.2,49.6,4.2c27.4,0,49.6-1.9,49.6-4.2s-22.2-11.6-49.6-11.6
			C396.6,1080.8,374.4,1090,374.4,1092.3z"/>
	</defs>
	<clipPath id="SVGID_4_">
		<use xlink:href="#SVGID_3_"  overflow="visible"/>
	</clipPath>
	<ellipse clip-path="url(#SVGID_4_)" fill="#21A9ED" cx="435.5" cy="1086.4" rx="13.1" ry="9.8"/>
</g>
<ellipse fill="#1A1A1A" cx="431.5" cy="1088.4" rx="4" ry="3"/>
<ellipse fill="#1A1A1A" cx="618.5" cy="1084.2" rx="4" ry="3"/>
<path fill="none" stroke="#C68B60" stroke-width="4" stroke-linecap="round" stroke-miterlimit="10" d="M414,1416.1h6.2
	c25.4,21.6,58.8,34.7,95.3,34.7s69.9-13.1,95.3-34.7h4.6"/>
<path fill="none" stroke="#C68B60" stroke-width="4" stroke-linecap="round" stroke-miterlimit="10" d="M329.2,1369.9l2.4,0.2
	c8.6,14.1,20.8,23.4,35,24.7c14.2,1.3,27.9-5.4,39-17.7l1.8,0.2"/>
<path fill="none" stroke="#C68B60" stroke-width="4" stroke-linecap="round" stroke-miterlimit="10" d="M621.9,1374.2l2.4,0.2
	c8.6,14.1,20.8,23.4,35,24.7c14.2,1.3,27.9-5.4,39-17.7l1.8,0.2"/>
<path fill="none" stroke="#C68B60" stroke-width="4" stroke-linecap="round" stroke-miterlimit="10" d="M395.3,1101.3l2.2-0.1
	c9.4,5.6,21.5,8.6,34.5,7.9c13-0.7,24.7-5.1,33.4-11.7l1.6-0.1"/>
<path fill="none" stroke="#C68B60" stroke-width="4" stroke-linecap="round" stroke-miterlimit="10" d="M395.3,1110.6l2.2-0.1
	c9.4,5.6,21.5,8.6,34.5,7.9c13-0.7,24.7-5.1,33.4-11.7l1.6-0.1"/>
<path fill="none" stroke="#C68B60" stroke-width="4" stroke-linecap="round" stroke-miterlimit="10" d="M563.1,1092.8l2.2,0.4
	c7.8,7.7,18.8,13.5,31.6,15.9s25.2,1,35.2-3.3l1.6,0.3"/>
<path fill="none" stroke="#C68B60" stroke-width="4" stroke-linecap="round" stroke-miterlimit="10" d="M560.9,1101.9l2.2,0.4
	c7.8,7.7,18.8,13.5,31.6,15.9c12.8,2.4,25.2,1,35.2-3.3l1.6,0.3"/>
<path fill="none" stroke="#C68B60" stroke-width="4" stroke-linecap="round" stroke-miterlimit="10" d="M341.9,1055.9l1.5,0.7
	c3.5,8.4,10,15.6,18.9,19.8c8.9,4.2,18.5,4.7,27.3,2.1l1.1,0.5"/>
<path fill="none" stroke="#C68B60" stroke-width="4" stroke-linecap="round" stroke-miterlimit="10" d="M391.3,1097.8l-1.6,0.6
	c-8.5-3.5-18.1-3.9-27.4-0.6s-16.4,9.8-20.8,17.8l-1.2,0.4"/>
<path fill="none" stroke="#C68B60" stroke-width="4" stroke-linecap="round" stroke-miterlimit="10" d="M718.8,1055.9l-1.5,0.7
	c-3.5,8.4-10,15.6-18.9,19.8c-8.9,4.2-18.5,4.7-27.3,2.1l-1.1,0.5"/>
<path fill="none" stroke="#C68B60" stroke-width="4" stroke-linecap="round" stroke-miterlimit="10" d="M669.4,1097.8l1.6,0.6
	c8.5-3.5,18.1-3.9,27.4-0.6s16.4,9.8,20.8,17.8l1.2,0.4"/>
<path fill="none" stroke="#C68B60" stroke-width="4" stroke-linecap="round" stroke-miterlimit="10" d="M441.8,1218
	c-49.9,28.2-113,11-140.9-38.3"/>
<path fill="none" stroke="#C68B60" stroke-width="4" stroke-linecap="round" stroke-miterlimit="10" d="M594.2,1218
	c49.9,28.2,113,11,140.9-38.3"/>
<line fill="none" stroke="#C68B60" stroke-width="4" stroke-linecap="round" stroke-miterlimit="10" x1="335.7" y1="1088.6" x2="377.7" y2="1088.6"/>
<line fill="none" stroke="#C68B60" stroke-width="4" stroke-linecap="round" stroke-miterlimit="10" x1="686.1" y1="1088.6" x2="728" y2="1088.6"/>
<path fill="#FCBE8B" stroke="#C68B60" stroke-width="4" stroke-linecap="round" stroke-miterlimit="10" d="M469.3,1044.8
	c0,0,28.8,5.4,28.8,36.8s0,86.8,0,86.8s-20.3-9.3-24.5,22.7s14.7,38.1,17.6,25.2c1.3-5.7,4.8-20.3,4.8-20.3s8.9,24.5,23.6,25.5
	c14.7,0.9,28.2-27.9,28.2-27.9l1.4,25.2c0,0,22.5,1.7,22.5-26.4c0-28.1-24.4-25.2-24.4-25.2s-3.1-66.5-3.1-91.1s38.2-38.7,38.2-38.7
	"/>
<path fill="none" stroke="#C68B60" stroke-width="4" stroke-linecap="round" stroke-miterlimit="10" d="M470.6,1080.3l-2.1-0.7
	c-6.6-8.7-16.6-16.1-28.9-20.3c-12.3-4.2-24.8-4.6-35.3-1.8l-1.6-0.5"/>
<path fill="none" stroke="#C68B60" stroke-width="4" stroke-miterlimit="10" d="M480.4,1236.9c0,0,2.2,21.9-56.4,21.9"/>
<path fill="none" stroke="#C68B60" stroke-width="4" stroke-miterlimit="10" d="M571.7,1236.9c0,0-5.6,0.1,32.7,44.4"/>
<line fill="#FFD1A6" stroke="#EDE788" stroke-width="4" stroke-miterlimit="10" x1="335.7" y1="859.1" x2="379.6" y2="953.8"/>
<g>
	<path fill="none" stroke="#EDE788" stroke-width="4" stroke-miterlimit="10" d="M341.3,873.3c38.8-22.5,33.1-70.5,74.8-77.1
		c41.7-6.7,174.8,30.4,200.3,32c22.9,1.5,74.7,34.5,100.4,55.8c26.5,21.9,62.4,38.9,133.6,69.8"/>
	<path fill="none" stroke="#EDE788" stroke-width="4" stroke-miterlimit="10" d="M347,883.4c33.9-19.7,34.3-56.1,76.6-62.5
		c42.3-6.4,167.8,21.7,195.7,24.3c22.2,2.1,72.2,28,99.8,46.1c29.2,19.3,67.2,34.6,131.4,62.5"/>
	<path fill="none" stroke="#EDE788" stroke-width="4" stroke-miterlimit="10" d="M352.7,893.4c29.1-16.9,35.5-41.7,78.4-47.9
		s160.5,21.7,191.1,16.6c21.6-3.6,69.9,21.3,99.1,36.4c32.1,16.6,72,30.2,129.2,55.2"/>
	<path fill="none" stroke="#EDE788" stroke-width="4" stroke-miterlimit="10" d="M358.3,903.5c24.2-14.1,36.7-27.4,80.2-33.3
		c43.6-5.9,153.3,17.9,186.5,8.9c21-5.6,67.7,14.6,98.4,26.7c35,13.8,76.9,25.9,127,48"/>
	<path fill="none" stroke="#EDE788" stroke-width="4" stroke-miterlimit="10" d="M364,913.6c19.4-11.3,37.9-13,82-18.7
		c44.2-5.7,146.2,14.4,181.9,1.2c20.4-7.5,65.5,7.8,97.7,17c38,10.9,81.7,21.6,124.8,40.7"/>
	<path fill="none" stroke="#EDE788" stroke-width="4" stroke-miterlimit="10" d="M369.7,923.6c14.5-8.5,39,1.4,83.8-4
		c44.8-5.4,139.2,11.2,177.3-6.5c19.9-9.2,63.3,0.8,97.1,7.3c41,7.9,86.6,17.3,122.6,33.4"/>
	<path fill="none" stroke="#EDE788" stroke-width="4" stroke-miterlimit="10" d="M375.3,933.7c9.7-5.6,40.2,15.7,85.6,10.6
		s132.6,8.3,172.7-14.2c19.5-10.9,61.1-6.2,96.4-2.4c43.9,4.7,91.4,12.9,120.5,26.1"/>
	<path fill="none" stroke="#EDE788" stroke-width="4" stroke-miterlimit="10" d="M381,943.8c4.8-2.8,41.4,30.1,87.4,25.2
		s126.1,5.5,168.1-21.9c19.2-12.5,58.8-13.3,95.7-12.1c46.9,1.5,96.3,8.6,118.3,18.8"/>
</g>
<g>
	<path fill="none" stroke="#EDE788" stroke-width="4" stroke-miterlimit="10" d="M246.4,912.2c-0.6-2.9,2.6-6.2,5-8.6
		c13.9-14,62-16.2,88.6-31.6"/>
	<path fill="none" stroke="#EDE788" stroke-width="4" stroke-miterlimit="10" d="M250,919.2c18.4-11.7,72.4-23.7,95.7-37.3"/>
	<path fill="none" stroke="#EDE788" stroke-width="4" stroke-miterlimit="10" d="M257.7,929.5c22.6-9.7,73.6-25.9,93.6-37.5"/>
	<path fill="none" stroke="#EDE788" stroke-width="4" stroke-miterlimit="10" d="M266.8,940.9c26.7-7.8,73.5-29.1,90.2-38.8"/>
	<path fill="none" stroke="#EDE788" stroke-width="4" stroke-miterlimit="10" d="M268.3,955.1c30.9-6.2,81-35.2,94.3-42.9"/>
	<path fill="none" stroke="#EDE788" stroke-width="4" stroke-miterlimit="10" d="M262.4,970.5c35.1-4.6,96-42.5,105.9-48.3"/>
	<path fill="none" stroke="#EDE788" stroke-width="4" stroke-miterlimit="10" d="M255.1,981.9c39.4-3,112.2-45.7,118.9-49.6"/>
	<path fill="none" stroke="#EDE788" stroke-width="4" stroke-miterlimit="10" d="M251.3,991.1c0.4,4,4.6,6.6,15.4,6.2
		c43.7-1.5,109.5-53,112.9-54.9"/>
</g>
<path fill="#C1272D" d="M532.8,1550l-17.8-17.8c-0.6-0.6-0.6-1.6,0-2.2l17.8-17.8c0.6-0.6,1.6-0.6,2.2,0l17.8,17.8
	c0.6,0.6,0.6,1.6,0,2.2L535,1550C534.4,1550.7,533.4,1550.7,532.8,1550z"/>
<path fill="#C1272D" d="M522.8,1642.5l-17.8-17.8c-0.6-0.6-0.6-1.6,0-2.2l17.8-17.8c0.6-0.6,1.6-0.6,2.2,0l17.8,17.8
	c0.6,0.6,0.6,1.6,0,2.2l-17.8,17.8C524.4,1643.2,523.4,1643.2,522.8,1642.5z"/>
<path fill="#C1272D" d="M512.8,1550l-17.8-17.8c-0.6-0.6-0.6-1.6,0-2.2l17.8-17.8c0.6-0.6,1.6-0.6,2.2,0l17.8,17.8
	c0.6,0.6,0.6,1.6,0,2.2l-17.8,17.8C514.4,1550.7,513.4,1550.7,512.8,1550z"/>
<polygon fill="#C1272D" points="540.8,1623.6 507.1,1623.6 507.1,1548.1 523.9,1539.5 540.8,1548.1 "/>
<path fill="#0D0C3D" d="M306.7,1424.8c0,0,180.9,118.6,181.4,161.8c0.5,43.2,0,34.6,0,98c-48.6-153.4-159-156.2-159-156.2V1487
	l-36-15.8L306.7,1424.8z"/>
<path fill="#CCCCCC" d="M517.1,1503.6"/>
<path fill="#100F51" d="M637.3,1681.9v2.6H414.2v-2.6h-54.6v183.6h54.6v-85c0-22.8,18.5-41.3,41.3-41.3h149.8c17.7,0,32,14.3,32,32
	v94.3H692v-183.6H637.3z"/>
<path d="M401.9,1902.9h-18.6l-0.3-6.8l-43,6.8h-42.5l0,0c0-20.6,38.7-37.4,59.4-37.4h59.4v23.1
	C416.2,1896.5,409.8,1902.9,401.9,1902.9z"/>
<path d="M650.9,1902.9h18.6l0.3-6.8l43,6.8h42.5l0,0c0-20.6-38.7-37.4-59.4-37.4h-59.4v23.1C636.6,1896.5,643,1902.9,650.9,1902.9z"
	/>
<path fill="#100F51" d="M1912.7,1749.9l-2.1,1.5L1785,1566.9l2.1-1.5l-30.7-45.2l-182.4-39l-11.2,46.6l116.1,33.7
	c25.8,5.2,61.7,47,74.5,65.9l62.7,92.1c9.9,14.6-5.4,47.5-18.6,47.5c-13.2,0-116.4-38.8-116.4-38.8l-15.1,36.9
	c0,0,132.2,58.5,145.5,58.5c13.2,0,132-28.7,132-28.7L1912.7,1749.9z"/>
<polygon fill="#1B1464" points="1838.1,1700.9 1938,1796.4 2138.3,1723.6 2032.3,1567.9 "/>
<polygon fill="#1B1464" points="1780.3,1606.2 1707.2,1454.1 1930.8,1436.8 2028,1534.3 1837.1,1589.7 "/>
<g>
	<path fill="#FCBE8B" d="M2304.4,1733l-16.2-14.6c-1.9-1.7-4.9-1.6-6.6,0.3l0,0c-1.7,1.9-1.6,4.9,0.3,6.6l16.2,14.6
		c1.9,1.7,4.9,1.6,6.6-0.3l0,0C2306.5,1737.7,2306.4,1734.7,2304.4,1733z"/>
	<path fill="#FCBE8B" d="M2318.7,1732.2l-22.6-15.5c-2.1-1.5-5.1-0.9-6.5,1.2l0,0c-1.5,2.1-0.9,5.1,1.2,6.5l22.6,15.5
		c2.1,1.5,5.1,0.9,6.5-1.2l0,0C2321.4,1736.6,2320.8,1733.7,2318.7,1732.2z"/>
	<path fill="#FCBE8B" d="M2322.4,1717.3l-26.6-6.7c-2.5-0.6-5.1,0.9-5.7,3.4l0,0c-0.6,2.5,0.9,5.1,3.4,5.7l26.6,6.7
		c2.5,0.6,5.1-0.9,5.7-3.4l0,0C2326.4,1720.5,2324.9,1717.9,2322.4,1717.3z"/>
	<path fill="#FCBE8B" d="M2320.8,1703.1l-27.4,0.7c-2.6,0.1-4.6,2.2-4.6,4.8l0,0c0.1,2.6,2.2,4.6,4.8,4.6l27.4-0.7
		c2.6-0.1,4.6-2.2,4.6-4.8l0,0C2325.5,1705.1,2323.4,1703,2320.8,1703.1z"/>
	<path fill="#FCBE8B" d="M2302.5,1694.3l-18.4,10.5c-2.3,1.3-3,4.2-1.8,6.4l0,0c1.3,2.3,4.2,3,6.4,1.8l18.4-10.5
		c2.3-1.3,3-4.2,1.8-6.4l0,0C2307.7,1693.8,2304.8,1693,2302.5,1694.3z"/>
	<path fill="#FCBE8B" d="M2296.8,1701.8l7.2,1.8c7.5,1.9,12,9.4,10.1,16.9l-0.4,1.6c-1.9,7.5-9.4,12-16.9,10.1l-7.2-1.8
		c-7.5-1.9-12-9.4-10.1-16.9l0.4-1.6C2281.7,1704.5,2289.3,1700,2296.8,1701.8z"/>
</g>
<g>
	<path fill="#F2B486" d="M2077.5,1706.4l-197.4-290c20.1-25.1,55.3-83.2,76.3-97.5l324.4-230.8c21-14.3,49.5-8.8,63.8,12.1
		l197.4,290c14.3,21,8.8,49.5-12.1,63.8l-329,224C2179.9,1692.2,2119.1,1691,2077.5,1706.4z"/>
</g>
<path fill="#FCBE8B" d="M2587,1329.7c0,0-2.6-47.7-50.5-115.6s-130-150.6-130-150.6c-14.3-21-42.8-26.4-63.8-12.1
	c0,0-34.7,24.2-74.4,50.8c-0.4-1.5-1.1-2.8-1.9-4.1c-9.2-13.5-40-8.5-68.8,11.2c-5.5,3.7-10.5,7.7-15,11.9
	c-13.7-4.2-37.3,2.2-59.7,17.5c-28.9,19.6-44.8,46.5-35.6,59.9c2.3,3.3,5.9,5.5,10.5,6.7c-26.8,20.8-52.8,44.3-56.3,51.3
	c-23.1-5.1-39.1,5.8-56.4,17.6c-19.9,13.6-33.5,33.1-40,54.6c-4.8,9.1-6.4,19.6-4.5,29.7c-0.1,20.4,5.7,41.1,18.1,59.3
	c10.9,16,20.5,35.3,36.8,43l2.8,4.1c-3.6,27.2,7.3,48.3,23.8,72.6c16.5,24.3,35.8,47.5,62.4,54.1l2.1,3.1
	c1.2,18,11.9,28.6,22.8,44.7c12,17.6,28.4,30.4,46.7,37.9c10.6,7.6,23.9,10.4,36.6,7.7c20.7,0.6,41.7-5,60-17.5
	c16.6-11.3,23.6-12.5,36.1-43.8c9.4-0.6,44.4-16.4,74.7-34c0.3,0.7,0.7,1.3,1.1,1.9c9.2,13.5,40,8.5,68.8-11.2
	c23.5-16,38.4-36.8,38.2-51.2c2.7-1.6,5.5-3.3,8.2-5.2c26.5-18.1,42.1-42.2,37.4-56.4c39.4-27.2,74.6-50.2,74.6-50.2
	C2612.7,1402.9,2601.3,1350.7,2587,1329.7z"/>
<g>
	<polygon fill="#4D4D4D" points="2157.1,1512 2082.3,1402.1 2100.4,1407 2160.5,1495.4 	"/>
	<path fill="#F2F2F2" stroke="#4D4D4D" stroke-linecap="round" stroke-miterlimit="10" d="M2140.2,1403.6l13.9,20.4
		c3.4,5,2.9,11.3-1.2,14.1l-19.5,13.3c-4.1,2.8-10.1,0.9-13.6-4.1l-16.6-24.4c-3.4-5-2.9-11.3,1.2-14.1l0.6-0.4"/>
	<path fill="#F2F2F2" stroke="#4D4D4D" stroke-linecap="round" stroke-miterlimit="10" d="M2159.4,1498.6c-1.9,1.3-6-1.9-9.4-6.9
		l-16.6-24.4c-3.4-5-2.9-11.3,1.2-14.1l19.5-13.3c4.1-2.8,10.1-0.9,13.6,4.1l22.8,33.5"/>
	<path fill="#F2F2F2" stroke="#4D4D4D" stroke-linecap="round" stroke-miterlimit="10" d="M2092.3,1407.4l12.2,18
		c3.4,5,2.9,11.3-1.2,14.1l-19.5,13.3c-4.1,2.8-10.1,0.9-13.6-4.1l-6.1-9"/>
	<path fill="#F2F2F2" stroke="#4D4D4D" stroke-linecap="round" stroke-miterlimit="10" d="M2081.7,1401.3"/>
	<path fill="#F2F2F2" stroke="#4D4D4D" stroke-linecap="round" stroke-miterlimit="10" d="M2101.4,1494.4l-23.2-34
		c-0.4-0.6-0.3-1.4,0.3-1.8l32.1-21.8c0.6-0.4,1.4-0.3,1.8,0.3l23.2,34c0.4,0.6,0.3,1.4-0.3,1.8l-32.1,21.8
		C2102.6,1495.2,2101.8,1495,2101.4,1494.4z"/>
	<path fill="#F2F2F2" stroke="#4D4D4D" stroke-linecap="round" stroke-miterlimit="10" d="M2115.7,1515.5l-7.4-10.8
		c-3.4-5-2.9-11.3,1.2-14.1l19.5-13.3c4.1-2.8,10.1-0.9,13.6,4.1l12.2,18c3.4,5,2.9,11.3-1.2,14.1l-2.9,2"/>
	<path fill="#C46262" d="M2052.5,1376.6c-0.3-0.5-2-2.8-2.3-3.4c-7.1-12,0-4.6-0.8-6.4c-3.8-8.5,20.1,14.9,29.1,28
		c1.6,2.4-0.4,1.2,0.4,2.2c3.4,5,3,4.2,3.4,5c1.9,3.4,4.6,2.6,3.5,3.2c-2.6,1.5-0.7,1.9-6.6-6.7c-6.7-9.8-21-21.5-21.4-21.5
		C2056.7,1377.2,2053.2,1377.6,2052.5,1376.6z"/>
	<path fill="#C46262" d="M2167.4,1560c-0.6-0.8-0.8-1.9-0.7-2.8c0-0.1,1.4-8.3-1.5-20.7c-2.6-11.2-10.8-15.5-11.1-15.7
		c-1.6-0.9-2.6-2.8-2.1-4.4c0.5-1.6,2.1-2.3,3.8-1.4c0.5,0.2,11.8,6.1,15.4,21.2c3.3,13.9,1.7,23.1,1.6,23.5
		c-0.3,1.7-1.9,2.5-3.6,1.8C2168.5,1561.1,2167.8,1560.6,2167.4,1560z"/>
	<path fill="#D89191" d="M2078.5,1394.9c0,0,3.3,9.5-3.2,20.1s-33.3,25.9-25.8,36.9c6.4,9.4,30,21.4,36.4,38
		c8.7,22.5,18.8,43.1,26,53.6c5.4,8,14.9-27.5,26.2-28.2c14.6-0.9,28.6,19.8,28.6,19.8s-8.4-24-20.5-34.5c-12.1-10.5-30,1.1-30,1.1
		l-34.9-48.6l9.7-39.4L2078.5,1394.9z"/>
	<path fill="#AF7777" d="M2078.5,1394.9c0,0,12.2,9.5,15,22.8c2.3,10.5-5.5,24.3-0.7,30.9c10.8,14.9,22.3,32.7,30,44.1
		c3,4.5,13.5-1.7,21.2,3.5c11.9,8.1,22.6,39,22.6,39s-7.7-26-22.4-30c-11.1-3-30.4,5.2-35.3-2c-11.4-16.7-28.5-41.8-34.7-50.9
		c-3.1-4.6,11-17,12.8-30.2C2089,1408.8,2078.5,1394.9,2078.5,1394.9z"/>
	<path fill="#C46262" d="M2166.9,1402l-19.4,1.4c-1.6,0-10.2,0.2-9.2,1.7l14,20.5c2.2,3.2,1.6,8-1,9.8c-2.9,2-0.4,4.5,0.2,3.8
		l14.8-18.4c0.1-0.2,7.8-13.3,7.9-13.5l-2.8-3.4C2172,1402.4,2168.5,1402,2166.9,1402z"/>
	<path fill="#C46262" d="M2219.2,1440l-30.8-3.3c0,0-36.5,0-36.9,2.5s2.6,4.1,2.6,4.1s-1.7,1.1,1.8-1.2c2.3-1.6,7.7,0,10.1,3.6
		c2.1,3.1,22.4,32.9,22.4,32.9l43.9-27.6L2219.2,1440z"/>
	<path fill="#D89191" d="M2078.5,1394.9c0,0,11.1,11.5,26.9,10.5c27-1.8,79.2-32.4,84.6-24.9c8.6,11.9-31,53-31,53s68.1,1.2,77.3,15
		c5.4,8-65.5,35.4-74.9,53.4c-2.3,4.5,2.3,16.2,3.7,21.6c2.6,10.1,4.6,13.3,4.6,13.3s-5.6-5-9.1-15.2c-1.2-3.5-6-13.2-5-16
		c6.3-17.8,67.7-46.4,64.8-54.6c-4.7-13.3-68.8-11.7-68.8-11.7s24.2-29.6,19-35.4c-3.4-3.9-43.9,6.3-70.1,4.9
		C2087.3,1408.1,2078.5,1394.9,2078.5,1394.9z"/>
</g>
<path fill="#F9EC8F" d="M2511.1,1431.1c-48.6,42.1-78,75.2-46.1,154.3c-9.3-82.7,149-162.6,149-162.6l-67.4-79.2
	C2546.7,1343.6,2559.7,1388.9,2511.1,1431.1z"/>
<ellipse transform="matrix(0.5627 0.8266 -0.8266 0.5627 2116.5369 -1245.5356)" fill="#C1916C" cx="2235.6" cy="1377.9" rx="17" ry="19.9"/>
<ellipse transform="matrix(0.5627 0.8266 -0.8266 0.5627 2147.5022 -1253.908)" fill="#C1916C" cx="2259" cy="1402.9" rx="17" ry="19.9"/>
<g>
	<defs>
		<path id="SVGID_5_" d="M2254.8,1204.8c-1.9,1.3,9,20.7,24.4,43.4c15.4,22.6,29.5,39.9,31.4,38.6c1.9-1.3-2.9-24.9-18.3-47.5
			C2276.9,1216.6,2256.7,1203.5,2254.8,1204.8z"/>
	</defs>
	<clipPath id="SVGID_6_">
		<use xlink:href="#SVGID_5_"  overflow="visible"/>
	</clipPath>
</g>
<g>
	<path fill="none" stroke="#C68B60" stroke-width="4" stroke-linecap="round" stroke-miterlimit="10" d="M2009.4,1419.6l3.5,5.1
		c-3.5,33.2,4.4,68.1,24.9,98.3c20.6,30.2,50.2,50.4,82.3,59.3l2.6,3.8"/>
	<path fill="none" stroke="#C68B60" stroke-width="4" stroke-linecap="round" stroke-miterlimit="10" d="M1999.9,1323.5l1.2,2.1
		c-6.9,15.1-7.7,30.3-0.8,42.8c6.9,12.5,20.2,20,36.6,22.3l0.9,1.6"/>
	<path fill="none" stroke="#C68B60" stroke-width="4" stroke-linecap="round" stroke-miterlimit="10" d="M2161,1567.9l1.2,2.1
		c-6.9,15.1-7.7,30.3-0.8,42.8c6.9,12.5,20.2,20,36.6,22.3l0.9,1.6"/>
	<path fill="none" stroke="#C68B60" stroke-width="4" stroke-linecap="round" stroke-miterlimit="10" d="M2234.9,1243.5l1.3,1.8
		c0.7,10.9,5,22.6,12.9,32.9c7.9,10.3,18.1,17.5,28.4,21l1,1.3"/>
	<path fill="none" stroke="#C68B60" stroke-width="4" stroke-linecap="round" stroke-miterlimit="10" d="M2227.2,1248.8l1.3,1.8
		c0.7,10.9,5,22.6,12.9,32.9c7.9,10.3,18.1,17.5,28.4,21l1,1.3"/>
	<path fill="none" stroke="#C68B60" stroke-width="4" stroke-linecap="round" stroke-miterlimit="10" d="M2336.3,1377.6l0.9,2
		c-2,10.7-0.6,23.1,4.6,35c5.2,11.9,13.4,21.3,22.6,27.2l0.7,1.5"/>
	<path fill="none" stroke="#C68B60" stroke-width="4" stroke-linecap="round" stroke-miterlimit="10" d="M2327.6,1380.8l0.9,2
		c-2,10.7-0.6,23.1,4.6,35c5.2,11.9,13.4,21.3,22.6,27.2l0.7,1.5"/>
	<path fill="none" stroke="#C68B60" stroke-width="4" stroke-linecap="round" stroke-miterlimit="10" d="M2236.7,1153.3l0.3,1.6
		c-5,7.7-7.3,17.1-5.7,26.8c1.5,9.7,6.5,17.9,13.6,23.7l0.2,1.2"/>
	<path fill="none" stroke="#C68B60" stroke-width="4" stroke-linecap="round" stroke-miterlimit="10" d="M2229.8,1217.7l-1.3-1
		c-1.9-8.9-6.9-17.2-14.9-23s-17.3-8.1-26.4-7.2l-1-0.7"/>
	<path fill="none" stroke="#C68B60" stroke-width="4" stroke-linecap="round" stroke-miterlimit="10" d="M2468.8,1484.1l-1.4-0.8
		c-9,1.8-18.5,0.5-27-4.5c-8.5-5-14.3-12.7-17.1-21.4l-1.1-0.6"/>
	<path fill="none" stroke="#C68B60" stroke-width="4" stroke-linecap="round" stroke-miterlimit="10" d="M2406.4,1466.9l0.4,1.6
		c7.6,5.1,13.5,12.8,15.9,22.2c2.5,9.5,1.1,19.1-3,27.2l0.3,1.2"/>
	<path fill="none" stroke="#C68B60" stroke-width="4" stroke-linecap="round" stroke-miterlimit="10" d="M2188.8,1331.2
		c-51.4-25.4-72.7-87.2-47.6-138"/>
	<path fill="none" stroke="#C68B60" stroke-width="4" stroke-linecap="round" stroke-miterlimit="10" d="M2274.6,1457.2
		c4.8,57.1,54.5,99.6,111,94.9"/>
	
		<line fill="none" stroke="#C68B60" stroke-width="4" stroke-linecap="round" stroke-miterlimit="10" x1="2206.1" y1="1166.6" x2="2229.7" y2="1201.4"/>
	
		<line fill="none" stroke="#C68B60" stroke-width="4" stroke-linecap="round" stroke-miterlimit="10" x1="2423.3" y1="1475.5" x2="2447" y2="1510.2"/>
	<path fill="#FCBE8B" stroke="#C68B60" stroke-width="4" stroke-linecap="round" stroke-miterlimit="10" d="M2347.5,1256.4
		c0,0,11.8,26.9-14.2,44.6s-64.3,43.7-64.3,43.7s-2.7-15.3-31.5-0.8s-34.1,47-16.5,29.6c4.1-4.1,16.5-9.9,16.5-9.9
		s-15.3,21.2-7.8,33.8s36.6,4.9,36.6,4.9l-20.8,14.2c0,0,15.1,15.7,38.3-0.1c23.2-15.8,15.1-32.4,15.1-32.4s44.5-34.1,64.8-47.9
		c20.3-13.8,53.5,9.8,53.5,9.8"/>
	<path fill="none" stroke="#C68B60" stroke-width="4" stroke-miterlimit="10" d="M2189.8,1351.7c0,0-102.3,41.7-135.2-6.7"/>
	<path fill="none" stroke="#C68B60" stroke-width="4" stroke-miterlimit="10" d="M2253.7,1451.9c0,0-58.9,45.5-74,102.1"/>
</g>
<path fill="#F9EC8F" d="M2183.3,1118.2c119.8,56,225.9-64.4,267.1-70.8c41.2-6.5-139.3,10.6-97.5-34.6L2183.3,1118.2z"/>
<g>
	<path fill="#FFF597" d="M2340,1037.8c35.9,32,125.6,34.1,125.6,34.1s2.2,61.5,40,89.1c37.8,27.6,87.5,82.1,141.7,86.9
		c54.2,4.8,153.1,105.7,164.3,133c-35.8-77.4-48.4-113.8-49.9-148c-1.5-34.2-17.4-97.3-31.7-116.2s-91-143.9-126.3-166.1
		c-35.3-22.2-66.2,29.9-115.6,19.8c-51-10.5-94.9-84.6-97.7,14.7C2389.4,1014.9,2304.1,1005.7,2340,1037.8z"/>
	<line fill="#FFD1A6" stroke="#EDE788" stroke-width="4" stroke-miterlimit="10" x1="2495.9" y1="972" x2="2465.5" y2="1071.8"/>
	<g>
		<path fill="none" stroke="#EDE788" stroke-width="4" stroke-miterlimit="10" d="M2490.6,986.2c43.9,9,71.6-30.5,107.2-7.7
			c35.6,22.8,110.1,139.1,128,157.3c16.1,16.4,32.7,75.5,37.7,108.5c5.1,34,20.6,70.5,53.1,141.1"/>
		<path fill="none" stroke="#EDE788" stroke-width="4" stroke-miterlimit="10" d="M2488.1,997.5c38.4,7.9,62.9-19,98.8,4.4
			s110.7,128,129.7,148.5c15.2,16.4,35.2,69,43.7,100.9c8.9,33.9,27.1,70.5,56.3,134.2"/>
		<path fill="none" stroke="#EDE788" stroke-width="4" stroke-miterlimit="10" d="M2485.7,1008.8c32.9,6.8,54.3-7.5,90.4,16.5
			c36.1,24,105.2,123.1,131.4,139.7c18.5,11.7,37.9,62.5,49.6,93.2c12.9,33.7,33.6,70.5,59.6,127.3"/>
		<path fill="none" stroke="#EDE788" stroke-width="4" stroke-miterlimit="10" d="M2483.2,1020.1c27.5,5.6,45.6,4,82,28.6
			c36.4,24.6,102.4,115.4,133.1,130.9c19.4,9.8,40.7,56,55.6,85.5c16.9,33.6,40.1,70.5,62.8,120.4"/>
		<path fill="none" stroke="#EDE788" stroke-width="4" stroke-miterlimit="10" d="M2480.7,1031.4c22,4.5,36.9,15.5,73.6,40.7
			c36.7,25.2,99.4,108.1,134.9,122.1c20.2,8,43.7,49.4,61.6,77.8c21.1,33.4,46.6,70.5,66,113.5"/>
		<path fill="none" stroke="#EDE788" stroke-width="4" stroke-miterlimit="10" d="M2478.2,1042.7c16.5,3.4,28.2,27,65.2,52.8
			c37,25.8,96.4,101.1,136.6,113.3c21,6.4,46.6,42.8,67.5,70.1c25.3,33.2,53.1,70.6,69.2,106.6"/>
		<path fill="none" stroke="#EDE788" stroke-width="4" stroke-miterlimit="10" d="M2475.7,1053.9c11,2.3,19.5,38.5,56.8,64.9
			c37.3,26.4,93.3,94.5,138.3,104.5c21.8,4.9,49.7,36.1,73.5,62.4c29.6,32.8,59.6,70.6,72.4,99.7"/>
		<path fill="none" stroke="#EDE788" stroke-width="4" stroke-miterlimit="10" d="M2473.3,1065.2c5.5,1.1,10.8,50,48.4,77
			c37.5,27,90.4,88.2,140,95.7c22.7,3.5,52.7,29.3,79.5,54.7c34,32.3,66.1,70.6,75.7,92.8"/>
	</g>
	<g>
		<path fill="none" stroke="#EDE788" stroke-width="4" stroke-miterlimit="10" d="M2393.9,952c1.5-2.6,6-2.9,9.5-3.1
			c19.7-1.2,57,29.2,87.1,35.4"/>
		<path fill="none" stroke="#EDE788" stroke-width="4" stroke-miterlimit="10" d="M2391.9,959.6c21.5,3.5,69.8,30.5,96.2,36"/>
		<path fill="none" stroke="#EDE788" stroke-width="4" stroke-miterlimit="10" d="M2390.9,972.5c23.3,7.8,72.1,29.8,94.7,34.4"/>
		<path fill="none" stroke="#EDE788" stroke-width="4" stroke-miterlimit="10" d="M2390,987c25.1,11.9,74.3,27.3,93.1,31.1"/>
		<path fill="none" stroke="#EDE788" stroke-width="4" stroke-miterlimit="10" d="M2381.7,998.6c27.2,16,83.9,27.7,99,30.8"/>
		<path fill="none" stroke="#EDE788" stroke-width="4" stroke-miterlimit="10" d="M2367,1006.1c29.3,20,99.9,32.3,111.2,34.6"/>
		<path fill="none" stroke="#EDE788" stroke-width="4" stroke-miterlimit="10" d="M2354,1009.8c31.4,24,114.2,40.7,121.7,42.2"/>
		<path fill="none" stroke="#EDE788" stroke-width="4" stroke-miterlimit="10" d="M2345,1014.2c-2.4,3.3-0.9,7.9,7.4,14.9
			c33.6,28,117,33.5,120.8,34.2"/>
	</g>
</g>
<path fill="#FFF597" d="M2271.6,1098.4c0,0,9.8,46.3,44.4,65.2c11.7,6.4,27.2,9.7,42.5,11.2c29.7,3,30.3,60.8,30.3,60.8
	s8.2-65.7-18.6-75.3c-11.9-4.3-25.2-9.6-38.6-16.2C2288.3,1123,2271.6,1098.4,2271.6,1098.4z"/>
<path fill="#FFF597" d="M2549.4,1459.3c0,0-39.5-26.1-44.4-65.2c-1.7-13.3,1-28.9,5.2-43.7c8.1-28.7-45.4-50.5-45.4-50.5
	s64.1,16.4,63.2,44.9c-0.4,12.7-0.3,27,0.9,41.8C2532.8,1434.7,2549.4,1459.3,2549.4,1459.3z"/>
<polygon fill="#CCCCCC" points="1844,1653.6 1820.9,1682.2 1862.2,1680.3 2041.6,1627.1 1979,1561.7 "/>
<polygon fill="#CCCCCC" points="1785.2,1644.3 1809.1,1602.3 1943.9,1483.5 1981.8,1565.7 1843.1,1653.7 "/>
<polygon fill="#E6E6E6" points="2184.9,1687.1 1989.8,1565.5 2006.2,1657.4 "/>
<path fill="#E6E6E6" d="M2283.9,1746.3l0.4-52.5l-45.8-0.3c-3.5,0-6.4,2.8-6.4,6.3l-0.3,41.4c0,2.6,2.1,4.8,4.7,4.8L2283.9,1746.3z"
	/>
<path fill="#1B1464" d="M2263.7,1747.5l0.4-54.6l-177.2-1.3c-3.5,0-6.4,2.8-6.4,6.3l-0.3,43.5c0,2.6,2.1,4.8,4.7,4.8L2263.7,1747.5z
	"/>
<path fill="#0D0C3D" d="M2180.9,1687c0,0-198.9-81.3-235.8-58.9c-38.5,23.3-65.7,34.7-107,72.8c154.1-46.2,244.6,25.8,244.6,25.8
	l34.2-23.2l33.3,20.8L2180.9,1687z"/>
<polygon fill="#E6E6E6" points="1940.6,1328.2 1982.2,1554.2 1902.7,1505.3 "/>
<g>
	<path fill="#E6E6E6" d="M1929.7,1237.7l48.1,22.9L1958,1302c-1.5,3.2-5.3,4.5-8.5,3l-38.1-18.1c-2.4-1.1-3.4-4-2.2-6.3
		L1929.7,1237.7z"/>
	<path fill="#1B1464" d="M1919.8,1255.3l49.3,23.5l-76.2,160c-1.5,3.2-5.3,4.5-8.5,3l-39.3-18.7c-2.4-1.1-3.4-4-2.2-6.3
		L1919.8,1255.3z"/>
</g>
<path fill="#C1272D" d="M1962.9,1589.3l4.7-24.7c0.2-0.9,1-1.4,1.8-1.3l24.7,4.7c0.9,0.2,1.4,1,1.3,1.8l-4.7,24.7
	c-0.2,0.9-1,1.4-1.8,1.3l-24.7-4.7C1963.3,1591,1962.8,1590.2,1962.9,1589.3z"/>
<path fill="#C1272D" d="M1951.7,1572.8l4.7-24.7c0.2-0.9,1-1.4,1.8-1.3l24.7,4.7c0.9,0.2,1.4,1,1.3,1.8l-4.7,24.7
	c-0.2,0.9-1,1.4-1.8,1.3l-24.7-4.7C1952.1,1574.5,1951.5,1573.6,1951.7,1572.8z"/>
<path d="M1539.6,1510.6l3.5-18.2l6.7,0.9l1.4-43.5l7.9-41.8l0,0c20.3,3.9,29.5,45,25.6,65.3l-11.1,58.3l-22.7-4.3
	C1543.2,1525.8,1538.1,1518.4,1539.6,1510.6z"/>
<path d="M1641.1,1727.4l-7,17.2l6.1,2.9l-22.6,37.2l-16.2,39.3l0,0c19.1,7.8,49.3-21.6,57.1-40.7l22.6-54.9l-21.3-8.8
	C1652.5,1716.6,1644.1,1720.1,1641.1,1727.4z"/>
<path fill="#0D0C3D" d="M1939.2,1331.9c0,0,4,216.7-31.6,241c-43.1,29.4-63.6,27.7-127.3,33.3c136.5-61.5,85.9-197.4,85.9-197.4
	l34.2-23.2l-7.2-38.6L1939.2,1331.9z"/>
<path fill="#C1272D" d="M1872.3,1564.8l20.6-14.5c0.7-0.5,1.7-0.3,2.2,0.4l14.5,20.6c0.5,0.7,0.3,1.7-0.4,2.2l-20.6,14.5
	c-0.7,0.5-1.7,0.3-2.2-0.4l-14.5-20.6C1871.4,1566.3,1871.6,1565.3,1872.3,1564.8z"/>
<polygon fill="#C1272D" points="1887.9,1585.7 1893.6,1552.5 1968.1,1565.4 1973.7,1583.4 1962.3,1598.6 "/>
<path fill="#F2F2F2" d="M2350.4,1366.6c-11.1,7.6-3.8,37.7,16.4,67.4c20.2,29.6,45.5,47.5,56.7,39.9c11.1-7.6,39.2-61.9,19.1-91.5
	C2422.3,1352.8,2361.5,1359,2350.4,1366.6z"/>
<ellipse transform="matrix(-0.5627 -0.8266 0.8266 -0.5627 2568.8564 4176.1685)" fill="#21A9ED" cx="2389" cy="1408.7" rx="13.1" ry="9.8"/>
<ellipse transform="matrix(-0.5627 -0.8266 0.8266 -0.5627 2576.1472 4175.355)" fill="#1A1A1A" cx="2392.4" cy="1406.3" rx="4" ry="3"/>
<path fill="#F2F2F2" d="M2226.8,1185.1c-11.1,7.6-3.8,37.7,16.4,67.4s45.5,47.5,56.7,39.9c11.1-7.6,39.2-61.9,19.1-91.5
	S2237.9,1177.5,2226.8,1185.1z"/>
<ellipse transform="matrix(-0.5627 -0.8266 0.8266 -0.5627 2532.1987 3847.7004)" fill="#21A9ED" cx="2283.8" cy="1254.1" rx="13.1" ry="9.8"/>
<ellipse transform="matrix(-0.5627 -0.8266 0.8266 -0.5627 2532.1987 3847.7004)" fill="#1A1A1A" cx="2283.8" cy="1254.1" rx="4" ry="3"/>
<g>
	
		<rect x="645.2" y="2254.5" transform="matrix(5.080189e-02 0.9987 -0.9987 5.080189e-02 3057.4517 1511.3334)" fill="#1B1464" width="176.9" height="219.3"/>
	<path fill="#FFF597" d="M1715.5,2676.8c47.6,6.6,123.3-41.7,123.3-41.7s36.1,49.9,82.9,51.7c46.8,1.8,118.4,19.4,166.1-6.8
		c47.7-26.2,186,2.5,210.5,18.9c-72.9-44.3-103.6-67.5-123.9-95.1s-68.7-71.1-91.1-78.8c-22.4-7.8-155.8-68.8-197.5-67.5
		s-38.3,61.7-85,80.9c-48.2,19.7-126-17.4-72.9,66.7C1743.8,2630.3,1667.9,2670.2,1715.5,2676.8z"/>
	<line fill="#FFD1A6" stroke="#EDE788" stroke-width="4" stroke-miterlimit="10" x1="1808.3" y1="2535.2" x2="1838.8" y2="2635.1"/>
	<g>
		<path fill="none" stroke="#EDE788" stroke-width="4" stroke-miterlimit="10" d="M1811.9,2550.1c41.5-17,42.5-65.2,84.7-66.1
			s169,54.1,194,59.3c22.5,4.6,69.2,44.4,91.8,69.1c23.2,25.4,56.4,47.1,122.7,87.5"/>
		<path fill="none" stroke="#EDE788" stroke-width="4" stroke-miterlimit="10" d="M1816.1,2560.8c36.3-14.9,41.7-50.8,84.5-51.4
			s163.2,44.6,190.5,51c21.7,5.1,67.7,37.6,92.5,59.4c26.3,23.1,61.8,43.5,121.6,80"/>
		<path fill="none" stroke="#EDE788" stroke-width="4" stroke-miterlimit="10" d="M1820.3,2571.6c31.1-12.7,40.9-36.4,84.3-36.7
			c43.4-0.2,156,43.6,187,42.8c21.9-0.6,66.3,30.7,93.1,49.7c29.5,20.9,67.2,39.9,120.4,72.5"/>
		<path fill="none" stroke="#EDE788" stroke-width="4" stroke-miterlimit="10" d="M1824.6,2582.3c25.9-10.6,40.1-22.1,84-21.9
			s149.3,38.8,183.5,34.5c21.5-2.7,65,23.8,93.8,40c32.8,18.5,72.6,36.2,119.2,65"/>
		<path fill="none" stroke="#EDE788" stroke-width="4" stroke-miterlimit="10" d="M1828.8,2593.1c20.7-8.5,39.3-7.7,83.8-7.2
			c44.5,0.5,142.8,34.4,180,26.2c21.2-4.6,63.8,16.7,94.5,30.3c36.1,16,78,32.6,118.1,57.5"/>
		<path fill="none" stroke="#EDE788" stroke-width="4" stroke-miterlimit="10" d="M1833,2603.8c15.6-6.4,38.5,6.7,83.6,7.5
			c45.1,0.8,136.4,30.3,176.5,18c21-6.4,62.6,9.5,95.1,20.6c39.5,13.4,83.4,29,116.9,49.9"/>
		<path fill="none" stroke="#EDE788" stroke-width="4" stroke-miterlimit="10" d="M1837.3,2614.6c10.4-4.2,37.7,21.1,83.3,22.3
			c45.7,1.2,130.2,26.4,173,9.7c20.8-8.1,61.4,2.3,95.8,10.9c42.9,10.7,88.8,25.4,115.7,42.4"/>
		<path fill="none" stroke="#EDE788" stroke-width="4" stroke-miterlimit="10" d="M1841.5,2625.3c5.2-2.1,36.9,35.5,83.1,37
			s124.2,22.8,169.5,1.5c20.8-9.8,60.1-5,96.5,1.2c46.2,7.9,94.2,21.8,114.5,34.9"/>
	</g>
	<g>
		<path fill="none" stroke="#EDE788" stroke-width="4" stroke-miterlimit="10" d="M1712.5,2575.5c-0.2-3,3.4-5.8,6.1-7.9
			c15.7-12,63.6-7.5,92.1-19.1"/>
		<path fill="none" stroke="#EDE788" stroke-width="4" stroke-miterlimit="10" d="M1715.1,2583c19.8-9,75-13.5,99.9-23.7"/>
		<path fill="none" stroke="#EDE788" stroke-width="4" stroke-miterlimit="10" d="M1721.4,2594.2c23.7-6.5,76.5-15.5,97.8-24.2"/>
		<path fill="none" stroke="#EDE788" stroke-width="4" stroke-miterlimit="10" d="M1728.8,2606.8c27.5-4.1,76.9-18.7,94.7-26"/>
		<path fill="none" stroke="#EDE788" stroke-width="4" stroke-miterlimit="10" d="M1728.3,2621c31.4-1.9,85.1-23.7,99.3-29.6"/>
		<path fill="none" stroke="#EDE788" stroke-width="4" stroke-miterlimit="10" d="M1720.3,2635.5c35.4,0.3,100.9-28.9,111.6-33.2"/>
		<path fill="none" stroke="#EDE788" stroke-width="4" stroke-miterlimit="10" d="M1711.5,2645.7c39.5,2.4,117.5-29.8,124.6-32.8"/>
		<path fill="none" stroke="#EDE788" stroke-width="4" stroke-miterlimit="10" d="M1706.6,2654.4c-0.2,4.1,3.6,7.1,14.4,8.2
			c43.5,4.5,115.8-37.4,119.4-38.9"/>
	</g>
	<g>
		<path fill="#F2B486" d="M800.4,2619.7l-17.8-350.3c30.2-10.9,90.6-42.3,115.9-43.6l397.1-28.4c25.3-1.3,46.9,18.2,48.2,43.5
			l17.8,350.3c1.3,25.3-18.2,46.9-43.5,48.2l-397.5,20.2C895.2,2660.8,844,2628.2,800.4,2619.7z"/>
	</g>
	<path fill="#FCBE8B" d="M1448.4,2437.8c-5.6-82.9-32.7-196.3-32.7-196.3c-1.3-25.3-22.9-44.8-48.2-43.5c0,0-42.2,2.7-90,4.7
		c0.4-1.5,0.7-3,0.6-4.5c-0.8-16.3-29.8-28-64.6-26.2c-6.7,0.3-13,1.2-19,2.4c-9.5-10.7-33-17.5-60-16.1
		c-34.9,1.8-62.4,16.4-61.6,32.7c0.2,4,2.1,7.8,5.5,11.1c-33.7,3.8-68.2,10.4-74.8,14.6c-17-16.4-36.5-15.4-57.3-14.3
		c-24.1,1.2-45.8,10.8-62.6,25.8c-8.8,5.3-15.6,13.4-19.3,23c-10.7,17.4-16.5,38.1-15.4,60.1c1,19.4-0.8,40.8,9.1,55.8l0.3,5
		c-17.2,21.3-18.9,45-17.4,74.4c1.5,29.4,5.9,59.2,25.2,78.7l0.2,3.7c-8.3,16-4.7,30.7-3.7,50c1.1,21.3,8.5,40.8,20.2,56.7
		c5.1,12,15,21.3,27.3,25.6c17.4,11.2,38.2,17.4,60.3,16.2c20-1,26.6,1.6,53.6-18.7c8.3,4.4,46.5,9.1,81.5,9.8
		c-0.1,0.7-0.2,1.5-0.1,2.2c0.8,16.3,29.8,28,64.6,26.2c28.4-1.4,52-11.4,59.3-23.9c3.2,0.1,6.4,0.1,9.7-0.1
		c32-1.6,57.9-14.1,61.2-28.8c47.8-2.8,89.8-4.1,89.8-4.1c25.3-1.3,42.7-51.8,41.4-77.2C1431.5,2562.9,1454.1,2520.8,1448.4,2437.8z
		"/>
	<path fill="#100F51" d="M637,2571.2l-0.6,0.1L625,2348.4l0.6-0.1l-2.8-54.6l-194.3-97.3l-13.4,38.9l105,67.2
		c28.3,11.1,44.4,30.3,44.4,81.4l7.2,105.2c0.9,17.7-15.1,46.9-31.8,41.3l-97.3-56.5l-20.3,41.1l217.4,110.8L637,2571.2z"/>
	<polygon fill="#1B1464" points="553.8,2612.7 637.4,2629.8 856.4,2618.7 816.8,2601.5 	"/>
	<path fill="#F9EC8F" d="M1313.9,2610c-63.5,10.7-105.8,23.7-119.6,107.8c35.1-75.5,211.8-61.4,211.8-61.4l-16.4-102.7
		C1389.8,2553.8,1377.4,2599.3,1313.9,2610z"/>
	
		<ellipse transform="matrix(5.080189e-02 0.9987 -0.9987 5.080189e-02 3468.2227 1193.4323)" fill="#C1916C" cx="1106.3" cy="2421.3" rx="17" ry="19.9"/>
	
		<ellipse transform="matrix(5.080189e-02 0.9987 -0.9987 5.080189e-02 3508.3589 1218.3865)" fill="#C1916C" cx="1113.2" cy="2454.9" rx="17" ry="19.9"/>
	<path fill="none" stroke="#E5B085" stroke-linecap="round" stroke-miterlimit="10" d="M1229.6,2378.9l0.6-2.1
		c8.4-7,15.2-17.4,18.8-29.9s3.4-25,0-35.3l0.5-1.6"/>
	<g>
		<defs>
			<path id="SVGID_7_" d="M1212.7,2283.4c-2.3,0.1-3.1,22.4-1.7,49.7c1.4,27.4,4.4,49.4,6.7,49.3c2.3-0.1,10.4-22.8,9.1-50.1
				C1225.4,2305,1215,2283.3,1212.7,2283.4z"/>
		</defs>
		<clipPath id="SVGID_8_">
			<use xlink:href="#SVGID_7_"  overflow="visible"/>
		</clipPath>
	</g>
	<g>
		<path fill="none" stroke="#C68B60" stroke-width="4" stroke-linecap="round" stroke-miterlimit="10" d="M891.4,2339.3l0.3,6.2
			c-20.3,26.5-31.7,60.4-29.8,96.9c1.9,36.5,16.7,69.1,39.5,93.4l0.2,4.6"/>
		<path fill="none" stroke="#C68B60" stroke-width="4" stroke-linecap="round" stroke-miterlimit="10" d="M933.2,2252.3l-0.1,2.4
			c-13.7,9.3-22.3,21.9-22.9,36.2s6.9,27.6,19.7,38l-0.1,1.8"/>
		<path fill="none" stroke="#C68B60" stroke-width="4" stroke-linecap="round" stroke-miterlimit="10" d="M943.8,2544.8l-0.1,2.4
			c-13.7,9.3-22.3,21.9-22.9,36.2c-0.6,14.2,6.9,27.6,19.7,38l-0.1,1.8"/>
		<path fill="none" stroke="#C68B60" stroke-width="4" stroke-linecap="round" stroke-miterlimit="10" d="M1175.5,2306.2l0.2,2.2
			c-5.1,9.7-7.5,21.9-6.1,34.8c1.4,12.9,6.3,24.4,13.4,32.7l0.2,1.6"/>
		<path fill="none" stroke="#C68B60" stroke-width="4" stroke-linecap="round" stroke-miterlimit="10" d="M1166.2,2306.6l0.2,2.2
			c-5.1,9.7-7.5,21.9-6.1,34.8c1.4,12.9,6.3,24.4,13.4,32.7l0.2,1.6"/>
		<path fill="none" stroke="#C68B60" stroke-width="4" stroke-linecap="round" stroke-miterlimit="10" d="M1192.5,2473.4l-0.3,2.2
			c-7.3,8.2-12.5,19.4-14.3,32.3c-1.8,12.9,0.3,25.2,5.1,35l-0.2,1.6"/>
		<path fill="none" stroke="#C68B60" stroke-width="4" stroke-linecap="round" stroke-miterlimit="10" d="M1183.3,2471.6l-0.3,2.2
			c-7.3,8.2-12.5,19.4-14.3,32.3c-1.8,12.9,0.3,25.2,5.1,35l-0.2,1.6"/>
		<path fill="none" stroke="#C68B60" stroke-width="4" stroke-linecap="round" stroke-miterlimit="10" d="M1223.9,2230l-0.6,1.5
			c-8.2,4-15.1,10.8-18.8,19.9c-3.7,9.1-3.7,18.7-0.7,27.4l-0.5,1.1"/>
		<path fill="none" stroke="#C68B60" stroke-width="4" stroke-linecap="round" stroke-miterlimit="10" d="M1184.6,2281.5l-0.6-1.5
			c3-8.6,3-18.3-0.7-27.4c-3.8-9.1-10.6-15.9-18.8-19.8l-0.5-1.1"/>
		<path fill="none" stroke="#C68B60" stroke-width="4" stroke-linecap="round" stroke-miterlimit="10" d="M1250.3,2633.3l-0.8-1.5
			c-8.6-3.1-16.1-9.2-20.7-17.9c-4.6-8.6-5.6-18.3-3.5-27.1l-0.6-1.1"/>
		<path fill="none" stroke="#C68B60" stroke-width="4" stroke-linecap="round" stroke-miterlimit="10" d="M1205.9,2586.1l-0.5,1.6
			c3.9,8.3,4.9,17.9,2,27.3c-2.8,9.4-8.9,16.9-16.7,21.7l-0.4,1.2"/>
		<path fill="none" stroke="#C68B60" stroke-width="4" stroke-linecap="round" stroke-miterlimit="10" d="M1090.6,2357.1
			c-30.7-48.4-16.8-112.3,31.1-142.7"/>
		<path fill="none" stroke="#C68B60" stroke-width="4" stroke-linecap="round" stroke-miterlimit="10" d="M1098.3,2509.3
			c-25.6,51.3-5.3,113.4,45.4,138.8"/>
		
			<line fill="none" stroke="#C68B60" stroke-width="4" stroke-linecap="round" stroke-miterlimit="10" x1="1190.9" y1="2225.5" x2="1193" y2="2267.5"/>
		
			<line fill="none" stroke="#C68B60" stroke-width="4" stroke-linecap="round" stroke-miterlimit="10" x1="1215.9" y1="2602.3" x2="1218" y2="2644.2"/>
		<path fill="#FCBE8B" stroke="#C68B60" stroke-width="4" stroke-linecap="round" stroke-miterlimit="10" d="M1265,2375.7
			c0,0-3.9,29.1-35.3,30.7s-77.6,3.9-77.6,3.9s5.7-14.5-26.5-17c-32.2-2.6-53.6,22.4-29.5,16.7c5.6-1.3,19.2,0.1,19.2,0.1
			s-24,10.1-24.2,24.8s28.7,23.2,28.7,23.2l-25.1,1.3c0,0,4.8,21.3,32.8,19.8c28-1.4,29.8-19.9,29.8-19.9s55.7-6,80.3-7.2
			c24.6-1.2,40.6,36.2,40.6,36.2"/>
		<path fill="none" stroke="#C68B60" stroke-width="4" stroke-miterlimit="10" d="M1080.7,2375.1c0,0-109.1-17.6-112-76"/>
		<path fill="none" stroke="#C68B60" stroke-width="4" stroke-miterlimit="10" d="M1083.2,2493.9c0,0-73.9,8.2-116.2,48.7"/>
	</g>
	<path fill="#F9EC8F" d="M1196.6,2172.3c73.2,110.1,226.4,62.5,265,78.4c38.5,15.9-124.5-63.4-65.3-80.2L1196.6,2172.3z"/>
	<path fill="#FFF597" d="M1282.3,2201.3c0,0-15.7,44.7,4,78.7c6.7,11.6,18.2,22.4,30.5,31.7c23.8,18-5.7,67.7-5.7,67.7
		s41.2-51.8,23.3-74c-8-9.9-16.5-21.3-24.5-33.8C1283.8,2230.9,1282.3,2201.3,1282.3,2201.3z"/>
	<path fill="#FFF597" d="M1332,2654c0,0-20.2-42.8-4-78.7c5.5-12.2,15.9-24.2,27.1-34.6c21.9-20.3-12.5-66.7-12.5-66.7
		s46.2,47.3,30.6,71.3c-6.9,10.6-14.3,22.9-21,36.2C1330.5,2624.4,1332,2654,1332,2654z"/>
	<path fill="#CCCCCC" d="M593.1,2505.3c16.4-14.2,35,73,35,73l10.7,29.3l201.6-3.5l-29.5-70.8l-19.5-88.4l-162.9,13.2
		C628.6,2458.1,595.6,2477,593.1,2505.3z"/>
	<path fill="#CCCCCC" d="M588.2,2462.9c12-34.9,39.7-59.3,37.3-79.2l1.4,38.6l45.8-17l128.1-84.1l-9,128.5
		C791.8,2449.8,606.2,2458.1,588.2,2462.9z"/>
	<polygon fill="#E6E6E6" points="902.2,2659 798.8,2453.7 765,2540.7 	"/>
	<path fill="#0D0C3D" d="M898.8,2656.9c0,0-78.6-80.3-121.8-78.6c-43.1,1.7-160,31.1-223.3,34.3c167.2-7.3,236.4-3.7,236.4-3.7
		l57.5,20.9l4.8,37.2L898.8,2656.9z"/>
	<polygon fill="#E6E6E6" points="880.1,2225.4 798.1,2440.2 755.6,2357.1 	"/>
	<path fill="#C1272D" d="M763.4,2460.1l16.8-18.6c0.6-0.6,1.6-0.7,2.2-0.1l18.6,16.8c0.6,0.6,0.7,1.6,0.1,2.2l-16.8,18.6
		c-0.6,0.6-1.6,0.7-2.2,0.1l-18.6-16.8C762.9,2461.7,762.8,2460.7,763.4,2460.1z"/>
	<path fill="#C1272D" d="M772.4,2553.5l-18-17.7c-0.6-0.6-0.6-1.6,0-2.2l17.7-18c0.6-0.6,1.6-0.6,2.2,0l18,17.7
		c0.6,0.6,0.6,1.6,0,2.2l-17.7,18C774,2554.1,773,2554.1,772.4,2553.5z"/>
	<path fill="#C1272D" d="M762.4,2440.1l16.8-18.6c0.6-0.6,1.6-0.7,2.2-0.1l18.6,16.8c0.6,0.6,0.7,1.6,0.1,2.2l-16.8,18.6
		c-0.6,0.6-1.6,0.7-2.2,0.1l-18.6-16.8C761.9,2441.8,761.8,2440.8,762.4,2440.1z"/>
	<polygon fill="#C1272D" points="790.1,2534.3 756.4,2534.7 755.6,2459.2 772.4,2450.4 789.4,2458.8 	"/>
	<path d="M409.5,2195.7l16.2-9l3.6,5.7l34.3-26.8l37.2-20.6v0c10,18-15.7,51.5-33.8,61.5l-51.9,28.8l-11.2-20.2
		C400.1,2208.2,402.6,2199.5,409.5,2195.7z"/>
	<path d="M414.7,2475.7l15.7-9.8l3.9,5.6l32.9-28.5l36.1-22.5h0c10.9,17.5-13.1,52.2-30.6,63.1l-50.4,31.4l-12.2-19.6
		C406,2488.7,408,2479.8,414.7,2475.7z"/>
	<path fill="#FFD1A6" stroke="#C1916C" stroke-miterlimit="10" d="M1029.7,2620.4l-7.9-1.7c0-1-0.2-1.9-0.4-2.8l6.9-0.4
		c2.3-0.1,4-2.1,3.9-4.4l-0.1-1.1c-0.1-2.3-2.1-4-4.4-3.9l-15.9,0.9l2.2-1.3c2-1.2,2.6-3.7,1.4-5.7l-0.6-1c-1.2-2-3.7-2.6-5.7-1.4
		l-11.9,7.3c-4.8,0.4-9,3.9-10.1,8.9l-1.4,6.6c-1.3,6.1,2.5,12.1,8.5,13.5l11.9,10.2c1.7,1.5,4.3,1.3,5.8-0.5l0.7-0.9
		c1.1-1.3,1.2-3,0.6-4.4l8.1,5.2c1.9,1.2,4.5,0.7,5.7-1.2l0.6-0.9c1.2-1.9,0.7-4.5-1.2-5.7l-7.4-4.8c0.5-0.9,0.9-1.9,1.1-2.9
		l7.6,1.7c2.2,0.5,4.4-0.9,4.9-3.2l0.2-1.1C1033.3,2623.1,1031.9,2620.9,1029.7,2620.4z"/>
	<path fill="#E6E6E6" d="M991.5,2650.4l-1.2-54.6l-45.8,1c-3.5,0.1-6.3,3-6.2,6.5l0.9,43.5c0.1,2.6,2.2,4.7,4.9,4.6L991.5,2650.4z"
		/>
	<path fill="#1B1464" d="M971.4,2652.2l-1.2-54.6l-177.2,3.9c-3.5,0.1-6.3,3-6.2,6.5l0.9,43.5c0.1,2.6,2.2,4.7,4.9,4.6L971.4,2652.2
		z"/>
	<path fill="#FFD1A6" stroke="#C1916C" stroke-miterlimit="10" d="M1029.7,2232.1l-7.9-1.7c0-1-0.2-1.9-0.4-2.8l6.9-0.4
		c2.3-0.1,4-2.1,3.9-4.4l-0.1-1.1c-0.1-2.3-2.1-4-4.4-3.9l-15.9,0.9l2.2-1.3c2-1.2,2.6-3.7,1.4-5.7l-0.6-1c-1.2-2-3.7-2.6-5.7-1.4
		l-11.9,7.3c-4.8,0.4-9,3.9-10.1,8.9l-1.4,6.6c-1.3,6.1,2.5,12.1,8.5,13.5l11.9,10.2c1.7,1.5,4.3,1.3,5.8-0.5l0.7-0.9
		c1.1-1.3,1.2-3,0.6-4.4l8.1,5.2c1.9,1.2,4.5,0.7,5.7-1.2l0.6-0.9c1.2-1.9,0.7-4.5-1.2-5.7l-7.4-4.8c0.5-0.9,0.9-1.9,1.1-2.9
		l7.6,1.7c2.2,0.5,4.4-0.9,4.9-3.2l0.2-1.1C1033.3,2234.8,1031.9,2232.6,1029.7,2232.1z"/>
	<path fill="#E6E6E6" d="M991.5,2262.1l-1.2-54.6l-45.8,1c-3.5,0.1-6.3,3-6.2,6.5l0.9,43.5c0.1,2.6,2.2,4.7,4.9,4.6L991.5,2262.1z"
		/>
	<g>
		<polygon fill="#4D4D4D" points="911.7,2404.4 941.3,2349.9 971.1,2364.6 1019.5,2367.1 1019.5,2379.4 991.8,2397.6 996.1,2412 
			985.2,2423.9 965.6,2485.8 955,2491.1 911.7,2455.9 		"/>
		<path fill="#F2F2F2" stroke="#4D4D4D" stroke-linecap="round" stroke-miterlimit="10" d="M965.6,2484.6l-13.7-5.9
			c-6.2-2.7-6.1-8.6-3.5-14.8l12.9-30.1c2.7-6.2,9.8-9.1,16-6.4l8.8,4.6c-1.6,9.2,5.7,14.5,3.1,20.7l-5.5,21.1"/>
		<path fill="#F2F2F2" stroke="#4D4D4D" stroke-linecap="round" stroke-miterlimit="10" d="M908,2461.3l0.6-17.4
			c0-6.8-6.1,4.3,0.7,4.3h32.4c6.8,0,12.2,5.5,12.2,12.2v24.1c0,6.8-5.5,12.2-12.2,12.2l0.2-4.2"/>
		<path fill="#F2F2F2" stroke="#4D4D4D" stroke-linecap="round" stroke-miterlimit="10" d="M940.1,2352.1l13.8,33.3
			c0,6.8-5.5,12.2-12.2,12.2h-32.4c-6.8,0-1.7,3.5-1.7-3.2l2.7-5.4"/>
		<path fill="#F2F2F2" stroke="#4D4D4D" stroke-linecap="round" stroke-miterlimit="10" d="M946.7,2349"/>
		<path fill="#F2A5C4" d="M924.1,2339.9c0,0,28.3,12.4,47,21.3c8.8,4.2,29.7-7.5,40.2-3.2c44.2,17.9-19.5,39.2-15.1,45.3
			c13.1,18-7.8,20.7-7.8,20.7s5.9,24.4,5.6,42.7c-0.1,10.7-9.9,13.7-34.6,24.4c-6.1,2.6-13.4,12.1-16,17.9c-4.9,10.9-26.5,8-26.5,8
			s19.6,1.6,23.5-10c1.4-4,6.2-14.1,9.6-16.1c20.8-12.4,29.9-14.9,33-24.2c5-15.2-2.7-45.9-2.7-45.9s19.2-5.6,5.2-23.1
			c-2.5-3.1,48.8-19,23.4-29.9c-11.2-4.8-37.8,5.4-46.5,0C947.7,2358.7,924.1,2339.9,924.1,2339.9z"/>
		<path fill="#F2A5C4" d="M924.1,2339.9c0,0,16.5,19.6,0.9,25.3c-15.6,5.7-24.2,19.2-24.2,34c0,29.6,0.3,43.6,0.3,68.1
			c0,10.7,16,7.9,29.3,14.3c7.1,3.4,10.6,15.5,5.9,23.2c-6.7,11.1-19.4,12-19.4,12s10.8,2.8,20.3-8.1c6.3-7.3,8.2-21.5,6-28.4
			c-5.6-17.2-26.2-21.3-26.2-21.3l2.1-65.3c0,0,23.5-15.8,28.6-27.6C943.9,2349.9,924.1,2339.9,924.1,2339.9z"/>
		<path fill="#E08DAF" d="M924.1,2339.9c0,0,30.3,17.6,23.3,31.5c-5.5,11-25,18.9-24.7,27.9c0.7,20.4,0,43.9,0,59.2
			c0,6,16.6,6.9,21.3,16.5c3,6.1,1.9,25.5-4.9,34.1c-9.8,12.4-22.4,7.8-22.4,7.8s13.5,2,21.3-9.5c4.1-6,4-19.6-0.7-24
			c-10.3-9.7-23.4-23.7-23.4-33.3c0-22.5,5.4-52.6,5.4-64.8c0-6.1,5.9-2.1,17.5-13.8C952,2356.1,924.1,2339.9,924.1,2339.9z"/>
		<path fill="#C1272D" d="M908.8,2493.1l-24.3-16.7c-9.7-6.6-10.8-21.8-2.5-33.9h0c3.4-5,34.1-18.2,42-19.5c8-1.3,5.6,6.8,10.7,11
			c5.1,4.2,7.5-2.8,9.4,13.7l-11.1,37C924.9,2496.6,918.5,2499.7,908.8,2493.1z"/>
		
			<line fill="none" stroke="#66141A" stroke-linecap="round" stroke-miterlimit="10" x1="933.2" y1="2432.4" x2="919.7" y2="2460.7"/>
		<ellipse fill="#29ABE2" cx="955.8" cy="2524" rx="3.9" ry="3.9"/>
		<ellipse fill="#29ABE2" cx="971.3" cy="2531.6" rx="3.9" ry="3.9"/>
		<ellipse fill="#29ABE2" cx="979" cy="2508.5" rx="3.9" ry="3.9"/>
		<path fill="#29ABE2" d="M953.9,2525.9c-2,0-2,0-2,0"/>
		<polygon fill="#29ABE2" points="959.6,2524 951.9,2524 951.9,2489.5 959.6,2485.2 		"/>
		<polygon fill="#29ABE2" points="975.2,2531.6 967.4,2531.6 967.4,2481.2 975.2,2476.2 		"/>
		<path fill="#29ABE2" d="M982.9,2508.6h-7.7c0,0-2.2-31.7,0-32.5s7.1-8.6,7.1-8.6L982.9,2508.6z"/>
		<ellipse fill="#FFFFFF" cx="955" cy="2525.1" rx="1.1" ry="1.1"/>
		<ellipse fill="#FFFFFF" cx="969.7" cy="2532.7" rx="1.1" ry="1.1"/>
		<ellipse fill="#FFFFFF" cx="977.1" cy="2509.7" rx="1.1" ry="1.1"/>
	</g>
	<path fill="#0D0C3D" d="M877,2227.9c0,0-109.3,186.7-152.3,189.4c-43.1,2.7-34.6,1.8-97.8,5c150.7-56.3,147.9-166.7,147.9-166.7
		l41.3-2.1l13.9-36.7L877,2227.9z"/>
	<path fill="#1B1464" d="M971.4,2263.9l-1.2-54.6l-177.2,3.9c-3.5,0.1-6.3,3-6.2,6.5l0.9,43.5c0.1,2.6,2.2,4.7,4.9,4.6L971.4,2263.9
		z"/>
	<path fill="#F2F2F2" d="M1199,2252.1c-13.4,0.7-22.9,30.3-21,66c1.8,35.8,14.2,64.3,27.6,63.6s65.7-32.4,63.8-68.2
		C1267.6,2277.7,1212.5,2251.4,1199,2252.1z"/>
	
		<ellipse transform="matrix(-5.080185e-02 -0.9987 0.9987 -5.080185e-02 -988.5092 3600.9182)" fill="#21A9ED" cx="1216.9" cy="2270.2" rx="13.1" ry="9.8"/>
	
		<ellipse transform="matrix(-5.080185e-02 -0.9987 0.9987 -5.080185e-02 -988.5092 3600.9182)" fill="#1A1A1A" cx="1216.9" cy="2270.2" rx="4" ry="3"/>
	<path fill="#F2F2F2" d="M1210.2,2471.3c-13.4,0.7-22.9,30.3-21,66c1.8,35.8,14.2,64.3,27.6,63.6s65.7-32.4,63.8-68.2
		C1278.8,2496.9,1223.6,2470.7,1210.2,2471.3z"/>
	
		<ellipse transform="matrix(-5.080185e-02 -0.9987 0.9987 -5.080185e-02 -1194.2029 3931.4993)" fill="#21A9ED" cx="1271.2" cy="2533.2" rx="13.1" ry="9.8"/>
	
		<ellipse transform="matrix(-5.080185e-02 -0.9987 0.9987 -5.080185e-02 -1189.6378 3935.4167)" fill="#1A1A1A" cx="1275.3" cy="2533" rx="4" ry="3"/>
</g>
</svg>
