<?xml version="1.0" encoding="utf-8"?>
<!-- Generator: Adobe Illustrator 18.1.1, SVG Export Plug-In . SVG Version: 6.00 Build 0)  -->
<svg version="1.1" id="Layer_1" xmlns="http://www.w3.org/2000/svg" xmlns:xlink="http://www.w3.org/1999/xlink" x="0px" y="0px"
	 viewBox="0 0 1280 800" enable-background="new 0 0 1280 800" xml:space="preserve">
<g>
	<g>
		<path fill="none" stroke="#FFFFFF" stroke-width="4" stroke-miterlimit="10" d="M449.4,207.1c0,0,56.7-87.1,145.4-16"/>
		<g>
			<polygon fill="#FFFFFF" points="576.3,195 590.8,188 595.9,172.7 612.5,207.1 			"/>
		</g>
	</g>
</g>
<g>
	<path fill="#FFFFFF" d="M398.4,181.9h-58.3c-5.3,0-9.7,4.3-9.7,9.7v123.7c0,5.3,4.3,9.7,9.7,9.7h58.3c5.3,0,9.7-4.3,9.7-9.7V191.6
		C408.1,186.2,403.7,181.9,398.4,181.9z M369.3,319.9c-3.4,0-6.1-2.7-6.1-6.1c0-3.4,2.7-6.1,6.1-6.1s6.1,2.7,6.1,6.1
		C375.3,317.1,372.6,319.9,369.3,319.9z M398.7,301.3h-58.9V191.9h58.9V301.3z"/>
</g>
<g>
	<path fill="#FFFFFF" d="M751.1,321.5v-58.3c0-5.3-4.3-9.7-9.7-9.7H617.8c-5.3,0-9.7,4.3-9.7,9.7v58.3c0,5.3,4.3,9.7,9.7,9.7h123.7
		C746.8,331.2,751.1,326.9,751.1,321.5z M613.2,292.4c0-3.4,2.7-6.1,6.1-6.1c3.4,0,6.1,2.7,6.1,6.1c0,3.4-2.7,6.1-6.1,6.1
		C615.9,298.5,613.2,295.8,613.2,292.4z M631.8,321.9V263h109.4v58.9H631.8z"/>
</g>
</svg>
