<?xml version="1.0" encoding="utf-8"?>
<!-- Generator: Adobe Illustrator 18.1.1, SVG Export Plug-In . SVG Version: 6.00 Build 0)  -->
<svg version="1.1" id="Layer_1" xmlns="http://www.w3.org/2000/svg" xmlns:xlink="http://www.w3.org/1999/xlink" x="0px" y="0px"
	 viewBox="0 0 1280 800" enable-background="new 0 0 1280 800" xml:space="preserve">
<path fill="#3B5998" d="M550.2,239.9h-21.4c-2.6,0-4.7-2.1-4.7-4.7v-21.4c0-2.6,2.1-4.7,4.7-4.7h21.4c2.6,0,4.7,2.1,4.7,4.7v21.4
	C555,237.8,552.8,239.9,550.2,239.9z"/>
<path fill="#FFFFFF" d="M539.9,241.2v-11.3h-4v-5.3h4c0,0,0-3,0-4.5s1.3-2.6,2.1-3.5s1-1.4,2.8-1.4s4.7,0,4.7,0l-0.6,3.9
	c0,0-1,0.8-2.3,0.8c-1.7,0-2,1.8-2,1.8v2.7h5l-1,5.2h-3.9l0.2,11.6H539.9z"/>
<g>
	<g id="AtBf5a.tif_2_">
		<g>
			<path fill="#80604B" d="M540.4,210.8c0.6,0.2,0.8,0.5,0.3,1c-0.1,0.1-0.2,0.4,0,0.5c0.1,0.1,0.3,0,0.4-0.1
				c0.4-0.3,0.8-0.6,1.4-0.6c0.3,0,0.5-0.2,0.4-0.5c-0.3-0.9,0.3-1,0.9-0.9c0.6,0.1,1.1-0.1,1.6-0.1c0.3,0,0.4,0,0.5-0.4
				c0.2-0.8,1.2-1,1.8-0.5c0.4,0.4,0.7,0.5,1-0.1c0.3-0.7,0.9-0.4,1.5-0.3c-0.4-0.6-0.9-1-1.1-1.7c0.5-0.2,0.8,0.1,1.2,0.3
				c0.6,0.3,1.2,0.8,2.1,0.3c0.5-0.3,1.2,0.3,1.8,0.6c0.7,0.4,1.4,0.8,2,1.2c0.3,0.2,0.5,0.2,0.8,0.1c-0.1,1.8-1,3.3-1.9,4.7
				c-0.5,0.8-0.9,1.6-0.8,2.3c0.2,1.1-5.5,2.9-5.7,2.7c-1.7-1.5-5.8-0.8-5.8-0.8c-0.8,0.1-1.8,0.1-2.6,0.7c-0.1-0.3,0.1-0.7-0.1-1.1
				c-0.8-1.5-1.4-3-2.2-4.5c-0.2-0.4-0.4-0.8,0-1.2c0.5,0.2,0.8,0.6,1.3,0.7c0.2,0,0.5,0,0.7-0.2c0.1-0.3-0.1-0.4-0.3-0.5
				c-0.3-0.3-0.5-0.5-0.8-0.8c0.2-0.5-0.2-1.1,0.2-1.5C539.5,210.2,539.9,210.6,540.4,210.8z"/>
			<path fill="#C5C3A3" d="M539,209.9c0.5,0.3,0.9,0.7,1.4,0.9c0.6,0.2,0.8,0.5,0.3,1c-0.1,0.1-0.2,0.4,0,0.5c0.1,0.1,0.3,0,0.4-0.1
				c0.4-0.3,0.8-0.6,1.4-0.6c0.3,0,0.5-0.2,0.4-0.5c-0.3-0.9,0.3-1,0.9-0.9c0.6,0.1,1.1-0.1,1.6-0.1c0.3,0,0.4,0,0.5-0.4
				c0.2-0.8,1.2-1,1.8-0.5c0.4,0.4,0.7,0.5,1-0.1c0.3-0.7,0.9-0.4,1.5-0.3c-0.4-0.6-0.9-1-1.1-1.7c0.5-0.2,0.8,0.1,1.2,0.3
				c0.6,0.3,1.2,0.8,2.1,0.3c0.5-0.3,1.2,0.3,1.8,0.6c0.7,0.4,1.4,0.8,2,1.2c0.3,0.2,0.5,0.2,0.8,0.1c-0.9-5.8-7.2-10.3-12.7-7.6
				c-0.2,0.5-0.6,2.2-0.7,2.1c-0.6-0.1-0.9,0.3-0.8,0.8c0.3,0.9-0.3,1.2-0.9,1.6c-0.7,0.4-1.5,0.5-1.9,1.3c0.3,0.3,0.6,0.4,0.9,0.5
				c0.6,0.3,0.5,0.9,0.3,1.3c-0.2,0.5-0.6,0.2-0.9,0.1c-0.2-0.1-0.5-0.1-0.7-0.1C539.3,209.5,538.9,209.5,539,209.9z M545.8,207.7
				c0.2,0.2,0.5,0.4,0.3,0.7c-0.3,0.4-0.7,0.4-1.1,0.1c-0.5-0.3-0.9-0.9-1.4-1.1c-0.3-0.1-0.8-0.1-0.6-0.7c0.1-0.3,0.1-0.7,0.6-0.9
				c0.5-0.1,0.8,0.1,1.1,0.5C544.9,206.9,545.1,207.5,545.8,207.7z"/>
			<path fill="#80604B" d="M539.6,209.4c0.2,0,0.5,0,0.7,0.1c0.3,0.1,0.7,0.4,0.9-0.1c0.2-0.4,0.3-1-0.3-1.3
				c-0.3-0.1-0.7-0.2-0.9-0.5c-0.3,0.2-0.5,0.5-0.2,0.8C539.9,208.8,539.8,209.1,539.6,209.4z"/>
			<path fill="#C5C3A3" d="M537.9,212.4c0.5,0.2,0.8,0.6,1.3,0.7c0.2,0,0.5,0,0.7-0.2c0.1-0.3-0.1-0.4-0.3-0.5
				c-0.3-0.3-0.5-0.5-0.8-0.8C538.6,211.9,538,211.9,537.9,212.4z"/>
			<path fill="#242723" d="M554,215c0.6-0.6,0.8-1.3,0.7-2.1c0-0.3-0.1-0.6-0.5-0.5c-0.3,0.1-0.5,0.3-0.4,0.6
				C554,213.6,553.6,214.2,554,215z"/>
			<path fill="#C5C3A3" d="M550.5,211.1c0.2,0.7,0.7,0.8,1.3,1.1C551.5,211.5,551.2,211.2,550.5,211.1z"/>
			<path fill="#80604B" d="M545.8,207.7c-0.7-0.2-0.9-0.8-1.2-1.4c-0.2-0.4-0.5-0.7-1.1-0.5c-0.5,0.1-0.4,0.6-0.6,0.9
				c-0.2,0.5,0.3,0.6,0.6,0.7c0.6,0.3,0.9,0.8,1.4,1.1c0.4,0.2,0.8,0.3,1.1-0.1C546.3,208.1,546,207.9,545.8,207.7z"/>
		</g>
	</g>
	<g id="S00gTc.tif_2_">
		<g>
			<path fill="#FEFEFE" d="M547.9,205.7c-0.1,0-0.1-0.1-0.1-0.2c-0.5-0.7-1.3-1.2-1.8-1.8c-1.2-0.9-2.5-1.6-3.5-2.7
				c-0.7-0.8-0.2-1,0.4-1.1c1.2-0.1,2.5-0.1,3.7,0c3.3,0.4,6.1,2,8.6,4.2c1.1,1,1.7,2.2,1.7,3.7c0.3,2.1-0.3,4-1.3,5.8
				c-0.2,0.3-0.5,0.5-0.6,0.9c-0.3,1.1-0.6,2.3-1.1,3.4c-0.5,1.3-1.2,1.5-2.3,0.6c-0.1-0.1-0.3-0.1-0.4-0.2
				c-1.1-0.6-1.3-1.4-0.6-2.5c0.2-0.3,0.5-0.6,0.7-0.8c0.9-1.2,0.7-2.5-0.6-3.2c-0.6-0.4-1.2-0.8-1.9-1.1c-1.1-0.4-1.5-1.2-1.5-2.3
				C547.1,207.6,548.2,206.8,547.9,205.7L547.9,205.7z"/>
			<path fill="#A38136" d="M547.6,208.7c0,1.1,0.4,1.9,1.5,2.3c0.7,0.3,1.3,0.7,1.9,1.1c1.3,0.7,1.5,2,0.6,3.2
				c-0.2,0.3-0.5,0.5-0.7,0.8c-0.7,1.1-0.5,1.9,0.6,2.5c0.1,0.1,0.3,0.1,0.4,0.2c1,0.9,1.8,0.7,2.3-0.6c0.4-1.1,0.7-2.3,1.1-3.4
				c0.1-0.4,0.4-0.6,0.6-0.9c1-1.8,1.7-3.7,1.3-5.8c-0.4-0.1-0.6-0.5-1.1-0.5c-1.4-0.1-2.8-0.9-3.4-1.6c-1.6-2-3.7-2.1-5.9-2.3
				c-0.3,0-0.5,0-0.6,0.3c0.6,0.6,1.4,1.1,1.8,1.8c0.2,0,0.2,0,0.1,0.2c0,0,0,0.1,0,0.1c1.3,1,1.3,1.8,0,2.6
				C547.9,208.5,547.7,208.6,547.6,208.7z"/>
			<path fill="#EFD93C" d="M546,203.8c0.1-0.3,0.3-0.3,0.6-0.3c2.2,0.2,4.3,0.3,5.9,2.3c0.6,0.8,2,1.6,3.4,1.6
				c0.5,0,0.7,0.4,1.1,0.5c0-1.5-0.6-2.7-1.7-3.7c-2.5-2.2-5.2-3.8-8.6-4.2c-1.2-0.2-2.5-0.1-3.7,0c-0.6,0-1.1,0.3-0.4,1.1
				C543.6,202.2,544.9,202.9,546,203.8z"/>
			<path fill="#DCD48F" d="M547.6,208.7c0.1-0.1,0.3-0.2,0.4-0.2c1.3-0.9,1.2-1.6,0-2.6C548.2,206.8,547.1,207.6,547.6,208.7z"/>
			<path fill="#DCD48F" d="M547.9,205.7c0.1-0.1,0.1-0.2-0.1-0.2C547.8,205.6,547.9,205.7,547.9,205.7z"/>
		</g>
	</g>
</g>
</svg>
