<?xml version="1.0" encoding="utf-8"?>
<!-- Generator: Adobe Illustrator 18.1.1, SVG Export Plug-In . SVG Version: 6.00 Build 0)  -->
<svg version="1.1" id="Layer_1" xmlns="http://www.w3.org/2000/svg" xmlns:xlink="http://www.w3.org/1999/xlink" x="0px" y="0px"
	 viewBox="320.5 183.6 28.2 23.1" enable-background="new 320.5 183.6 28.2 23.1" xml:space="preserve">
<g>
	<path fill="#FFFFFF" d="M344.6,189.3c-0.9,0.4-1.9,0.7-2.8,0.8c1.1-0.6,1.8-1.6,2.2-2.7c-1,0.6-2,1-3.2,1.2c-0.9-1-2.2-1.5-3.7-1.5
		c-2.7,0-2.2,3.5-4.9,4.9c-0.4,0.2,0.1,0.7,0.1,1.1c-4.1-0.2-7.8-2.2-10.2-5.2c-0.4,0.7-0.7,1.6-0.7,2.5c0,1.7,0.9,3.2,2.2,4.1
		c-0.8,0-1.6-0.2-2.2-0.6v0.1c0,2.4,1.7,4.4,4,4.9c-0.4,0.1-0.9,0.2-1.3,0.2c-0.3,0-0.6-0.1-0.9-0.1c0.6,2,2.5,3.4,4.6,3.5
		c-1.7,1.4-3.8,2.1-6.2,2.1c-0.4,0-0.8,0-1.2-0.1c2.2,1.4,4.8,2.2,7.6,2.2c9.2,0,14.1-7.5,14.1-14.1c0-0.2,0-0.4,0-0.6
		C343.2,191.2,344,190.3,344.6,189.3L344.6,189.3z"/>
</g>
<g id="AtBf5a.tif_3_">
	<g>
		<path fill="#80604B" d="M344.1,195.4c-0.5-0.2-0.7-0.1-0.7,0.4c0,0.2-0.1,0.3-0.2,0.2c-0.1,0-0.2-0.2-0.2-0.2
			c-0.1-0.4-0.1-0.8-0.5-1.1c-0.2-0.2-0.2-0.4,0.1-0.5c0.7-0.4,0.4-0.7-0.1-1c-0.4-0.2-0.6-0.6-0.9-0.9c-0.2-0.1-0.2-0.2-0.1-0.5
			c0.2-0.6-0.2-1.2-0.9-1.2c-0.5,0-0.7-0.1-0.6-0.6c0.2-0.6-0.3-0.7-0.8-1c0.6-0.2,1.1-0.2,1.5-0.4c-0.2-0.4-0.6-0.4-0.9-0.5
			c-0.6-0.1-1.2-0.1-1.4-0.9c-0.2-0.5-0.9-0.4-1.4-0.6c-0.6-0.1-1.2-0.2-1.9-0.3c-0.2-0.1-0.4-0.2-0.6-0.4c-0.9,1.1-1.1,2.5-1.4,3.8
			c-0.1,0.7-0.2,1.4-0.7,1.9c-0.7,0.6-0.4,6.5-0.7,7.1c-0.1,0.2,0.1,0.6,0.4,0.7c0.3,0.1,0.4-0.1,0.6-0.2c0.2-0.3,0.2-5.1,0.5-5.1
			c1.9,0,0.3,4.9,1,5.1s0.6-3.5,1.4-3.3c0.1,0,0.2,0.1,0.4,0.1c-0.1,1.9-0.1,4.1-0.2,4.5c-0.1,0.2,0.1,0.6,0.4,0.7
			c0.3,0.1,0.4-0.1,0.6-0.2c0.2-0.2,0.2-3.2,0.4-4.5c0.1,0,0.1,0.1,0.1,0.1c0.1,0.1,0.3,0.2,0.5,0.3c0,1.1-0.1,2-0.1,2.2
			c-0.1,0.2,0.1,0.6,0.4,0.7c0.3,0.1,0.4-0.1,0.6-0.2c0.1-0.1,0.1-0.4,0.1-0.9l0,0c0.4,0.5,1,0.9,1.2,1.7c0.2-0.2,0.4-0.4,0.7-0.6
			c1.2-0.5,2.5-1.1,3.8-1.5c0.4-0.1,0.7-0.3,0.6-0.7c-0.4-0.1-0.9-0.1-1.2-0.3c-0.2-0.1-0.4-0.2-0.3-0.5c0.1-0.2,0.3-0.1,0.4-0.1
			c0.3,0,0.6-0.1,0.9-0.1c0.2-0.4,0.7-0.6,0.7-1.1C345,195.6,344.5,195.6,344.1,195.4z"/>
		<path fill="#C5C3A3" d="M345.4,195.6c-0.4-0.1-0.9-0.1-1.3-0.2c-0.5-0.2-0.7-0.1-0.7,0.4c0,0.2-0.1,0.3-0.2,0.2
			c-0.1,0-0.2-0.2-0.2-0.2c-0.1-0.4-0.1-0.8-0.5-1.1c-0.2-0.2-0.2-0.4,0.1-0.5c0.7-0.4,0.4-0.7-0.1-1c-0.4-0.2-0.6-0.6-0.9-0.9
			c-0.2-0.1-0.2-0.2-0.1-0.5c0.2-0.6-0.2-1.2-0.9-1.2c-0.5,0-0.7-0.1-0.6-0.6c0.2-0.6-0.3-0.7-0.8-1c0.6-0.2,1.1-0.2,1.5-0.4
			c-0.2-0.4-0.6-0.4-0.9-0.5c-0.6-0.1-1.2-0.1-1.4-0.9c-0.2-0.5-0.9-0.4-1.4-0.6c-0.6-0.1-1.2-0.2-1.9-0.3c-0.2-0.1-0.4-0.2-0.6-0.4
			c3.7-3,10-2.4,11.9,2.2c-0.1,0.4-0.9,1.6-0.7,1.7c0.4,0.3,0.4,0.7,0.1,0.9c-0.7,0.4-0.4,0.9-0.2,1.4c0.2,0.6,0.6,1.1,0.5,1.7
			c-0.3,0-0.6-0.1-0.9-0.2c-0.6-0.2-0.7,0.2-0.9,0.6c-0.2,0.4,0.2,0.4,0.5,0.5c0.2,0.1,0.4,0.2,0.5,0.3
			C345.4,195.2,345.8,195.4,345.4,195.6z M342.5,190.7c-0.2,0-0.5-0.1-0.6,0.2c-0.1,0.4,0.2,0.6,0.6,0.6c0.5,0.1,1-0.1,1.5,0.1
			c0.2,0.1,0.6,0.4,0.7-0.1c0.1-0.2,0.4-0.5,0.1-0.8c-0.2-0.4-0.6-0.4-0.9-0.2C343.5,190.7,343,191,342.5,190.7z"/>
		<path fill="#80604B" d="M345.4,195.1c-0.2-0.1-0.3-0.2-0.5-0.3c-0.2-0.1-0.7-0.1-0.5-0.5c0.1-0.4,0.4-0.8,0.9-0.6
			c0.2,0.1,0.6,0.2,0.9,0.2c0.1,0.3,0.1,0.5-0.3,0.6C345.5,194.5,345.4,194.7,345.4,195.1z"/>
		<path fill="#C5C3A3" d="M344.8,197.7c-0.4-0.1-0.9-0.1-1.2-0.3c-0.2-0.1-0.4-0.2-0.3-0.5c0.1-0.2,0.3-0.1,0.4-0.1
			c0.3,0,0.6-0.1,0.9-0.1C344.6,197,345,197.3,344.8,197.7z"/>
		<path fill="#242723" d="M333.6,190.8c-0.1-0.7,0.2-1.2,0.7-1.6c0.2-0.1,0.4-0.3,0.6,0c0.1,0.2,0.1,0.4-0.1,0.6
			C334.3,190,334.2,190.5,333.6,190.8z"/>
		<path fill="#C5C3A3" d="M337.7,190.3c-0.5,0.3-0.8,0.1-1.4-0.1C336.9,190,337.3,190,337.7,190.3z"/>
		<path fill="#80604B" d="M342.5,190.7c0.5,0.2,1,0,1.5-0.2c0.4-0.1,0.7-0.1,0.9,0.2c0.2,0.3-0.1,0.6-0.1,0.8
			c-0.2,0.4-0.5,0.2-0.7,0.1c-0.5-0.1-1,0-1.5-0.1c-0.4-0.1-0.6-0.2-0.6-0.6C342,190.7,342.3,190.8,342.5,190.7z"/>
	</g>
</g>
<g id="S00gTc.tif_3_">
	<g>
		<path fill="#FEFEFE" d="M342.2,188.4c0.1,0,0.1,0,0.1-0.1c0.7-0.2,1.4,0,2.1-0.1c1.2,0.1,2.4,0.4,3.6,0.2c0.8-0.1,0.7-0.5,0.3-0.9
			c-0.7-0.7-1.5-1.4-2.3-2c-2.3-1.5-4.8-2-7.5-2c-1.2,0-2.2,0.4-3,1.4c-1.3,1.1-1.9,2.5-2.3,4.1c-0.1,0.2,0,0.6-0.2,0.9
			c-0.4,0.9-0.9,1.7-1.2,2.6c-0.4,1.1-0.1,1.5,1.1,1.5c0.1,0,0.2,0.1,0.4,0.1c1,0.2,1.5-0.2,1.7-1.2c0.1-0.3,0-0.6,0-0.9
			c0.1-1.2,0.9-1.9,2.1-1.6c0.6,0.1,1.2,0.2,1.7,0.4c0.9,0.3,1.6,0.1,2.2-0.6C341.7,190,341.5,188.9,342.2,188.4L342.2,188.4z"/>
		<path fill="#A38136" d="M340.9,190.4c-0.6,0.7-1.3,0.9-2.2,0.6c-0.6-0.2-1.2-0.2-1.7-0.4c-1.2-0.2-2,0.4-2.1,1.6
			c0,0.3,0,0.6,0,0.9c-0.1,1.1-0.7,1.4-1.7,1.2c-0.1,0-0.2-0.1-0.4-0.1c-1.1,0-1.5-0.5-1.1-1.5c0.4-0.9,0.7-1.7,1.2-2.6
			c0.1-0.3,0.1-0.6,0.2-0.9c0.4-1.6,1-3.1,2.3-4.1c0.3,0.1,0.6,0,0.9,0.2c0.9,0.7,2.2,0.9,3,0.8c2.1-0.4,3.5,0.7,4.9,1.7
			c0.2,0.1,0.3,0.2,0.2,0.4c-0.7,0.1-1.4-0.1-2.1,0.1c-0.1-0.1-0.1-0.1-0.1,0.1H342c-1.4-0.1-1.7,0.4-1.5,1.5
			C340.8,190.2,340.8,190.2,340.9,190.4z"/>
		<path fill="#EFD93C" d="M344.5,188.3c0.1-0.2,0-0.3-0.2-0.4c-1.5-1.1-2.8-2.1-4.9-1.7c-0.8,0.1-2.1-0.1-3-0.8
			c-0.3-0.2-0.6-0.1-0.9-0.2c0.8-0.9,1.8-1.3,3-1.4c2.7-0.1,5.3,0.5,7.5,2c0.9,0.6,1.6,1.2,2.3,2c0.4,0.4,0.5,0.7-0.3,0.9
			C346.8,188.6,345.6,188.4,344.5,188.3z"/>
		<path fill="#DCD48F" d="M340.9,190.4c-0.1-0.1-0.1-0.2-0.1-0.4c-0.3-1.2,0.1-1.6,1.5-1.5C341.5,188.9,341.7,190,340.9,190.4z"/>
		<path fill="#DCD48F" d="M342.2,188.4c0-0.1,0.1-0.1,0.1-0.1C342.4,188.4,342.3,188.4,342.2,188.4z"/>
	</g>
</g>
</svg>
